<?xml version="1.0" encoding="UTF-8"?>
<svg version="1.1" xmlns="http://www.w3.org/2000/svg" width="500" height="500">
<path d="M0 0 C165 0 330 0 500 0 C500 165 500 330 500 500 C335 500 170 500 0 500 C0 335 0 170 0 0 Z " fill="#FEFEFE" transform="translate(0,0)"/>
<path d="M0 0 C1.06992188 0.32871094 2.13984375 0.65742187 3.2421875 0.99609375 C16.25224124 5.50437376 27.30169952 13.31865459 37 23 C37.69609375 23.68449219 38.3921875 24.36898437 39.109375 25.07421875 C45.03528326 31.28723497 49.04632586 38.45367765 53 46 C53.63615234 47.20849609 53.63615234 47.20849609 54.28515625 48.44140625 C57.40525361 54.88328027 60 62.80454555 60 70 C73.2 70 86.4 70 100 70 C100 65.38 100 60.76 100 56 C102.49247011 52.63516536 103.88292017 51.4044324 108.00390625 50.6171875 C112.45792689 50.36363794 115.57950773 51.18312401 119 54 C121.22824697 57.40426621 121.21210578 60.24313423 121.125 64.25 C121.10695313 65.32765625 121.08890625 66.4053125 121.0703125 67.515625 C121.04710937 68.33546875 121.02390625 69.1553125 121 70 C121.68513672 69.98428955 122.37027344 69.9685791 123.07617188 69.95239258 C126.21736203 69.88955817 129.35841939 69.85085651 132.5 69.8125 C133.57765625 69.78736328 134.6553125 69.76222656 135.765625 69.73632812 C143.19418414 69.66838399 149.3777256 69.91827084 155.27734375 74.9375 C155.82519531 75.618125 156.37304688 76.29875 156.9375 77 C157.50339844 77.680625 158.06929688 78.36125 158.65234375 79.0625 C161.16430618 82.67390106 161.13069154 85.80573228 161.14717102 90.07743835 C161.15790398 91.98470955 161.15790398 91.98470955 161.16885376 93.93051147 C161.17169402 95.34259009 161.17440575 96.75466896 161.17700195 98.16674805 C161.18326751 99.65172993 161.1899144 101.13671024 161.19691467 102.62168884 C161.21794908 107.50168772 161.22831749 112.38168688 161.23828125 117.26171875 C161.24232924 118.9427422 161.24644618 120.62376548 161.25063133 122.30478859 C161.26968281 130.20384058 161.2839131 138.10288323 161.2922433 146.00195378 C161.3020115 155.11376505 161.3283202 164.22533313 161.36874419 173.33705872 C161.39893022 180.38347251 161.41371459 187.42981669 161.41702431 194.47629386 C161.41937227 198.68299736 161.42829908 202.88944104 161.45348549 207.09607506 C161.47681447 211.05650947 161.48098027 215.01651389 161.47072411 218.97699928 C161.47022978 220.42657021 161.47651984 221.87616264 161.49028015 223.32566833 C161.63117283 239.05372858 161.63117283 239.05372858 155.58801746 245.50805187 C149.98660825 250.52722472 144.8836988 251.29617192 137.59403992 251.26742554 C136.32815551 251.27422221 136.32815551 251.27422221 135.03669769 251.28115618 C132.2102004 251.29381156 129.38389552 251.29217907 126.55737305 251.29052734 C124.53023023 251.2965119 122.50308969 251.30331727 120.47595215 251.31088257 C114.96967616 251.32855758 109.46346232 251.3332386 103.95716071 251.33451414 C99.35979996 251.33641337 94.76245367 251.34377122 90.16509849 251.35085833 C79.31749635 251.36714573 68.46992741 251.37202698 57.62231445 251.37060547 C46.43479544 251.36940405 35.24746936 251.39050526 24.05999917 251.4220928 C14.45304955 251.44825056 4.84616296 251.45897297 -4.760822 251.45769465 C-10.49776024 251.45718485 -16.23452707 251.46287784 -21.97142982 251.48405075 C-27.36822984 251.50342447 -32.76469477 251.50356334 -38.16150665 251.48901749 C-40.13998848 251.4869272 -42.11849122 251.49164333 -44.09693718 251.5037384 C-46.80271364 251.5192059 -49.50733685 251.50987294 -52.21308899 251.49447632 C-52.99180196 251.50476344 -53.77051492 251.51505057 -54.57282525 251.52564943 C-60.12724239 251.45603951 -64.33711821 250.04781021 -69 247 C-73.79426484 242.07616043 -76.34453635 236.95642614 -76.32563782 230.02270508 C-76.30849228 229.2729541 -76.29134674 228.52320313 -76.27368164 227.75073242 C-76.26781036 226.94501297 -76.26193909 226.13929352 -76.25588989 225.30915833 C-76.24228695 223.56746354 -76.22235021 221.82580901 -76.19673347 220.0842495 C-76.1596977 217.32125974 -76.147363 214.5591986 -76.14268494 211.79597473 C-76.12796821 203.94280226 -76.09290915 196.0905128 -75.9831543 188.23803711 C-75.91767503 183.42604068 -75.9012441 178.61594326 -75.91586113 173.80355263 C-75.91208671 171.97711596 -75.89014582 170.15061798 -75.8491993 168.32463646 C-75.36898072 158.10309642 -75.36898072 158.10309642 -79.1545105 148.96914673 C-81.65957357 146.70760946 -84.20031062 144.87398685 -87 143 C-102.836429 127.79018193 -110.58209644 105.39187668 -111.45605469 83.78686523 C-111.83609328 61.84808188 -103.84072979 41.20040679 -89 25 C-88.34902344 24.2575 -87.69804687 23.515 -87.02734375 22.75 C-77.82632 12.84385107 -65.82010533 5.22517256 -53 1 C-51.84757812 0.60941406 -50.69515625 0.21882813 -49.5078125 -0.18359375 C-33.66235675 -4.86594212 -15.80950242 -4.89341742 0 0 Z " fill="#3E3A34" transform="translate(225,126)"/>
<path d="M0 0 C0.495 5.94 0.495 5.94 1 12 C1.66 12 2.32 12 3 12 C3.33 8.04 3.66 4.08 4 0 C10.02435682 -0.18826115 15.23591276 0.12469764 21 2 C22.46953125 2.46019531 22.46953125 2.46019531 23.96875 2.9296875 C32.36594554 5.82871929 39.57334079 9.81651168 46 16 C46 19 46 19 44.46875 20.75390625 C43.8190625 21.35074219 43.169375 21.94757813 42.5 22.5625 C41.29813785 23.67136091 40.12288578 24.81123061 39 26 C39 26.66 39 27.32 39 28 C42.35250701 27.42424336 43.93818629 26.40693737 46.25 23.9375 C46.77078125 23.38964844 47.2915625 22.84179688 47.828125 22.27734375 C48.40820312 21.64505859 48.40820312 21.64505859 49 21 C55.71854077 23.51945279 59.31333461 31.59214682 62.3359375 37.69921875 C65.85442109 46.12506103 67.28914266 53.89200614 67 63 C61.06 63.495 61.06 63.495 55 64 C55 64.66 55 65.32 55 66 C58.96 66.33 62.92 66.66 67 67 C67.54477591 81.98133751 61.59275832 94.92252105 53 107 C52.34 107.66 51.68 108.32 51 109 C46.76931416 108.85411428 44.82667405 105.82667405 42 103 C39.82653432 102.13880866 39.82653432 102.13880866 38 102 C40.16264012 105.98381075 42.71211176 108.88983545 46 112 C42.87098324 119.62281744 34.04449347 123.1632472 26.9375 126.3125 C19.19047868 129.46340346 12.36281772 131.35586458 4 131 C3.67 126.71 3.34 122.42 3 118 C2.34 118 1.68 118 1 118 C0.505 123.94 0.505 123.94 0 130 C-8.75785243 130.41213423 -15.03132337 129.60593747 -23 126 C-24.02609375 125.54109375 -25.0521875 125.0821875 -26.109375 124.609375 C-32.21030686 121.72584999 -37.11821289 118.65988769 -42 114 C-40.6976722 111.13366172 -39.70225161 109.70934086 -37.375 107.4375 C-34.65106764 105.2090916 -34.65106764 105.2090916 -35 102 C-37.99220268 103.36370299 -40.29026529 104.94908083 -42.75 107.125 C-43.36359375 107.66382813 -43.9771875 108.20265625 -44.609375 108.7578125 C-45.06828125 109.16773438 -45.5271875 109.57765625 -46 110 C-54.88011338 99.79731654 -61.85088335 87.30106082 -62.625 73.625 C-62.69976562 72.37976563 -62.77453125 71.13453125 -62.8515625 69.8515625 C-62.92503906 68.44003906 -62.92503906 68.44003906 -63 67 C-57.06 66.505 -57.06 66.505 -51 66 C-51 65.34 -51 64.68 -51 64 C-54.96 63.67 -58.92 63.34 -63 63 C-63.89195361 47.53947068 -56.85899426 32.62855734 -47 21 C-43.65061827 21.57272978 -42.13779587 22.5568386 -39.875 25.0625 C-38.43065299 26.69832205 -38.43065299 26.69832205 -37 28 C-36.34 28 -35.68 28 -35 28 C-35.57575664 24.64749299 -36.59306263 23.06181371 -39.0625 20.75 C-39.61035156 20.22921875 -40.15820312 19.7084375 -40.72265625 19.171875 C-41.35494141 18.59179688 -41.35494141 18.59179688 -42 18 C-39.91032329 11.73096988 -31.73669621 8.25139343 -26.125 5.25 C-17.70446835 1.24462937 -9.28374437 -0.46418722 0 0 Z " fill="#A7DCDF" transform="translate(198,144)"/>
<path d="M0 0 C17.66785531 15.00886711 30.27821632 34.47887512 32.25634766 58.03662109 C33.62298092 81.00272638 27.71134182 101.93705532 12.44189453 119.49365234 C-3.17504699 136.74416515 -22.82373977 146.41823778 -46.00146484 147.95458984 C-69.74535766 148.55570105 -90.50828076 140.29957558 -107.83349609 124.04052734 C-125.65749091 105.43274123 -131.16154406 83.33818461 -130.85302734 58.20458984 C-130.33697801 40.51655399 -122.48865561 23.7030578 -110.58349609 10.72802734 C-109.91962891 9.97263672 -109.25576172 9.21724609 -108.57177734 8.43896484 C-81.2212538 -20.98433405 -31.55830873 -25.34979779 0 0 Z M-93.58349609 16.72802734 C-92.2811683 19.59436562 -91.2857477 21.01868649 -88.95849609 23.29052734 C-86.58349609 25.72802734 -86.58349609 25.72802734 -86.58349609 28.72802734 C-89.50450623 27.53798618 -90.88295837 26.40610539 -93.08349609 24.04052734 C-95.2459308 21.52596573 -95.2459308 21.52596573 -97.46240234 21.69287109 C-100.70098964 23.27339712 -102.18371277 26.00307802 -104.02099609 28.97802734 C-104.41351563 29.60193359 -104.80603516 30.22583984 -105.21044922 30.86865234 C-110.63245927 39.75895642 -114.82822115 49.533974 -114.64599609 60.10302734 C-114.62537109 61.29927734 -114.60474609 62.49552734 -114.58349609 63.72802734 C-110.62349609 64.05802734 -106.66349609 64.38802734 -102.58349609 64.72802734 C-102.58349609 65.38802734 -102.58349609 66.04802734 -102.58349609 66.72802734 C-108.52349609 67.22302734 -108.52349609 67.22302734 -114.58349609 67.72802734 C-114.53741861 82.68016949 -109.93463201 95.85763563 -100.58349609 107.72802734 C-98.48773567 109.48655079 -98.48773567 109.48655079 -96.58349609 110.72802734 C-96.02919922 110.15052734 -95.47490234 109.57302734 -94.90380859 108.97802734 C-94.17935547 108.23552734 -93.45490234 107.49302734 -92.70849609 106.72802734 C-91.98919922 105.98552734 -91.26990234 105.24302734 -90.52880859 104.47802734 C-88.58349609 102.72802734 -88.58349609 102.72802734 -86.58349609 102.72802734 C-87.15925273 106.08053436 -88.17655872 107.66621363 -90.64599609 109.97802734 C-91.46777344 110.75919922 -91.46777344 110.75919922 -92.30615234 111.55615234 C-92.72767578 111.94287109 -93.14919922 112.32958984 -93.58349609 112.72802734 C-90.06411866 121.18178963 -78.41474663 125.17638978 -70.58349609 128.72802734 C-64.24204703 131.2193109 -58.31892952 130.8793854 -51.58349609 130.72802734 C-51.25349609 126.76802734 -50.92349609 122.80802734 -50.58349609 118.72802734 C-49.92349609 118.72802734 -49.26349609 118.72802734 -48.58349609 118.72802734 C-48.08849609 125.16302734 -48.08849609 125.16302734 -47.58349609 131.72802734 C-33.53351543 132.66469272 -19.68711678 125.62397147 -8.56787109 117.69287109 C-7.91302734 117.04447266 -7.25818359 116.39607422 -6.58349609 115.72802734 C-6.167188 111.90781234 -6.167188 111.90781234 -7.86083984 110.13037109 C-8.40869141 109.64697266 -8.95654297 109.16357422 -9.52099609 108.66552734 C-11.88146385 106.56175348 -12.54221799 105.85186167 -13.58349609 102.72802734 C-10.1544597 103.8057245 -8.54742695 104.76585596 -6.02099609 107.41552734 C-5.21662109 108.17865234 -4.41224609 108.94177734 -3.58349609 109.72802734 C-0.73340158 109.60735802 0.22792876 108.93305536 2.16259766 106.82958984 C6.33339169 100.72269974 9.61109751 94.56817553 12.41650391 87.72802734 C12.77873047 86.86435547 13.14095703 86.00068359 13.51416016 85.11083984 C15.64444615 79.48540931 15.52042264 73.6513954 15.41650391 67.72802734 C11.45650391 67.39802734 7.49650391 67.06802734 3.41650391 66.72802734 C3.41650391 66.06802734 3.41650391 65.40802734 3.41650391 64.72802734 C9.35650391 64.23302734 9.35650391 64.23302734 15.41650391 63.72802734 C16.22366619 47.58478177 9.75809482 33.84421078 -0.58349609 21.72802734 C-3.44983437 23.03035514 -4.87415524 24.02577574 -7.14599609 26.35302734 C-9.58349609 28.72802734 -9.58349609 28.72802734 -12.58349609 28.72802734 C-11.2197931 25.73582466 -9.63441526 23.43776206 -7.45849609 20.97802734 C-6.91966797 20.36443359 -6.38083984 19.75083984 -5.82568359 19.11865234 C-5.41576172 18.65974609 -5.00583984 18.20083984 -4.58349609 17.72802734 C-17.4447775 6.70016265 -30.49819658 0.46915917 -47.58349609 0.72802734 C-47.91349609 4.68802734 -48.24349609 8.64802734 -48.58349609 12.72802734 C-49.24349609 12.72802734 -49.90349609 12.72802734 -50.58349609 12.72802734 C-51.07849609 6.78802734 -51.07849609 6.78802734 -51.58349609 0.72802734 C-67.72674167 -0.07913494 -81.46731266 6.38643643 -93.58349609 16.72802734 Z " fill="#645E66" transform="translate(249.58349609375,143.27197265625)"/>
<path d="M0 0 C0.7355908 0.00276538 1.4711816 0.00553076 2.22906303 0.00837994 C3.49531013 0.00219395 3.49531013 0.00219395 4.78713799 -0.00411701 C5.71502129 0.00666882 6.64290459 0.01745464 7.59890556 0.02856731 C8.57455467 0.02812923 9.55020378 0.02769115 10.55541801 0.0272398 C13.79130645 0.02933554 17.02668148 0.05270378 20.26247978 0.07617474 C22.50164316 0.08176789 24.7408102 0.08603931 26.97997856 0.0890379 C32.88198746 0.10050871 38.78377593 0.12999521 44.68569756 0.16314983 C50.70475087 0.19380251 56.72383971 0.20753295 62.74294853 0.22265911 C74.55945179 0.2548627 86.37579123 0.30608608 98.19216728 0.36914349 C98.26228542 16.56347337 98.31516915 32.75775393 98.3476038 48.95219898 C98.36306486 56.471766 98.38413974 63.99123862 98.41848564 71.51074505 C98.4484114 78.06566172 98.46774782 84.62051003 98.47443277 91.17549312 C98.47833967 94.64550578 98.48750535 98.11532288 98.50935745 101.58527279 C98.53356855 105.46134607 98.53413523 109.33722898 98.53274345 113.21338177 C98.54352928 114.36065243 98.55431511 115.50792309 98.56542778 116.68995953 C98.543574 122.30718155 98.48531101 126.57713722 95.19216728 131.36914349 C90.0492886 136.0102779 86.805298 136.51786317 80.05758476 136.51631451 C79.20664686 136.51999119 78.35570897 136.52366788 77.47898507 136.52745599 C74.6109122 136.53852057 71.74287552 136.54234135 68.87478447 136.54614544 C66.82513628 136.55240799 64.77548923 136.5590546 62.72584343 136.56605816 C57.14516242 136.58348715 51.56448999 136.59402506 45.98378849 136.60226369 C42.4991923 136.60740975 39.0145988 136.61348565 35.5300045 136.61977482 C24.6334358 136.63883206 13.73687391 136.65306215 2.84029174 136.66138679 C-9.74894043 136.67116262 -22.33799693 136.69748903 -34.92716718 136.73788768 C-44.65036459 136.76802147 -54.37351157 136.78285306 -64.09675479 136.7861678 C-69.90746071 136.78852139 -75.71797908 136.79752197 -81.52863503 136.82262897 C-86.99513894 136.84586678 -92.46133125 136.85016013 -97.9278717 136.83986759 C-99.93461008 136.83937108 -101.94136358 136.84572539 -103.94805527 136.85942364 C-106.68751735 136.87707802 -109.42585334 136.87006826 -112.16531563 136.85689068 C-112.95968253 136.86785992 -113.75404944 136.87882917 -114.57248807 136.89013082 C-119.75520932 136.82993072 -122.69437831 135.78884064 -126.80783272 132.36914349 C-129.88411859 127.80803089 -130.22794412 123.70139564 -130.14840889 118.34424114 C-130.14884697 117.56307934 -130.14928505 116.78191753 -130.1497364 115.97708416 C-130.14765748 113.41219793 -130.12436943 110.84797709 -130.10080147 108.28320599 C-130.09520231 106.49816527 -130.09093372 104.71311992 -130.08793831 102.92807293 C-130.07651469 98.24264962 -130.04706899 93.55750778 -130.01382637 88.87219524 C-129.98307185 84.08606047 -129.96942149 79.29987996 -129.95431709 74.51367474 C-129.92219676 65.13202111 -129.86944921 55.7506498 -129.80783272 46.36914349 C-121.39283272 50.32914349 -121.39283272 50.32914349 -112.80783272 54.36914349 C-112.47783272 77.46914349 -112.14783272 100.56914349 -111.80783272 124.36914349 C-86.92179564 124.39168801 -62.03576678 124.4101212 -37.1497221 124.42095566 C-25.59556972 124.42611925 -14.04142411 124.43316314 -2.48727608 124.44458294 C7.57941078 124.45452786 17.64609272 124.46099645 27.71278435 124.46323198 C33.0465344 124.46453941 38.3802704 124.46762732 43.71401596 124.47487354 C48.72814387 124.48163074 53.74225187 124.48376106 58.7563839 124.48225117 C60.60234307 124.48252763 62.44830287 124.48453453 64.29425812 124.48834896 C66.80313508 124.49328152 69.31193562 124.49214341 71.82081413 124.489398 C72.93120156 124.49376726 72.93120156 124.49376726 74.06402105 124.49822479 C77.41283428 124.7832382 77.41283428 124.7832382 80.19216728 123.36914349 C80.28771127 121.93967877 80.31405167 120.50551684 80.3124218 119.07286358 C80.31379646 118.14593197 80.31517113 117.21900036 80.31658745 116.26397991 C80.31299217 115.23899395 80.3093969 114.21400799 80.30569267 113.15796185 C80.30591171 111.54840366 80.30591171 111.54840366 80.30613518 109.90632915 C80.30543552 106.34052833 80.29764066 102.774779 80.28982353 99.20898724 C80.28795954 96.74418955 80.28653555 94.2793915 80.28553581 91.81459332 C80.28170915 85.31260444 80.27187761 78.81063773 80.26083183 72.30865765 C80.24819676 64.51519415 80.24421618 56.72171926 80.23837852 48.92824841 C80.22866593 37.07519799 80.20951039 25.22219627 80.19216728 13.36914349 C51.48216728 13.03914349 22.77216728 12.70914349 -6.80783272 12.36914349 C-2.88086746 0.58824771 -2.88086746 0.58824771 0 0 Z " fill="#1497B6" transform="translate(283.8078327178955,235.63085651397705)"/>
<path d="M0 0 C12.87 0 25.74 0 39 0 C39.495 6.435 39.495 6.435 40 13 C41.5 17 41.5 17 44 18 C51.1638894 18.80135618 51.1638894 18.80135618 57.625 16.25 C59.05179459 12.87757643 59.32676591 10.42527724 59.5859375 6.796875 C59.66634277 5.71245117 59.74674805 4.62802734 59.82958984 3.51074219 C59.8858252 2.68219727 59.94206055 1.85365234 60 1 C64.20809884 0.88343217 68.41577996 0.81262389 72.625 0.75 C74.40970703 0.69972656 74.40970703 0.69972656 76.23046875 0.6484375 C87.17878393 0.52610996 87.17878393 0.52610996 92 5 C98.84381328 12.78778752 96 19.30940658 96 31 C63.66 31 31.32 31 -2 31 C-1.67 27.37 -1.34 23.74 -1 20 C-0.79307929 16.43636556 -0.60029105 12.87777618 -0.4375 9.3125 C-0.293125 6.239375 -0.14875 3.16625 0 0 Z " fill="#FEBF59" transform="translate(286,200)"/>
<path d="M0 0 C3.56431132 2.80053033 6.81375357 5.77930766 10 9 C10.62261719 9.58910156 11.24523437 10.17820313 11.88671875 10.78515625 C24.2135494 23.38899433 29.25743686 41.92678347 29.2487793 59.03759766 C29.00033349 76.72193426 20.99775268 94.10145073 9 107 C-8.2960955 122.22985053 -26.51427382 128.17732351 -49.33496094 127.22216797 C-67.84424888 125.6791621 -83.70197929 114.66662164 -95.57421875 101.046875 C-100.74388828 94.51856505 -104.4150876 87.91511499 -107 80 C-107.25749023 79.21737793 -107.51498047 78.43475586 -107.78027344 77.62841797 C-109.96323668 70.44488554 -110.54431743 63.73687542 -110.5 56.25 C-110.49355469 55.10764893 -110.48710937 53.96529785 -110.48046875 52.78833008 C-110.09622743 34.97545859 -102.71086396 20.25666473 -90.46875 7.34375 C-64.73672242 -17.08539011 -29.02406458 -19.97200484 0 0 Z M-85 8 C-83.6976722 10.86633828 -82.70225161 12.29065914 -80.375 14.5625 C-78 17 -78 17 -78 20 C-80.92101014 18.80995883 -82.29946228 17.67807805 -84.5 15.3125 C-86.66243471 12.79793838 -86.66243471 12.79793838 -88.87890625 12.96484375 C-92.11749355 14.54536978 -93.60021668 17.27505068 -95.4375 20.25 C-95.83001953 20.87390625 -96.22253906 21.4978125 -96.62695312 22.140625 C-102.04896317 31.03092908 -106.24472506 40.80594666 -106.0625 51.375 C-106.041875 52.57125 -106.02125 53.7675 -106 55 C-102.04 55.33 -98.08 55.66 -94 56 C-94 56.66 -94 57.32 -94 58 C-99.94 58.495 -99.94 58.495 -106 59 C-105.95392252 73.95214215 -101.35113592 87.12960829 -92 99 C-89.90423957 100.75852345 -89.90423957 100.75852345 -88 102 C-87.44570312 101.4225 -86.89140625 100.845 -86.3203125 100.25 C-85.59585938 99.5075 -84.87140625 98.765 -84.125 98 C-83.40570313 97.2575 -82.68640625 96.515 -81.9453125 95.75 C-80 94 -80 94 -78 94 C-78.57575664 97.35250701 -79.59306263 98.93818629 -82.0625 101.25 C-82.88427734 102.03117187 -82.88427734 102.03117187 -83.72265625 102.828125 C-84.14417969 103.21484375 -84.56570312 103.6015625 -85 104 C-81.48062257 112.45376229 -69.83125054 116.44836243 -62 120 C-55.65855094 122.49128356 -49.73543343 122.15135805 -43 122 C-42.67 118.04 -42.34 114.08 -42 110 C-41.34 110 -40.68 110 -40 110 C-39.505 116.435 -39.505 116.435 -39 123 C-24.95001934 123.93666538 -11.10362068 116.89594413 0.015625 108.96484375 C0.67046875 108.31644531 1.3253125 107.66804688 2 107 C2.41630809 103.179785 2.41630809 103.179785 0.72265625 101.40234375 C0.17480469 100.91894531 -0.37304688 100.43554688 -0.9375 99.9375 C-3.29796775 97.83372614 -3.95872189 97.12383432 -5 94 C-1.57096361 95.07769715 0.03606914 96.03782861 2.5625 98.6875 C3.366875 99.450625 4.17125 100.21375 5 101 C7.85009451 100.87933068 8.81142485 100.20502802 10.74609375 98.1015625 C14.91688778 91.9946724 18.1945936 85.84014818 21 79 C21.36222656 78.13632813 21.72445312 77.27265625 22.09765625 76.3828125 C24.22794224 70.75738196 24.10391874 64.92336805 24 59 C20.04 58.67 16.08 58.34 12 58 C12 57.34 12 56.68 12 56 C17.94 55.505 17.94 55.505 24 55 C24.80716228 38.85675442 18.34159091 25.11618344 8 13 C5.13366172 14.3023278 3.70934086 15.29774839 1.4375 17.625 C-1 20 -1 20 -4 20 C-2.63629701 17.00779732 -1.05091917 14.70973471 1.125 12.25 C1.66382813 11.63640625 2.20265625 11.0228125 2.7578125 10.390625 C3.16773438 9.93171875 3.57765625 9.4728125 4 9 C-8.86128141 -2.0278647 -21.91470049 -8.25886817 -39 -8 C-39.33 -4.04 -39.66 -0.08 -40 4 C-40.66 4 -41.32 4 -42 4 C-42.495 -1.94 -42.495 -1.94 -43 -8 C-59.14324558 -8.80716228 -72.88381656 -2.34159091 -85 8 Z " fill="#3E3832" transform="translate(241,152)"/>
<path d="M0 0 C8.415 3.96 8.415 3.96 17 8 C17.33 31.1 17.66 54.2 18 78 C39.45 78.33 60.9 78.66 83 79 C83 79.33 83 79.66 83 80 C60.96014479 84.24187716 38.93642446 86.07087697 16.5 86.3125 C15.50935547 86.33022461 14.51871094 86.34794922 13.49804688 86.36621094 C4.83666386 86.35708088 4.83666386 86.35708088 1 83 C-0.2063665 79.38090049 -0.13189056 76.08176757 -0.11352539 72.31567383 C-0.11374443 71.14458824 -0.11374443 71.14458824 -0.1139679 69.94984436 C-0.11327114 67.36887841 -0.10548982 64.7879846 -0.09765625 62.20703125 C-0.09579123 60.41769958 -0.09436772 58.6283674 -0.09336853 56.83903503 C-0.08954999 52.12902416 -0.07972533 47.41904411 -0.06866455 42.70904541 C-0.05843621 37.90303972 -0.05386786 33.09702906 -0.04882812 28.29101562 C-0.03810249 18.86066136 -0.02051102 9.43033807 0 0 Z " fill="#1DA5BB" transform="translate(154,282)"/>
<path d="M0 0 C2.99035306 -0.28606944 5.77265438 -0.37798899 8.76416016 -0.34057617 C10.12522133 -0.34123329 10.12522133 -0.34123329 11.51377869 -0.34190369 C14.52242314 -0.33980839 17.53051502 -0.31644244 20.5390625 -0.29296875 C22.62128393 -0.28737543 24.7035093 -0.28310409 26.78573608 -0.28010559 C32.27346647 -0.26863603 37.76095969 -0.23915067 43.24859619 -0.20599365 C48.84538565 -0.17533823 54.44221333 -0.16160995 60.0390625 -0.14648438 C71.02614603 -0.11428301 82.01305331 -0.06306119 93 0 C92.69495583 1.90679734 92.38631192 3.81301901 92.07617188 5.71899414 C91.90468628 6.78058243 91.73320068 7.84217072 91.55651855 8.93592834 C90.83872652 12.88793716 89.76476371 16.63171103 88.5 20.4375 C88.28730469 21.10458984 88.07460938 21.77167969 87.85546875 22.45898438 C86.70338924 26.03184445 85.44236572 29.53431569 84 33 C83.67 33 83.34 33 83 33 C82.67 26.4 82.34 19.8 82 13 C53.29 12.67 24.58 12.34 -5 12 C-2 3 -2 3 0 0 Z " fill="#1DA5BB" transform="translate(282,236)"/>
<path d="M0 0 C7.59 0 15.18 0 23 0 C23 7.59 23 15.18 23 23 C15.41 23 7.82 23 0 23 C0 15.41 0 7.82 0 0 Z " fill="#CDDFDD" transform="translate(283,333)"/>
<path d="M0 0 C7.59 0 15.18 0 23 0 C23 7.59 23 15.18 23 23 C15.41 23 7.82 23 0 23 C0 15.41 0 7.82 0 0 Z " fill="#BCD5D2" transform="translate(256,333)"/>
<path d="M0 0 C7.59 0 15.18 0 23 0 C23 7.59 23 15.18 23 23 C15.41 23 7.82 23 0 23 C0 15.41 0 7.82 0 0 Z " fill="#DA5A60" transform="translate(229,333)"/>
<path d="M0 0 C7.59 0 15.18 0 23 0 C23 7.59 23 15.18 23 23 C15.41 23 7.82 23 0 23 C0 15.41 0 7.82 0 0 Z " fill="#BED7D4" transform="translate(202,333)"/>
<path d="M0 0 C7.59 0 15.18 0 23 0 C23 7.59 23 15.18 23 23 C15.41 23 7.82 23 0 23 C0 15.41 0 7.82 0 0 Z " fill="#E1EBEA" transform="translate(175,333)"/>
<path d="M0 0 C7.59 0 15.18 0 23 0 C23 7.59 23 15.18 23 23 C15.41 23 7.82 23 0 23 C0 15.41 0 7.82 0 0 Z " fill="#E6F1F0" transform="translate(202,306)"/>
<path d="M0 0 C7.59 0 15.18 0 23 0 C23 7.59 23 15.18 23 23 C15.41 23 7.82 23 0 23 C0 15.41 0 7.82 0 0 Z " fill="#CC4A60" transform="translate(337,306)"/>
<path d="M0 0 C7.59 0 15.18 0 23 0 C23 7.59 23 15.18 23 23 C15.41 23 7.82 23 0 23 C0 15.41 0 7.82 0 0 Z " fill="#DEEAE9" transform="translate(310,306)"/>
<path d="M0 0 C7.59 0 15.18 0 23 0 C23 7.59 23 15.18 23 23 C15.41 23 7.82 23 0 23 C0 15.41 0 7.82 0 0 Z " fill="#BFD8D5" transform="translate(283,306)"/>
<path d="M0 0 C7.59 0 15.18 0 23 0 C23 7.59 23 15.18 23 23 C15.41 23 7.82 23 0 23 C0 15.41 0 7.82 0 0 Z " fill="#E2ECEB" transform="translate(256,306)"/>
<path d="M0 0 C7.59 0 15.18 0 23 0 C23 7.59 23 15.18 23 23 C15.41 23 7.82 23 0 23 C0 15.41 0 7.82 0 0 Z " fill="#BFD8D5" transform="translate(229,306)"/>
<path d="M0 0 C7.59 0 15.18 0 23 0 C23 7.59 23 15.18 23 23 C15.41 23 7.82 23 0 23 C0 15.41 0 7.82 0 0 Z " fill="#E05B62" transform="translate(175,306)"/>
<path d="M0 0 C7.59 0 15.18 0 23 0 C23 7.59 23 15.18 23 23 C15.41 23 7.82 23 0 23 C0 15.41 0 7.82 0 0 Z " fill="#E05B62" transform="translate(256,279)"/>
<path d="M0 0 C7.59 0 15.18 0 23 0 C23 7.59 23 15.18 23 23 C15.41 23 7.82 23 0 23 C0 15.41 0 7.82 0 0 Z " fill="#6DC9AA" transform="translate(337,279)"/>
<path d="M0 0 C7.59 0 15.18 0 23 0 C23 7.59 23 15.18 23 23 C15.41 23 7.82 23 0 23 C0 15.41 0 7.82 0 0 Z " fill="#C0D9D6" transform="translate(310,279)"/>
<path d="M0 0 C7.59 0 15.18 0 23 0 C23 7.59 23 15.18 23 23 C15.41 23 7.82 23 0 23 C0 15.41 0 7.82 0 0 Z " fill="#E4EEED" transform="translate(283,279)"/>
<path d="M0 0 C7.59 0 15.18 0 23 0 C23 7.59 23 15.18 23 23 C15.41 23 7.82 23 0 23 C0 15.41 0 7.82 0 0 Z " fill="#E1ECEA" transform="translate(337,252)"/>
<path d="M0 0 C7.59 0 15.18 0 23 0 C23 7.59 23 15.18 23 23 C15.41 23 7.82 23 0 23 C0 15.41 0 7.82 0 0 Z " fill="#DC5A61" transform="translate(310,252)"/>
<path d="M0 0 C7.59 0 15.18 0 23 0 C23 7.59 23 15.18 23 23 C15.41 23 7.82 23 0 23 C0 15.41 0 7.82 0 0 Z " fill="#C2DCD9" transform="translate(283,252)"/>
<path d="M0 0 C1.82421875 0.18359375 1.82421875 0.18359375 4 1 C5.45703125 3.16015625 5.45703125 3.16015625 6.8125 6.0625 C7.32425781 7.13371094 7.83601562 8.20492187 8.36328125 9.30859375 C9.55651336 11.94121172 10.65674406 14.6017448 11.73046875 17.28515625 C12.02526123 18.00501709 12.32005371 18.72487793 12.6237793 19.46655273 C13.19907618 20.88371622 13.75468103 22.30906583 14.28833008 23.74243164 C15.74294693 27.32584212 16.48454352 28.7766788 20.1015625 30.34375 C21.05804688 30.5603125 22.01453125 30.776875 23 31 C25.91200616 33.91200616 26 34.71119388 26 39 C26.68320313 39.11029541 27.36640625 39.22059082 28.0703125 39.33422852 C31.51394923 40.11679496 34.60051989 41.32824786 37.875 42.65234375 C38.52194824 42.91253799 39.16889648 43.17273224 39.83544922 43.44081116 C41.89196412 44.26898323 43.94599652 45.10312136 46 45.9375 C47.38004714 46.49454015 48.76025402 47.05118471 50.140625 47.60742188 C52.68069582 48.631589 55.21959329 49.65849242 57.7578125 50.68725586 C60.50246005 51.79854877 63.24969642 52.90279752 66 54 C66 55.32 66 56.64 66 58 C60.79179348 57.46280449 56.48920094 56.17062328 51.703125 54.0234375 C50.31810132 53.42877137 48.93267132 52.83505085 47.546875 52.2421875 C45.39880771 51.31305539 43.25466814 50.37708185 41.1171875 49.42382812 C30.08524374 44.48100774 30.08524374 44.48100774 18.14624023 44.70361328 C16 45 16 45 12.8125 43.5 C10.3758392 40.13908855 10.56377383 38.07144429 11 34 C11.22486084 33.39027344 11.44972168 32.78054687 11.68139648 32.15234375 C12.16065206 28.91470606 10.89144306 26.97523219 9.47265625 24.0625 C8.92802734 22.92039063 8.38339844 21.77828125 7.82226562 20.6015625 C7.23665605 19.40056382 6.65005685 18.20004722 6.0625 17 C4.91893946 14.65010514 3.78723276 12.29544518 2.66015625 9.9375 C2.15105713 8.89464844 1.64195801 7.85179687 1.11743164 6.77734375 C0 4 0 4 0 0 Z " fill="#3F3B34" transform="translate(182,172)"/>
<path d="M0 0 C7.26 0 14.52 0 22 0 C22 7.26 22 14.52 22 22 C14.74 22 7.48 22 0 22 C0 14.74 0 7.48 0 0 Z " fill="#53B79A" transform="translate(338,334)"/>
<path d="M0 0 C7.26 0 14.52 0 22 0 C22 7.26 22 14.52 22 22 C14.74 22 7.48 22 0 22 C0 14.74 0 7.48 0 0 Z " fill="#D14B62" transform="translate(311,334)"/>
<path d="M0 0 C0 7.59 0 15.18 0 23 C-7.59 23 -15.18 23 -23 23 C-23 19.04 -23 15.08 -23 11 C-21.90300781 10.45730469 -20.80601562 9.91460937 -19.67578125 9.35546875 C-18.22130061 8.6329203 -16.7668765 7.91025804 -15.3125 7.1875 C-14.59126953 6.83107422 -13.87003906 6.47464844 -13.12695312 6.10742188 C-10.04436362 4.573165 -7.04926524 3.02998465 -4.10546875 1.23828125 C-2 0 -2 0 0 0 Z " fill="#D3E6E4" transform="translate(252,279)"/>
<path d="M0 0 C1.21816406 0.03480469 1.21816406 0.03480469 2.4609375 0.0703125 C3.68683594 0.09738281 3.68683594 0.09738281 4.9375 0.125 C5.87722656 0.15980469 5.87722656 0.15980469 6.8359375 0.1953125 C8.95051172 4.42446094 8.02179578 9.97431056 8.02124023 14.62646484 C8.02342908 16.68738377 8.04159733 18.7477694 8.06054688 20.80859375 C8.06344727 22.74798828 8.06344727 22.74798828 8.06640625 24.7265625 C8.07051514 25.91830078 8.07462402 27.11003906 8.07885742 28.33789062 C7.8359375 31.1953125 7.8359375 31.1953125 5.8359375 33.1953125 C-0.31715883 33.75468489 -0.31715883 33.75468489 -2.86401367 32.07250977 C-4.76541945 29.32698694 -4.53597562 27.16206143 -4.52734375 23.84765625 C-4.52669922 22.60306641 -4.52605469 21.35847656 -4.52539062 20.07617188 C-4.50927734 18.77486328 -4.49316406 17.47355469 -4.4765625 16.1328125 C-4.47978516 14.82763672 -4.48300781 13.52246094 -4.48632812 12.17773438 C-4.41915973 0.39884113 -4.41915973 0.39884113 0 0 Z " fill="#864584" transform="translate(333.1640625,181.8046875)"/>
<path d="M0 0 C1.65 0 3.3 0 5 0 C5 7.59 5 15.18 5 23 C-2.59 23 -10.18 23 -18 23 C-14.65272408 19.09484476 -11.34945768 15.26985691 -7.875 11.5 C-4.62378083 7.86884909 -2.21291432 4.33362388 0 0 Z " fill="#D0E4E1" transform="translate(274,252)"/>
<path d="M0 0 C12.87 0 25.74 0 39 0 C39 0.33 39 0.66 39 1 C28.11 1 17.22 1 6 1 C6.66 4.3 7.32 7.6 8 11 C8.22705078 13.97119141 8.22705078 13.97119141 8.1953125 16.3515625 C8.18564453 17.65673828 8.18564453 17.65673828 8.17578125 18.98828125 C8.15902344 19.85839844 8.14226562 20.72851562 8.125 21.625 C8.11597656 22.53378906 8.10695313 23.44257813 8.09765625 24.37890625 C8.0744231 26.58605527 8.03856778 28.79306568 8 31 C4.7 31 1.4 31 -2 31 C-1.855625 29.5975 -1.71125 28.195 -1.5625 26.75 C-0.74404975 17.85227652 -0.41922304 8.92346193 0 0 Z " fill="#EBA834" transform="translate(286,200)"/>
<path d="M0 0 C2.8203125 -0.29296875 2.8203125 -0.29296875 6.125 -0.1875 C7.76855469 -0.14689453 7.76855469 -0.14689453 9.4453125 -0.10546875 C10.28835938 -0.07066406 11.13140625 -0.03585938 12 0 C11.67 3.3 11.34 6.6 11 10 C34.1 10.33 57.2 10.66 81 11 C81 11.33 81 11.66 81 12 C52.62 12 24.24 12 -5 12 C-2 3 -2 3 0 0 Z " fill="#1A90AA" transform="translate(282,236)"/>
<path d="M0 0 C6.93 0 13.86 0 21 0 C18.45626679 4.23955535 16.70659203 6.45708729 13.125 9.625 C11.86042969 10.75808594 11.86042969 10.75808594 10.5703125 11.9140625 C4.30337079 17 4.30337079 17 1 17 C1 18.98 1 20.96 1 23 C0.67 23 0.34 23 0 23 C0 15.41 0 7.82 0 0 Z " fill="#CB4A60" transform="translate(256,279)"/>
<path d="M0 0 C8.415 3.96 8.415 3.96 17 8 C17 12.29 17 16.58 17 21 C12.68315442 19.27326177 9.91286697 17.66485095 6.25 14.9375 C5.28578125 14.22464844 4.3215625 13.51179688 3.328125 12.77734375 C1 11 1 11 0 10 C-0.14257189 6.66381769 -0.04228157 3.34024394 0 0 Z " fill="#1496B5" transform="translate(154,282)"/>
<path d="M0 0 C0.80695313 0.14308594 1.61390625 0.28617187 2.4453125 0.43359375 C6.57851202 1.09218049 10.71749678 1.58685345 14.875 2.0625 C15.65875 2.15337891 16.4425 2.24425781 17.25 2.33789062 C19.16651283 2.55992565 21.08323547 2.78014839 23 3 C23 5.31 23 7.62 23 10 C15.41 10 7.82 10 0 10 C0 6.7 0 3.4 0 0 Z " fill="#D0E3E1" transform="translate(175,292)"/>
<path d="M0 0 C7.26 0 14.52 0 22 0 C22 0.99 22 1.98 22 3 C18.90116855 4.67673137 15.79511545 6.3396134 12.6875 8 C11.36588867 8.71542969 11.36588867 8.71542969 10.01757812 9.4453125 C9.17001953 9.89648438 8.32246094 10.34765625 7.44921875 10.8125 C6.66893311 11.23144531 5.88864746 11.65039062 5.0847168 12.08203125 C3 13 3 13 0 13 C0 8.71 0 4.42 0 0 Z " fill="#E6F1F0" transform="translate(284,334)"/>
<path d="M0 0 C0 3.3 0 6.6 0 10 C-7.59 10 -15.18 10 -23 10 C-23 7.69 -23 5.38 -23 3 C-19.54199242 2.49772952 -16.08354301 1.99856919 -12.625 1.5 C-11.64015625 1.35691406 -10.6553125 1.21382813 -9.640625 1.06640625 C-8.69960937 0.93105469 -7.75859375 0.79570312 -6.7890625 0.65625 C-5.91975098 0.53056641 -5.05043945 0.40488281 -4.15478516 0.27539062 C-2 0 -2 0 0 0 Z " fill="#B4CECA" transform="translate(225,292)"/>
<path d="M0 0 C7.59 0 15.18 0 23 0 C23 1.65 23 3.3 23 5 C20.14839609 5.81434143 17.63373869 6.11881242 14.671875 6.09765625 C13.87265625 6.09443359 13.0734375 6.09121094 12.25 6.08789062 C11.425 6.07951172 10.6 6.07113281 9.75 6.0625 C8.90953125 6.05798828 8.0690625 6.05347656 7.203125 6.04882812 C5.13538599 6.03707961 3.06768376 6.01914522 1 6 C1 11.61 1 17.22 1 23 C0.67 23 0.34 23 0 23 C0 15.41 0 7.82 0 0 Z " fill="#CADBD9" transform="translate(202,306)"/>
<path d="M0 0 C0.33 0 0.66 0 1 0 C1 6.6 1 13.2 1 20 C-3.29 20 -7.58 20 -12 20 C-9.37245278 15.29231123 -6.61697492 10.66672166 -3.8125 6.0625 C-3.45542969 5.47057861 -3.09835937 4.87865723 -2.73046875 4.26879883 C-1.84830764 2.82834253 -0.92762673 1.4116059 0 0 Z " fill="#53B79A" transform="translate(359,282)"/>
<path d="M0 0 C2.64 0 5.28 0 8 0 C5.29285806 9.54219536 5.29285806 9.54219536 3.375 13.8125 C1.77685431 17.21299435 1.77685431 17.21299435 1 22 C8.26 22 15.52 22 23 22 C23 22.33 23 22.66 23 23 C15.41 23 7.82 23 0 23 C0 15.41 0 7.82 0 0 Z " fill="#A9BFBB" transform="translate(283,252)"/>
<path d="M0 0 C2.88210955 2.88210955 3.8956456 4.08369406 4.11352539 8.0847168 C4.10828857 8.86500244 4.10305176 9.64528809 4.09765625 10.44921875 C4.09282227 11.72055664 4.09282227 11.72055664 4.08789062 13.01757812 C4.07951172 13.89865234 4.07113281 14.77972656 4.0625 15.6875 C4.05798828 16.58017578 4.05347656 17.47285156 4.04882812 18.39257812 C4.03704983 20.59511987 4.02060164 22.79752599 4 25 C2.02 25 0.04 25 -2 25 C-1.34 16.75 -0.68 8.5 0 0 Z " fill="#EFAB32" transform="translate(378,206)"/>
<path d="M0 0 C7.59 0 15.18 0 23 0 C23 1.98 23 3.96 23 6 C15.51163329 4.7688372 8.29758609 3.0850246 1 1 C1 8.26 1 15.52 1 23 C0.67 23 0.34 23 0 23 C0 15.41 0 7.82 0 0 Z " fill="#C24B5B" transform="translate(175,306)"/>
<path d="M0 0 C1.65 0.33 3.3 0.66 5 1 C4.67 2.65 4.34 4.3 4 6 C2.35 5.67 0.7 5.34 -1 5 C-0.67 3.35 -0.34 1.7 0 0 Z " fill="#5E4432" transform="translate(198,206)"/>
</svg>
