<?xml version="1.0" encoding="UTF-8"?>
<svg version="1.1" xmlns="http://www.w3.org/2000/svg" width="500" height="500">
<path d="M0 0 C165 0 330 0 500 0 C500 165 500 330 500 500 C335 500 170 500 0 500 C0 335 0 170 0 0 Z " fill="#FEFEFE" transform="translate(0,0)"/>
<path d="M0 0 C6.11239217 5.82492819 9.01437155 13.99065215 11.0625 22 C11.7433752 25.28299391 11.7433752 25.28299391 15 27 C17.50259386 27.22729013 17.50259386 27.22729013 20.296875 27.08984375 C21.85921875 27.05987305 21.85921875 27.05987305 23.453125 27.02929688 C25.63554176 26.96853053 27.81784403 26.90348814 30 26.83398438 C36.16927637 26.72381873 40.58657724 26.93091469 46 30 C48 32 48 32 48.375 35.25 C47.63523836 42.64761636 42.14704828 47.18928636 37.30859375 52.47265625 C35.2522965 54.72379723 33.24302834 57.00547157 31.25 59.3125 C28.04674288 62.98488402 24.70413494 66.45617223 21.08984375 69.73046875 C15.88779971 74.6019156 12.79024591 79.45365382 10 86 C11.32 86.33 12.64 86.66 14 87 C14 88.65 14 90.3 14 92 C14.70382812 92.25136719 15.40765625 92.50273437 16.1328125 92.76171875 C38.65343261 102.48792662 59.28164986 126.13849225 74 145 C75.58011808 146.85690747 77.16364866 148.71091476 78.75 150.5625 C109.88601647 187.9642783 142.45305518 238.97103002 139.26611328 289.40283203 C138.01076295 301.65459057 132.3413323 312.11561665 123.34375 320.46484375 C115.91986898 326.46182291 107.98150868 330.09000965 99 333 C97.87078125 333.36738281 96.7415625 333.73476563 95.578125 334.11328125 C64.62372223 342.86567243 32.09347807 341.53687212 0.27850342 341.33294678 C-4.68378158 341.30564251 -9.64601853 341.29711265 -14.60836697 341.28938007 C-20.63346737 341.27930616 -26.65852398 341.25958039 -32.68359375 341.23828125 C-33.79069639 341.2348855 -34.89779903 341.23148975 -36.03845024 341.2279911 C-47.6542209 341.18498066 -59.25593258 341.02282754 -70.86352539 340.56713867 C-71.81437484 340.53143674 -72.76522429 340.49573481 -73.74488735 340.458951 C-99.16711426 339.35475246 -130.23325306 335.49799791 -148.51171875 315.8671875 C-159.69721438 301.83394102 -161.04193753 285.19346195 -160 268 C-155.93948156 232.09140797 -131.16968407 196.00108541 -110 168 C-109.31164062 167.08420166 -109.31164062 167.08420166 -108.609375 166.14990234 C-100.62501019 155.55007098 -92.31277193 145.30151845 -83.3203125 135.5390625 C-81.41584658 133.45505097 -79.57384698 131.34128914 -77.75 129.1875 C-68.17578349 118.21328013 -57.57343063 108.01756716 -45.65234375 99.62890625 C-45.09562988 99.23098877 -44.53891602 98.83307129 -43.96533203 98.4230957 C-42.40097976 97.31279841 -40.82005502 96.22595898 -39.23828125 95.140625 C-36.7260197 93.19163527 -36.7260197 93.19163527 -36.66796875 90.234375 C-36.83232422 89.12835938 -36.83232422 89.12835938 -37 88 C-36.01 87.67 -35.02 87.34 -34 87 C-36.93946248 73.03055449 -44.41391959 62.04020069 -52.72265625 50.74511719 C-68.62965405 29.01285032 -68.62965405 29.01285032 -68 16 C-66 14 -66 14 -62.4375 13.625 C-56.44794233 13.78687994 -51.64437606 16.54826633 -46.48828125 19.37890625 C-40.9917013 22.33342319 -37.26570753 24.04428459 -31 23 C-25.30469539 19.60705257 -22.03802167 14.10411704 -18.17578125 8.8203125 C-13.5463679 2.81952895 -7.93127908 -2.85526047 0 0 Z " fill="#BD925A" transform="translate(260,83)"/>
<path d="M0 0 C13.70458967 -2.07545469 26.29981169 6.65558122 36.90869141 14.30688477 C43.36888189 19.11803056 49.18398876 24.43612797 55 30 C56.72479962 31.52578428 58.45379729 33.04683965 60.1875 34.5625 C68.69591903 42.21464044 75.87532952 51.07592469 83 60 C83.73476563 60.90492188 84.46953125 61.80984375 85.2265625 62.7421875 C111.32571371 95.64981294 141.8019384 141.03503933 139 185 C136.84739445 198.67836752 131.00228403 209.46491538 120 218 C86.25850905 239.90309498 37.05057825 234.55086929 -1 234 C2.05409401 231.64127224 4.98897445 229.98893916 8.5 228.375 C15.32078291 225.01860987 21.10590724 220.77101806 27 216 C27.79277344 215.37351562 28.58554687 214.74703125 29.40234375 214.1015625 C44.07816919 201.87600669 52.41540352 185.31665797 57 167 C57.17732666 166.31317139 57.35465332 165.62634277 57.53735352 164.91870117 C59.30638204 157.29542425 59.35314799 149.73066868 59.3125 141.9375 C59.31076279 140.90761963 59.31076279 140.90761963 59.30899048 139.85693359 C59.27366698 129.26667129 58.3951117 119.32259407 56 109 C55.81824219 107.87851562 55.63648438 106.75703125 55.44921875 105.6015625 C50.96179463 78.43280421 39.47213312 51.9668476 23 30 C22.58250488 29.4337793 22.16500977 28.86755859 21.73486328 28.28417969 C16.42877894 21.0985502 10.76988541 14.26230822 4.84594727 7.57958984 C2.63698052 5.06163835 1.07101836 3.21305509 0 0 Z " fill="#D9BC8C" transform="translate(253,183)"/>
<path d="M0 0 C3.875 0.875 3.875 0.875 5 2 C5.07271741 4.35313555 5.08370868 6.70833668 5.0625 9.0625 C5.05347656 10.35285156 5.04445312 11.64320313 5.03515625 12.97265625 C5.02355469 13.97167969 5.01195312 14.97070312 5 16 C5.7734375 15.97679687 6.546875 15.95359375 7.34375 15.9296875 C19.01635578 15.72743938 29.73370245 17.81930467 38.9609375 25.66796875 C44.4553669 31.762044 48.10255088 39.27883459 48.3125 47.5 C48.36857422 48.93859375 48.36857422 48.93859375 48.42578125 50.40625 C48 53 48 53 46.1953125 54.84765625 C42.82146369 56.61862671 40.61515754 55.95135725 37 55 C34.29432374 53.17660948 32.46271282 51.92542564 31 49 C30.87267044 47.58522711 30.77190365 46.16798137 30.6875 44.75 C30.18115553 40.17088479 29.17240841 37.48964926 26 34 C19.50105354 29.16709701 13.02015955 28.00503989 5 26 C5.495 43.82 5.495 43.82 6 62 C12.96695906 64.78930307 12.96695906 64.78930307 19.93994141 67.56347656 C26.84263547 70.35697191 32.66518143 73.08379443 37.6875 78.75 C38.24824219 79.36359375 38.80898438 79.9771875 39.38671875 80.609375 C44.76085976 88.57299316 44.48784084 96.48113915 44.4375 105.8125 C44.45748047 107.11509766 44.47746094 108.41769531 44.49804688 109.75976562 C44.49186453 122.05644319 41.83892155 132.10908479 33 141 C30.13702317 143.27940838 27.16779889 145.17558249 24 147 C23.071875 147.598125 22.14375 148.19625 21.1875 148.8125 C16.26051773 150.64804241 11.22062738 150.7550191 6 151 C6.02320313 151.90363281 6.04640625 152.80726563 6.0703125 153.73828125 C6.08835938 154.91777344 6.10640625 156.09726562 6.125 157.3125 C6.14820313 158.48425781 6.17140625 159.65601563 6.1953125 160.86328125 C6 164 6 164 4 167 C2.125 166.6875 2.125 166.6875 0 166 C-2.26954631 162.59568053 -2.36549949 160.83475798 -2.625 156.8125 C-2.69976562 155.72582031 -2.77453125 154.63914062 -2.8515625 153.51953125 C-2.90054688 152.68808594 -2.94953125 151.85664063 -3 151 C-3.87140625 150.84144531 -4.7428125 150.68289063 -5.640625 150.51953125 C-16.50587653 148.39116488 -28.53910555 145.87726746 -36 137 C-37.91662259 134.10456748 -39.53824732 131.14796925 -41 128 C-41.36867187 127.2265625 -41.73734375 126.453125 -42.1171875 125.65625 C-43.21186054 122.36254349 -43.30120508 119.53004054 -43.3125 116.0625 C-43.32925781 114.87785156 -43.34601563 113.69320312 -43.36328125 112.47265625 C-42.88957695 107.94445059 -41.21227666 104.78955126 -38.6875 101.0625 C-37 100 -37 100 -34.0625 100.0625 C-30.62985763 101.11330889 -29.24959278 102.25049772 -27 105 C-25.16441974 108.67116051 -25.71126715 113.36059839 -25.65820312 117.43945312 C-25.44643659 123.05865361 -24.01275179 126.26739389 -21 131 C-21 131.66 -21 132.32 -21 133 C-18.09122102 134.49460302 -15.151159 135.82281181 -12.125 137.0625 C-11.30257812 137.40410156 -10.48015625 137.74570312 -9.6328125 138.09765625 C-6.4985156 139.25243099 -6.4985156 139.25243099 -1 140 C-1 126.8 -1 113.6 -1 100 C-4.3 99.01 -7.6 98.02 -11 97 C-21.77581295 91.7613806 -30.16363429 83.68700516 -34.15234375 72.26171875 C-35.52357394 66.55803031 -35.50661703 60.71271547 -35.5625 54.875 C-35.57732422 53.77873291 -35.59214844 52.68246582 -35.60742188 51.55297852 C-35.47810869 41.31183622 -33.21644527 32.2598831 -25.984375 24.71875 C-19.08290354 18.74109755 -11.11841524 15.82706454 -2 16 C-2.02320313 15.09636719 -2.04640625 14.19273437 -2.0703125 13.26171875 C-2.08835938 12.08222656 -2.10640625 10.90273437 -2.125 9.6875 C-2.14820313 8.51574219 -2.17140625 7.34398437 -2.1953125 6.13671875 C-2 3 -2 3 0 0 Z " fill="#52423A" transform="translate(247,223)"/>
<path d="M0 0 C8.70723865 2.61217159 17.92159699 5.40041758 23.6875 13 C25.30942158 16.70724933 25.57291192 18.98961653 25 23 C21.96207849 29.07584302 17.55531737 32.75688204 11.20703125 34.9765625 C7.39964304 36.05289153 3.96919275 37 0 37 C0 24.79 0 12.58 0 0 Z " fill="#BA8F58" transform="translate(252,326)"/>
<path d="M0 0 C0 3 0 3 -1.23413086 4.54296875 C-1.80526611 5.08566406 -2.37640137 5.62835938 -2.96484375 6.1875 C-3.59567871 6.79827393 -4.22651367 7.40904785 -4.87646484 8.03833008 C-5.55660645 8.68568115 -6.23674805 9.33303223 -6.9375 10 C-12.34240283 15.26373472 -17.30652049 20.55177229 -21.9765625 26.48046875 C-23.97402569 28.96765747 -26.07673585 31.29089861 -28.25 33.625 C-34.07385031 40.02717691 -39.21904589 46.94291549 -44.40087891 53.86572266 C-45.87794914 55.83710403 -47.36571326 57.79992016 -48.85546875 59.76171875 C-72.76090019 91.49580446 -91.54616888 127.10102941 -100 166 C-100.33 166 -100.66 166 -101 166 C-104.04139046 133.35574237 -82.73236669 100.67179185 -65 75 C-64.32420898 74.02039307 -64.32420898 74.02039307 -63.63476562 73.02099609 C-58.10714416 65.04973629 -52.26171544 57.41353601 -46 50 C-45.13794184 48.9740247 -44.27596561 47.94798056 -43.4140625 46.921875 C-41.56423486 44.72333959 -39.70480606 42.5333628 -37.83984375 40.34765625 C-36.01584455 38.20778623 -34.21787699 36.05053171 -32.44140625 33.87109375 C-22.48130646 21.78837989 -11.15168818 10.96743304 0 0 Z " fill="#9F7A4B" transform="translate(210,197)"/>
<path d="M0 0 C0 10.56 0 21.12 0 32 C-8.41205184 30.31758963 -15.78486161 25.88802584 -22 20 C-23.5991006 16.8017988 -23.36195151 13.4787562 -23 10 C-21.12735394 5.42242075 -18.26245675 3.38697578 -14 1 C-9.26867177 -0.53448483 -5.20170328 0 0 0 Z " fill="#BA8F58" transform="translate(246,250)"/>
<path d="M0 0 C1.9375 0.625 1.9375 0.625 4 2 C5 4.75 5 4.75 5 8 C1.00158997 16.37762102 -7.50699032 22.89977185 -14.625 28.5625 C-22.26753445 34.7024711 -28.05858701 40.99387131 -32 50 C-33.81355733 53.88619429 -35.52674672 55.93184181 -39.6171875 57.5078125 C-44.98307173 58.61617547 -50.55240946 58.20400131 -56 58 C-52.71580636 56.28075769 -49.42621064 55.09933007 -45.90234375 53.9765625 C-42.61495654 52.28899206 -41.3247311 49.88613062 -40.078125 46.484375 C-39.80484375 45.58203125 -39.5315625 44.6796875 -39.25 43.75 C-35.42189561 33.08498592 -27.87801424 28.35078539 -18.7421875 22.4453125 C-9.33437414 16.34668437 -2.60490286 11.2134866 0 0 Z " fill="#D8BB8A" transform="translate(301,114)"/>
<path d="M0 0 C-0.0625 2.3125 -0.0625 2.3125 -1 5 C-8.90222667 9.35428816 -17.29802533 10.38798326 -26.1875 10.375 C-27.10426514 10.37628906 -28.02103027 10.37757813 -28.96557617 10.37890625 C-36.55698302 10.26142734 -42.95076523 8.92955211 -50 6 C-50.33 4.35 -50.66 2.7 -51 1 C-47.01549039 -0.08212401 -44.65124353 0.18352886 -40.75 1.4375 C-29.12877654 4.52505752 -17.88306013 4.05412146 -6.63671875 -0.22265625 C-3.88418069 -1.03414525 -2.64399451 -0.99856325 0 0 Z " fill="#53433B" transform="translate(274,170)"/>
<path d="M0 0 C2.22945545 2.22945545 3.24850539 4.52347646 4.56274414 7.35742188 C8.3459444 15.46520344 12.63006704 21.64154439 19 28 C27.34277067 36.99481086 35.22979842 47.33929534 35.25 60.1875 C35.1675 61.445625 35.085 62.70375 35 64 C32.70067047 61.70067047 32.18165535 60.04072398 31.0625 57 C26.03530584 44.67670105 18.62795203 33.65040273 10.0078125 23.578125 C4.53081067 16.54539892 1.45444442 8.7266665 0 0 Z " fill="#A07A4B" transform="translate(194,102)"/>
<path d="M0 0 C2 0.6875 2 0.6875 4 2.6875 C4.52411676 7.22984525 4.24901296 10.2572966 1.4609375 13.96484375 C-1.19023204 17.09095543 -3.92321867 20.13742268 -6.69140625 23.16015625 C-8.7477035 25.41129723 -10.75697166 27.69297157 -12.75 30 C-15.97504757 33.69736576 -19.37631803 37.15510939 -22.9453125 40.5234375 C-27.21842187 44.63886755 -30.34327386 48.37404771 -33 53.6875 C-33.99 53.6875 -34.98 53.6875 -36 53.6875 C-33.35971361 39.89933773 -19.68856899 30.54057827 -9.5625 21.875 C-5.05655546 17.94184502 -0.8984166 14.2330137 1.125 8.5 C1.27392023 5.54073866 1.27392023 5.54073866 -0.9375 3.3125 C-1.9584375 2.508125 -1.9584375 2.508125 -3 1.6875 C-3.33 3.0075 -3.66 4.3275 -4 5.6875 C-4 4.0375 -4 2.3875 -4 0.6875 C-2 -0.3125 -2 -0.3125 0 0 Z " fill="#C19761" transform="translate(304,112.3125)"/>
<path d="M0 0 C-0.79664063 0.76183594 -1.59328125 1.52367188 -2.4140625 2.30859375 C-7.8807839 7.61075348 -12.92556016 12.63973784 -16.81640625 19.2578125 C-18 21 -18 21 -21 23 C-23.1875 22.625 -23.1875 22.625 -25 22 C-24.26007813 21.6596875 -23.52015625 21.319375 -22.7578125 20.96875 C-19.10847384 18.36355639 -17.78883004 15.47138644 -15.875 11.5 C-11.26905034 2.16361556 -11.26905034 2.16361556 -6.5625 -0.25 C-3.78183734 -1.06385249 -2.69945247 -0.80238502 0 0 Z " fill="#A07A4B" transform="translate(256,87)"/>
<path d="M0 0 C0.66 0.33 1.32 0.66 2 1 C1.52949219 1.51949219 1.05898437 2.03898437 0.57421875 2.57421875 C-3.37620734 6.9849947 -3.37620734 6.9849947 -6.6875 11.875 C-8.18283657 14.29602111 -9.37387151 15.0038823 -12 16 C-10.53809273 12.80707814 -8.73158625 10.19433866 -6.5625 7.4375 C-5.96566406 6.67308594 -5.36882812 5.90867187 -4.75390625 5.12109375 C-3.24800362 3.2999242 -1.70535708 1.63234485 0 0 Z " fill="#C49D6B" transform="translate(248,85)"/>
<path d="M0 0 C0.66 0.66 1.32 1.32 2 2 C0.02 4.64 -1.96 7.28 -4 10 C-4.66 9.34 -5.32 8.68 -6 8 C-4.73046875 6.50260417 -3.4609375 5.00520833 -2.19140625 3.5078125 C-0.9121848 1.99405921 -0.9121848 1.99405921 0 0 Z " fill="#C69F6C" transform="translate(305,122)"/>
</svg>
