<?xml version="1.0" encoding="UTF-8"?>
<svg version="1.1" xmlns="http://www.w3.org/2000/svg" width="500" height="500">
<path d="M0 0 C165 0 330 0 500 0 C500 165 500 330 500 500 C335 500 170 500 0 500 C0 335 0 170 0 0 Z " fill="#FEFEFE" transform="translate(0,0)"/>
<path d="M0 0 C2.90662016 0.32795935 3.87841554 0.86385606 5.859375 3.08203125 C6.79523438 4.43361328 6.79523438 4.43361328 7.75 5.8125 C8.43578125 6.79734375 9.1215625 7.7821875 9.828125 8.796875 C10.54484375 9.85390625 11.2615625 10.9109375 12 12 C12.76535131 13.10956383 13.5309771 14.21893839 14.296875 15.328125 C20 23.70079787 20 23.70079787 20 26 C21.65 26.33 23.3 26.66 25 27 C24.89945313 27.66515625 24.79890625 28.3303125 24.6953125 29.015625 C25.14315849 33.40221908 27.38822538 36.19452885 29.875 39.75 C30.33519531 40.43449219 30.79539063 41.11898437 31.26953125 41.82421875 C33.60152747 45.47555742 33.60152747 45.47555742 37 48 C37.2475 47.15953125 37.495 46.3190625 37.75 45.453125 C39.14335027 41.60399489 40.94053257 38.27198778 43 34.75 C43.35578125 34.12609375 43.7115625 33.5021875 44.078125 32.859375 C47.82712228 26.36857374 47.82712228 26.36857374 51.18310547 25.31396484 C52.06885254 25.11496582 52.95459961 24.9159668 53.8671875 24.7109375 C54.83527344 24.49179688 55.80335938 24.27265625 56.80078125 24.046875 C57.81527344 23.82515625 58.82976562 23.6034375 59.875 23.375 C61.38513672 23.03082031 61.38513672 23.03082031 62.92578125 22.6796875 C67.08869943 21.75090894 70.71291558 21 75 21 C89.15766707 53.08831647 97.17965822 85.33754329 97.1328125 120.45703125 C97.13348764 122.25005608 97.13445941 124.04308082 97.13571167 125.83610535 C97.1371799 129.58223345 97.13506308 133.32833759 97.13037109 137.07446289 C97.1246868 141.84166031 97.12795017 146.60880125 97.13394356 151.37599659 C97.13758348 155.0763541 97.13639472 158.77669857 97.13381577 162.4770565 C97.13315531 164.23306981 97.13394357 165.98908435 97.13629532 167.74509621 C97.14654704 177.55266626 96.95901227 187.23044699 96 197 C111.12618558 199.1499147 123.17898647 199.75571182 138 195 C139.33138994 194.65898721 140.66436854 194.32400229 142 194 C141.80458177 183.66920676 141.59623441 173.33875264 141.37313366 163.00851822 C141.26981075 158.20727059 141.17029621 153.40601923 141.08081055 148.60449219 C140.71373072 129.05808324 140.20144801 109.57123484 138.5390625 90.0859375 C138.44608666 88.99386868 138.44608666 88.99386868 138.35123253 87.87973785 C136.47103362 66.23241575 132.70213252 45.283657 127.48730469 24.20117188 C127 22 127 22 127 20 C137.72620763 22.01905085 147.19435089 26.35139598 157 31 C158.65902344 31.7734375 158.65902344 31.7734375 160.3515625 32.5625 C163.86069435 34.46716154 165.55826897 35.7602919 166.91967773 39.58105469 C167.17177002 40.60102539 167.4238623 41.62099609 167.68359375 42.671875 C167.97169922 43.81269531 168.25980469 44.95351562 168.55664062 46.12890625 C168.84732422 47.32386719 169.13800781 48.51882812 169.4375 49.75 C170.01891638 52.07827863 170.60095186 54.40640274 171.18359375 56.734375 C171.47959473 57.92603271 171.7755957 59.11769043 172.08056641 60.34545898 C175.08074571 72.27049457 178.40652057 84.105373 181.75 95.9375 C182.16546139 97.41078 182.58082638 98.88408718 182.99609375 100.35742188 C183.99629129 103.90526019 184.99777016 107.45273518 186 111 C198.57343602 105.10805659 211.05474283 99.05280352 223.46826172 92.83105469 C226.18435957 91.47026021 228.90264003 90.11389356 231.62109375 88.7578125 C233.35429539 87.8908823 235.08737338 87.02370483 236.8203125 86.15625 C238.03559128 85.55012878 238.03559128 85.55012878 239.27542114 84.9317627 C242.87226287 83.31271401 242.87226287 83.31271401 246 81 C248.69082872 81.17635452 251.32851446 81.61835921 254 82 C252.90304795 84.7845706 251.78066764 87.41335714 250.375 90.0625 C246.93217689 98.20168694 248.76022926 106.7365706 251.9296875 114.625 C252.90116798 116.78069391 253.93611259 118.88892671 255 121 C251.3791912 123.17373046 247.75268765 125.33777229 244.125 127.5 C243.09246094 128.12003906 242.05992187 128.74007812 240.99609375 129.37890625 C240.00996094 129.96542969 239.02382813 130.55195313 238.0078125 131.15625 C237.09660645 131.70087891 236.18540039 132.24550781 235.24658203 132.80664062 C233 134 233 134 231 134 C231.00902344 134.65226563 231.01804687 135.30453125 231.02734375 135.9765625 C230.789807 142.97873285 230.789807 142.97873285 228.48046875 145.96484375 C223.44296273 150.30240156 219.68754035 151.22291801 213 151 C211.89470947 150.76966064 210.78941895 150.53932129 209.65063477 150.30200195 C205.25612913 149.93846263 203.5844497 150.79787064 199.83984375 153.04296875 C198.71642578 153.70490234 197.59300781 154.36683594 196.43554688 155.04882812 C195.26935004 155.76142227 194.10333575 156.47431526 192.9375 157.1875 C191.76858751 157.88255971 190.59867193 158.5759354 189.42773438 159.26757812 C185.12879163 161.82817757 180.87476488 164.39963768 176.74829102 167.23168945 C174 169 174 169 172 169 C171.67 167.68 171.34 166.36 171 165 C170.34 165 169.68 165 169 165 C168.01 162.36 167.02 159.72 166 157 C167.32 156.01 168.64 155.02 170 154 C168.35 153.67 166.7 153.34 165 153 C165.58278229 165.57279597 166.60842869 178.04800403 167.9375 190.5625 C168.10909003 192.21545683 168.28031452 193.86845165 168.45117188 195.52148438 C169.11898423 201.937035 169.79102246 208.35081921 170.57470703 214.75341797 C170.66756485 215.51532944 170.76042267 216.27724091 170.85609436 217.0622406 C171.03133988 218.4851511 171.21025796 219.90761678 171.39378357 221.32948303 C171.91890501 225.57772184 172.07719914 229.72150616 172 234 C171.01 234 170.02 234 169 234 C168.92483154 235.05405029 168.92483154 235.05405029 168.84814453 236.12939453 C167.72680208 251.76970607 166.48367962 267.38979632 165 283 C156.09596098 285.72572623 147.6542703 286.19279714 138.375 286.1875 C136.64080811 286.1884668 136.64080811 286.1884668 134.87158203 286.18945312 C127.00324993 286.14067102 119.72081154 285.58375621 112 284 C110.515 276.08 110.515 276.08 109 268 C107.02 273.28 105.04 278.56 103 284 C93.70781546 285.63635954 84.8635933 286.30975336 75.4375 286.25 C73.60155273 286.26160156 73.60155273 286.26160156 71.72851562 286.2734375 C70.51744141 286.27085937 69.30636719 286.26828125 68.05859375 286.265625 C66.98923584 286.26336914 65.91987793 286.26111328 64.81811523 286.25878906 C59.50411551 285.89861004 54.25372349 284.87562058 49 284 C49 271.79 49 259.58 49 247 C48.01 247 47.02 247 46 247 C45.68054995 230.9565084 46.28773262 214.95044546 48.56640625 199.046875 C49.0045054 195.75418745 49.0135839 192.55476803 48.96875 189.234375 C48.91517664 183.12318492 49.65083851 177.2905062 50.5 171.25 C53.0892743 150.89779542 53.72752905 129.23515772 50 109 C49.38253906 110.02738281 48.76507813 111.05476563 48.12890625 112.11328125 C42.9613702 120.61096147 37.59181949 128.51828487 31 136 C30.11441355 137.04282459 29.22900377 138.08579923 28.34375 139.12890625 C22.11868834 146.33629341 15.37848399 153.93245815 5.3125 154.75 C1.01935786 154.42326529 -1.5596635 152.76199197 -4.55859375 149.7421875 C-9.83752816 143.36168683 -9.83622343 136.39506698 -9.26757812 128.34765625 C-8.52411286 121.82469827 -6.85563659 115.43962764 -5.37109375 109.0546875 C-1.86227922 93.88818563 0.42099175 78.47843616 2 63 C4.97 62.505 4.97 62.505 8 62 C7.566875 61.40316406 7.13375 60.80632812 6.6875 60.19140625 C0.83344786 51.07155188 0.51215014 41.72369117 2.53125 31.2421875 C4.81320626 27.75856278 8.23675753 26.56655908 12 25 C11.60095459 24.42032471 11.20190918 23.84064941 10.79077148 23.2434082 C8.99072694 20.61006332 7.21405199 17.96174419 5.4375 15.3125 C4.80908203 14.40048828 4.18066406 13.48847656 3.53320312 12.54882812 C2.64858398 11.21948242 2.64858398 11.21948242 1.74609375 9.86328125 C1.19622803 9.05157471 0.6463623 8.23986816 0.07983398 7.40356445 C-1.23354974 4.48014987 -0.92185554 3.01420958 0 0 Z " fill="#2A3341" transform="translate(128,153)"/>
<path d="M0 0 C3.36112709 1.63985785 6.30535588 1.28303094 9.96875 1.1015625 C14.88049441 1.1015625 17.62086246 3.50707579 21.0703125 6.7265625 C25.54496734 12.56369237 24.34867278 20.66291547 24.09765625 27.62109375 C24.27112103 30.30768237 24.98910556 31.76344742 26.2578125 34.1015625 C26.86810065 39.39072646 25.82463926 42.48503212 23.3359375 46.98046875 C21.84392086 49.91584932 20.9666654 52.96179922 20.06640625 56.12109375 C19.1246846 58.42762938 18.21603733 59.56723575 16.2578125 61.1015625 C15.57460938 61.23304687 14.89140625 61.36453125 14.1875 61.5 C13.23230469 61.79777344 13.23230469 61.79777344 12.2578125 62.1015625 C11.05578927 64.42547407 10.3676102 66.77453093 9.578125 69.265625 C8.30303948 72.00441817 7.2286403 73.21868919 5.1484375 75.31640625 C1.90626501 78.93879087 1.6200848 81.70579614 1.73046875 86.47070312 C1.78074219 87.31826172 1.83101562 88.16582031 1.8828125 89.0390625 C1.90988281 89.91369141 1.93695313 90.78832031 1.96484375 91.68945312 C2.03495688 93.82790362 2.14255713 95.96506945 2.2578125 98.1015625 C2.87140625 98.38 3.485 98.6584375 4.1171875 98.9453125 C6.96759331 100.48494775 8.41552202 102.46971895 10.2578125 105.1015625 C10.2578125 105.7615625 10.2578125 106.4215625 10.2578125 107.1015625 C11.2478125 107.4315625 12.2378125 107.7615625 13.2578125 108.1015625 C13.50015625 109.32488281 13.7425 110.54820312 13.9921875 111.80859375 C14.15203125 112.61176025 14.311875 113.41492676 14.4765625 114.24243164 C14.83752774 116.05770859 15.19684421 117.87331402 15.5546875 119.68920898 C16.40071627 123.95203365 17.26138512 128.20288049 18.2734375 132.4296875 C20.79338721 143.12981996 22.20294709 153.88000817 23.4453125 164.7890625 C23.52998779 165.52601349 23.61466309 166.26296448 23.7019043 167.02224731 C25.61076844 183.81478315 26.43528006 200.58841999 26.8203125 217.4765625 C26.84149139 218.36333679 26.86267029 219.25011108 26.88449097 220.16375732 C27.36966058 240.80906759 27.36057052 261.45194346 27.2578125 282.1015625 C25.19731395 282.91912488 23.13432397 283.73040984 21.0703125 284.5390625 C19.92175781 284.99152344 18.77320313 285.44398438 17.58984375 285.91015625 C6.26586156 289.95917684 -7.44132417 288.86851694 -18.7421875 285.1015625 C-18.73552567 283.95802811 -18.72886383 282.81449371 -18.72200012 281.63630676 C-18.66072434 270.76764826 -18.61599458 259.89902558 -18.58675098 249.03023243 C-18.57121034 243.44480404 -18.55018882 237.859517 -18.51586914 232.27416992 C-18.4828559 226.86652459 -18.46524773 221.45901372 -18.45755577 216.05127525 C-18.45208647 214.00599748 -18.44141107 211.96072559 -18.42499733 209.91550636 C-18.28376081 191.5575716 -20.12523705 173.90385791 -24.7421875 156.1015625 C-25.09460799 154.65385443 -25.44610265 153.20592079 -25.796875 151.7578125 C-28.96620212 138.939822 -32.90750473 126.28480368 -38.515625 114.3046875 C-39.7421875 111.1015625 -39.7421875 111.1015625 -39.7734375 109.04296875 C-38.11962598 105.92954328 -35.68153996 103.54293184 -33.2421875 101.0390625 C-28.33684861 95.96691737 -26.60242829 93.09916922 -26.6796875 85.9140625 C-26.68871094 84.82738281 -26.69773438 83.74070312 -26.70703125 82.62109375 C-26.71863281 81.78964844 -26.73023438 80.95820313 -26.7421875 80.1015625 C-27.33644531 79.85792969 -27.93070313 79.61429687 -28.54296875 79.36328125 C-32.91746833 76.85357723 -35.99263962 71.76124854 -37.34765625 66.953125 C-37.6171875 65.0390625 -37.6171875 65.0390625 -37.7421875 62.1015625 C-38.4846875 62.2046875 -39.2271875 62.3078125 -39.9921875 62.4140625 C-42.7421875 62.1015625 -42.7421875 62.1015625 -44.9921875 60.1640625 C-46.97907959 56.68700135 -47.0835625 54.44953283 -47.328125 50.54296875 C-47.81091677 47.69631916 -48.85614171 45.83998613 -50.3046875 43.3515625 C-53.49515935 37.35310226 -53.89440835 31.7644048 -52.7421875 25.1015625 C-50.18064301 18.64955195 -45.84706869 15.08788537 -40.04296875 11.56640625 C-35.65823193 8.77476566 -31.94498044 5.11857772 -28.12109375 1.6171875 C-19.56262505 -5.94094071 -9.29853808 -5.96572873 0 0 Z " fill="#DDF8F9" transform="translate(242.7421875,64.8984375)"/>
<path d="M0 0 C3.36112709 1.63985785 6.30535588 1.28303094 9.96875 1.1015625 C14.88049441 1.1015625 17.62086246 3.50707579 21.0703125 6.7265625 C25.54496734 12.56369237 24.34867278 20.66291547 24.09765625 27.62109375 C24.27112103 30.30768237 24.98910556 31.76344742 26.2578125 34.1015625 C26.86810065 39.39072646 25.82463926 42.48503212 23.3359375 46.98046875 C21.84392086 49.91584932 20.9666654 52.96179922 20.06640625 56.12109375 C19.1246846 58.42762938 18.21603733 59.56723575 16.2578125 61.1015625 C15.57460938 61.23304687 14.89140625 61.36453125 14.1875 61.5 C13.23230469 61.79777344 13.23230469 61.79777344 12.2578125 62.1015625 C11.05578927 64.42547407 10.3676102 66.77453093 9.578125 69.265625 C8.30303948 72.00441817 7.2286403 73.21868919 5.1484375 75.31640625 C1.90626501 78.93879087 1.6200848 81.70579614 1.73046875 86.47070312 C1.78074219 87.31826172 1.83101562 88.16582031 1.8828125 89.0390625 C1.90988281 89.91369141 1.93695313 90.78832031 1.96484375 91.68945312 C2.03495688 93.82790362 2.14255713 95.96506945 2.2578125 98.1015625 C2.87140625 98.39289063 3.485 98.68421875 4.1171875 98.984375 C7.3067378 100.64899432 8.47484367 101.91768959 10.2578125 105.1015625 C11.45702467 113.2202289 9.85814306 119.83660976 6.2578125 127.1015625 C2.32103824 125.78930441 1.4306343 123.9054231 -0.9296875 120.5390625 C-1.64511719 119.52714844 -2.36054688 118.51523438 -3.09765625 117.47265625 C-3.64035156 116.69019531 -4.18304688 115.90773438 -4.7421875 115.1015625 C-8.37778411 118.53518152 -11.10332096 121.8989232 -13.7421875 126.1015625 C-21.18645428 124.87485488 -26.57663077 117.64898681 -30.7421875 111.8515625 C-34.57743317 106.27625166 -34.57743317 106.27625166 -34.7421875 103.1015625 C-33.34375 101.06640625 -33.34375 101.06640625 -31.3671875 99.0390625 C-27.18869389 94.70241873 -26.6152503 91.90672253 -26.6796875 85.9140625 C-26.68871094 84.82738281 -26.69773438 83.74070312 -26.70703125 82.62109375 C-26.71863281 81.78964844 -26.73023438 80.95820313 -26.7421875 80.1015625 C-27.33644531 79.85792969 -27.93070313 79.61429687 -28.54296875 79.36328125 C-32.91746833 76.85357723 -35.99263962 71.76124854 -37.34765625 66.953125 C-37.6171875 65.0390625 -37.6171875 65.0390625 -37.7421875 62.1015625 C-38.4846875 62.2046875 -39.2271875 62.3078125 -39.9921875 62.4140625 C-42.7421875 62.1015625 -42.7421875 62.1015625 -44.9921875 60.1640625 C-46.97907959 56.68700135 -47.0835625 54.44953283 -47.328125 50.54296875 C-47.81091677 47.69631916 -48.85614171 45.83998613 -50.3046875 43.3515625 C-53.49515935 37.35310226 -53.89440835 31.7644048 -52.7421875 25.1015625 C-50.18064301 18.64955195 -45.84706869 15.08788537 -40.04296875 11.56640625 C-35.65823193 8.77476566 -31.94498044 5.11857772 -28.12109375 1.6171875 C-19.56262505 -5.94094071 -9.29853808 -5.96572873 0 0 Z " fill="#B07246" transform="translate(242.7421875,64.8984375)"/>
<path d="M0 0 C3.36112709 1.63985785 6.30535588 1.28303094 9.96875 1.1015625 C14.88049441 1.1015625 17.62086246 3.50707579 21.0703125 6.7265625 C25.54496734 12.56369237 24.34867278 20.66291547 24.09765625 27.62109375 C24.27112103 30.30768237 24.98910556 31.76344742 26.2578125 34.1015625 C26.92083919 39.84779381 25.65235257 44.446842 22.2578125 49.1015625 C20.7728125 49.5965625 20.7728125 49.5965625 19.2578125 50.1015625 C18.5978125 49.1115625 17.9378125 48.1215625 17.2578125 47.1015625 C15.2778125 47.4315625 13.2978125 47.7615625 11.2578125 48.1015625 C11.2371875 46.8640625 11.2165625 45.6265625 11.1953125 44.3515625 C10.61400825 38.67266713 7.82478726 34.74316739 4.84765625 29.98828125 C2.75847168 26.19489698 2.34022598 23.38706364 2.2578125 19.1015625 C1.56816406 19.51148437 0.87851563 19.92140625 0.16796875 20.34375 C-10.11868411 26.2419954 -17.95509338 27.46056029 -29.7421875 27.1015625 C-29.98001953 28.20951172 -29.98001953 28.20951172 -30.22265625 29.33984375 C-31.92418189 36.73819005 -34.36022659 43.31090582 -37.7421875 50.1015625 C-38.4021875 50.1015625 -39.0621875 50.1015625 -39.7421875 50.1015625 C-39.7421875 49.1115625 -39.7421875 48.1215625 -39.7421875 47.1015625 C-42.0521875 47.7615625 -44.3621875 48.4215625 -46.7421875 49.1015625 C-52.2984526 41.13758252 -54.02310859 34.82963888 -52.7421875 25.1015625 C-50.22753267 18.64760049 -45.82596396 15.07508065 -40.04296875 11.56640625 C-35.65823193 8.77476566 -31.94498044 5.11857772 -28.12109375 1.6171875 C-19.56262505 -5.94094071 -9.29853808 -5.96572873 0 0 Z " fill="#2B3442" transform="translate(242.7421875,64.8984375)"/>
<path d="M0 0 C0.99 0.495 0.99 0.495 2 1 C1.67841919 1.79071899 1.67841919 1.79071899 1.3503418 2.59741211 C-0.94379809 8.73181526 -1.37368875 14.05544179 -1.1875 20.5625 C-1.17396484 21.47580078 -1.16042969 22.38910156 -1.14648438 23.33007812 C-1.11155315 25.55403259 -1.06251586 27.77667952 -1 30 C-1.5762915 30.29543701 -2.15258301 30.59087402 -2.74633789 30.89526367 C-13.98630569 36.67205083 -25.13975836 42.56287458 -36.125 48.8125 C-37.56335205 49.62799316 -37.56335205 49.62799316 -39.03076172 50.45996094 C-43.09651138 52.7681025 -47.15415101 55.08769005 -51.19140625 57.4453125 C-52.356458 58.10992369 -53.52179208 58.77404039 -54.6875 59.4375 C-56.11642578 60.27087891 -56.11642578 60.27087891 -57.57421875 61.12109375 C-60 62 -60 62 -62.2265625 61.33984375 C-65.82288037 58.62280184 -67.10250539 54.27302743 -68 50 C-68.76683188 43.5586122 -68.22152302 38.9179301 -64.44140625 33.5546875 C-62.54276503 31.50683057 -60.66530499 30.7403625 -58 30 C-57.67 29.34 -57.34 28.68 -57 28 C-54.24917874 26.59837755 -51.49923323 25.28592636 -48.69140625 24.0078125 C-41.69969962 20.76358633 -34.77296778 17.42320235 -27.90234375 13.9296875 C-27.0798111 13.51317932 -26.25727844 13.09667114 -25.40982056 12.6675415 C-22.05134161 10.96625904 -18.69440823 9.26210632 -15.3425293 7.54785156 C-12.84517166 6.27218384 -10.34301166 5.00640667 -7.83984375 3.7421875 C-7.07856674 3.3496579 -6.31728973 2.9571283 -5.53294373 2.55270386 C-3.71807281 1.64068806 -1.86199402 0.81148477 0 0 Z " fill="#EB6C4E" transform="translate(371,236)"/>
<path d="M0 0 C2.31 0.33 4.62 0.66 7 1 C5.90304795 3.7845706 4.78066764 6.41335714 3.375 9.0625 C-0.06782311 17.20168694 1.76022926 25.7365706 4.9296875 33.625 C5.90116798 35.78069391 6.93611259 37.88892671 8 40 C4.3791912 42.17373046 0.75268765 44.33777229 -2.875 46.5 C-3.90753906 47.12003906 -4.94007813 47.74007812 -6.00390625 48.37890625 C-7.48310547 49.25869141 -7.48310547 49.25869141 -8.9921875 50.15625 C-9.90339355 50.70087891 -10.81459961 51.24550781 -11.75341797 51.80664062 C-14 53 -14 53 -16 53 C-15.99097656 53.65226562 -15.98195313 54.30453125 -15.97265625 54.9765625 C-16.210193 61.97873285 -16.210193 61.97873285 -18.51953125 64.96484375 C-23.55703727 69.30240156 -27.31245965 70.22291801 -34 70 C-35.10529053 69.76966064 -36.21058105 69.53932129 -37.34936523 69.30200195 C-41.74387087 68.93846263 -43.4155503 69.79787064 -47.16015625 72.04296875 C-48.28357422 72.70490234 -49.40699219 73.36683594 -50.56445312 74.04882812 C-51.73064996 74.76142227 -52.89666425 75.47431526 -54.0625 76.1875 C-55.23141249 76.88255971 -56.40132807 77.5759354 -57.57226562 78.26757812 C-61.87120837 80.82817757 -66.12523512 83.39963768 -70.25170898 86.23168945 C-73 88 -73 88 -75 88 C-75.33 86.68 -75.66 85.36 -76 84 C-76.66 84 -77.32 84 -78 84 C-78.99 81.36 -79.98 78.72 -81 76 C-71.73777421 68.3003502 -61.1661858 63.19215843 -50.48681641 57.77148438 C-44.63219801 54.79703324 -38.79263575 51.79344694 -32.95446777 48.78686523 C-31.00031334 47.78229054 -29.04381997 46.78240487 -27.08691406 45.78320312 C-20.70457733 42.51380086 -14.37724469 39.16028635 -8.12890625 35.640625 C-7.52715073 35.30577087 -6.9253952 34.97091675 -6.30540466 34.62591553 C-3.08768659 32.88954989 -3.08768659 32.88954989 -1 30 C-1.66 30 -2.32 30 -3 30 C-3.08803772 26.50016197 -3.14073608 23.00061362 -3.1875 19.5 C-3.21263672 18.51773438 -3.23777344 17.53546875 -3.26367188 16.5234375 C-3.32622356 10.26826941 -2.58892681 5.70787013 0 0 Z " fill="#E76C4F" transform="translate(375,234)"/>
<path d="M0 0 C0.495 8.415 0.495 8.415 1 17 C2.32 17.66 3.64 18.32 5 19 C7.76334243 21.30278536 8.86333547 23.07478114 9.390625 26.64453125 C9.65126171 33.89581675 8.20704593 39.52863946 5 46 C1.06322574 44.68774191 0.1728218 42.8038606 -2.1875 39.4375 C-2.90292969 38.42558594 -3.61835938 37.41367188 -4.35546875 36.37109375 C-4.89816406 35.58863281 -5.44085938 34.80617187 -6 34 C-9.63559661 37.43361902 -12.36113346 40.7973607 -15 45 C-22.44426678 43.77329238 -27.83444327 36.54742431 -32 30.75 C-35.82457111 25.19020681 -35.82457111 25.19020681 -36 22 C-34.63671875 20.31640625 -34.63671875 20.31640625 -32.6875 18.5625 C-27.82430791 13.45711707 -27.50828393 7.80478077 -27 1 C-26.13117188 1.32355469 -25.26234375 1.64710938 -24.3671875 1.98046875 C-14.70734632 4.90531625 -8.70279813 0 0 0 Z " fill="#B37345" transform="translate(244,146)"/>
<path d="M0 0 C0.33 1.32 0.66 2.64 1 4 C-1.64 4.33 -4.28 4.66 -7 5 C-7 5.33 -7 5.66 -7 6 C-6.16855469 5.96519531 -5.33710938 5.93039063 -4.48046875 5.89453125 C-2.85044922 5.85392578 -2.85044922 5.85392578 -1.1875 5.8125 C-0.10855469 5.77769531 0.97039062 5.74289063 2.08203125 5.70703125 C5 6 5 6 8 9 C3.05 9 -1.9 9 -7 9 C-7 9.66 -7 10.32 -7 11 C-6.18015625 10.75636719 -6.18015625 10.75636719 -5.34375 10.5078125 C-2.6706465 9.92864008 -0.2340694 9.86748882 2.5 9.875 C3.90765625 9.87113281 3.90765625 9.87113281 5.34375 9.8671875 C7.77514088 9.98875704 9.72870047 10.13331992 12 11 C14 14 14 14 14 17 C13.34 17.33 12.68 17.66 12 18 C12.51691406 18.65226562 13.03382813 19.30453125 13.56640625 19.9765625 C14.22511719 20.85054687 14.88382813 21.72453125 15.5625 22.625 C16.22378906 23.48351562 16.88507813 24.34203125 17.56640625 25.2265625 C19.36469888 28.70554825 19.03928136 30.28257054 18 34 C17.13826227 36.42000959 16.07589316 38.66110182 15 41 C14.67 39.68 14.34 38.36 14 37 C5.42 37.33 -3.16 37.66 -12 38 C-12 37.67 -12 37.34 -12 37 C-9.03 36.505 -9.03 36.505 -6 36 C-6.433125 35.40316406 -6.86625 34.80632812 -7.3125 34.19140625 C-12.80823242 25.62976755 -13.04756279 17.85111928 -12 8 C-10.88029632 4.19403475 -10.5439553 3.34292834 -7.125 1.1875 C-4 0 -4 0 0 0 Z " fill="#B07348" transform="translate(142,179)"/>
<path d="M0 0 C1 2 1 2 1.2734375 3.90625 C2.8152881 8.34943239 8.19343298 10.57303198 12 13 C12.68578125 13.44214844 13.3715625 13.88429687 14.078125 14.33984375 C17.40834503 16.37417381 18.99161562 17 23 17 C24.77880565 14.93609212 24.77880565 14.93609212 26.1875 12.25 C26.95126953 10.92742187 26.95126953 10.92742187 27.73046875 9.578125 C28.83067192 7.34386626 29.52856347 5.43102212 30 3 C33.90368082 4.53358889 35.9450049 6.33036589 38 10 C39.19921217 18.1186664 37.60033056 24.73504726 34 32 C30.06322574 30.68774191 29.1728218 28.8038606 26.8125 25.4375 C25.73935547 23.91962891 25.73935547 23.91962891 24.64453125 22.37109375 C24.10183594 21.58863281 23.55914062 20.80617187 23 20 C19.36440339 23.43361902 16.63886654 26.7973607 14 31 C6.55573322 29.77329238 1.16555673 22.54742431 -3 16.75 C-6.84309106 11.1632843 -6.84309106 11.1632843 -7 8 C-5.56640625 5.859375 -5.56640625 5.859375 -3.5625 3.75 C-2.57443359 2.69039062 -2.57443359 2.69039062 -1.56640625 1.609375 C-1.04949219 1.07828125 -0.53257812 0.5471875 0 0 Z " fill="#ED6F50" transform="translate(215,160)"/>
<path d="M0 0 C0.99 0.33 1.98 0.66 3 1 C-9.87 8.425 -9.87 8.425 -23 16 C-21.02 16.99 -19.04 17.98 -17 19 C-16.93689985 23.05643798 -16.90644519 26.63375929 -19.51953125 29.8984375 C-24.53351204 34.2262946 -28.28447579 35.35344864 -35 35 C-37.4375 34 -37.4375 34 -39 33 C-38 30 -38 30 -36.125 28.3125 C-33.61885502 25.58522458 -32.89741658 23.2217601 -31.90625 19.70703125 C-31.6071875 19.14371094 -31.308125 18.58039063 -31 18 C-29.67353057 17.64032271 -28.33993027 17.30573806 -27 17 C-26.67 16.01 -26.34 15.02 -26 14 C-23.60742188 12.48193359 -23.60742188 12.48193359 -20.46875 10.8984375 C-19.34855469 10.32609375 -18.22835938 9.75375 -17.07421875 9.1640625 C-15.89472656 8.57367188 -14.71523438 7.98328125 -13.5 7.375 C-11.17544184 6.19851984 -8.85344774 5.01707835 -6.53125 3.8359375 C-5.49548828 3.31563965 -4.45972656 2.7953418 -3.39257812 2.25927734 C-1.1100625 1.20885956 -1.1100625 1.20885956 0 0 Z " fill="#B47446" transform="translate(376,269)"/>
<path d="M0 0 C2.90662016 0.32795935 3.87841554 0.86385606 5.859375 3.08203125 C6.79523438 4.43361328 6.79523438 4.43361328 7.75 5.8125 C8.77867187 7.28976563 8.77867187 7.28976563 9.828125 8.796875 C10.54484375 9.85390625 11.2615625 10.9109375 12 12 C12.76535131 13.10956383 13.5309771 14.21893839 14.296875 15.328125 C20 23.70079787 20 23.70079787 20 26 C21.65 26.33 23.3 26.66 25 27 C24.9175 27.680625 24.835 28.36125 24.75 29.0625 C25.09946865 33.16875665 26.81849032 35.52321895 29 39 C28.01 39 27.02 39 26 39 C26 38.34 26 37.68 26 37 C19.73 37 13.46 37 7 37 C7 36.34 7 35.68 7 35 C10.15506142 34.06380187 12.96586502 33.8942877 16.25 33.9375 C17.14203125 33.94652344 18.0340625 33.95554688 18.953125 33.96484375 C19.62859375 33.97644531 20.3040625 33.98804688 21 34 C17.99686252 32.49843126 15.20932478 32.90718796 11.875 32.9375 C10.59367188 32.94652344 9.31234375 32.95554688 7.9921875 32.96484375 C7.00476563 32.97644531 6.01734375 32.98804688 5 33 C5.66 32.01 6.32 31.02 7 30 C8.9453125 29.70703125 8.9453125 29.70703125 11.125 29.8125 C12.40375 29.874375 13.6825 29.93625 15 30 C13.91664594 28.25507202 12.83289965 26.51038649 11.74731445 24.7668457 C10.8302111 23.29370459 9.91469035 21.81957707 9.00073242 20.34448242 C6.12607543 15.72630683 3.14485173 11.23752615 -0.13671875 6.89453125 C-1.31544158 4.30774134 -0.76197624 2.67384389 0 0 Z " fill="#383D48" transform="translate(128,153)"/>
<path d="M0 0 C1.23807941 3.71423824 0.4456965 4.48823522 -1 8 C-1.3589674 10.60212075 -1.3589674 10.60212075 -1.4140625 13.30078125 C-1.45273437 14.27724609 -1.49140625 15.25371094 -1.53125 16.25976562 C-1.57765625 17.77086914 -1.57765625 17.77086914 -1.625 19.3125 C-1.66367187 20.33923828 -1.70234375 21.36597656 -1.7421875 22.42382812 C-1.83614897 24.94904265 -1.9218154 27.47425592 -2 30 C-1.34 30 -0.68 30 0 30 C-1.0353038 33.29077069 -2.14846128 34.09213723 -5.13842773 35.94775391 C-6.48070969 36.63606463 -7.82963063 37.31152389 -9.18359375 37.9765625 C-9.90685349 38.34372375 -10.63011322 38.71088501 -11.37528992 39.08917236 C-13.72403021 40.27869643 -16.08056403 41.45181181 -18.4375 42.625 C-20.04669085 43.43641524 -21.65525224 44.24908003 -23.26318359 45.06298828 C-25.64988468 46.27070887 -28.03702669 47.47745567 -30.42657471 48.67953491 C-37.07871152 52.02616553 -43.67027025 55.47880526 -50.22827148 59.00634766 C-55.05277623 61.57758054 -59.9808733 63.83446049 -65 66 C-65 65.34 -65 64.68 -65 64 C-64.33282959 63.64397705 -63.66565918 63.2879541 -62.97827148 62.92114258 C-49.80869907 55.88454202 -36.69016632 48.78839514 -23.73999023 41.3527832 C-7.38129778 32 -7.38129778 32 -4 32 C-4.15855469 31.49597656 -4.31710937 30.99195313 -4.48046875 30.47265625 C-6.57195676 20.51843137 -5.55050711 10.0827391 -1 1 C-0.67 0.67 -0.34 0.34 0 0 Z " fill="#3C3742" transform="translate(374,234)"/>
<path d="M0 0 C2.93467485 2.93467485 3.13468905 6.42290744 3.875 10.375 C4.04427002 11.27041504 4.21354004 12.16583008 4.38793945 13.08837891 C6.05942388 22.46747759 7.14104083 31.91004388 8.1875 41.375 C8.27199402 42.13496277 8.35648804 42.89492554 8.44354248 43.67791748 C10.02968337 58.08675528 11.18180588 72.42806999 11.0625 86.9375 C11.05798828 88.01451172 11.05347656 89.09152344 11.04882812 90.20117188 C11.03727402 92.80084555 11.02099326 95.40038849 11 98 C9.515 98.495 9.515 98.495 8 99 C7.98598145 97.7159729 7.98598145 97.7159729 7.97167969 96.40600586 C7.73209347 78.64961369 6.95934161 61.04359424 5.125 43.375 C5.04390991 42.57681854 4.96281982 41.77863708 4.87927246 40.95626831 C3.94031638 31.83133308 2.76086139 22.81097611 0.95877075 13.81210327 C0.05206437 9.10560692 -0.11608054 4.76726188 0 0 Z " fill="#3C4754" transform="translate(238,183)"/>
<path d="M0 0 C1.32 1.65 2.64 3.3 4 5 C0.25143972 9.06850399 -4.52333598 11.53002316 -9.25 14.3125 C-10.17941406 14.88806641 -11.10882813 15.46363281 -12.06640625 16.05664062 C-18.87200862 20.04662957 -18.87200862 20.04662957 -22.23242188 19.90771484 C-24.171875 19.35546875 -24.171875 19.35546875 -27 18 C-24.60372619 15.36385202 -22.02308875 13.67417495 -18.96484375 11.86328125 C-17.99095703 11.28642578 -17.01707031 10.70957031 -16.01367188 10.11523438 C-14.99853516 9.52033203 -13.98339844 8.92542969 -12.9375 8.3125 C-11.91849609 7.70599609 -10.89949219 7.09949219 -9.84960938 6.47460938 C-2.25435004 2 -2.25435004 2 0 2 C0 1.34 0 0.68 0 0 Z " fill="#EA6E50" transform="translate(379,268)"/>
<path d="M0 0 C-0.27183075 3.89624082 -0.81094773 5.75843321 -3.25 8.875 C-6 11 -6 11 -8.5625 11.5625 C-11.8304394 10.80836014 -13.07885015 9.73394401 -15 7 C-14.75 4.25 -14.75 4.25 -14 2 C-9.07262981 0.02905192 -5.21979128 -0.1799928 0 0 Z " fill="#393941" transform="translate(239,128)"/>
<path d="M0 0 C3.04639522 3.04639522 3.18384899 6.89499929 3.9375 11 C4.10862305 11.91322021 4.27974609 12.82644043 4.45605469 13.76733398 C6.75822423 26.56966879 9 39.97026922 9 53 C8.34 53 7.68 53 7 53 C6.67 53.99 6.34 54.98 6 56 C5.92483154 55.14994385 5.84966309 54.2998877 5.7722168 53.42407227 C3.97661469 32.30662503 3.97661469 32.30662503 0.55078125 11.41015625 C-0.07836019 7.51483373 -0.09083182 3.94037107 0 0 Z " fill="#485461" transform="translate(238,183)"/>
<path d="M0 0 C0.99 0.33 1.98 0.66 3 1 C2.52916992 1.29543701 2.05833984 1.59087402 1.57324219 1.89526367 C-0.70218844 3.32439859 -2.97624702 4.75569741 -5.25 6.1875 C-6.09377197 6.71835205 -6.93754395 7.2492041 -7.80688477 7.79614258 C-12.423059 10.70958428 -17.01531485 13.65386896 -21.57421875 16.65625 C-22.47172852 17.24639893 -23.36923828 17.83654785 -24.29394531 18.44458008 C-26.03217671 19.59061203 -27.76730709 20.74136381 -29.49902344 21.8972168 C-30.29211914 22.41968994 -31.08521484 22.94216309 -31.90234375 23.48046875 C-32.59835693 23.94348389 -33.29437012 24.40649902 -34.01147461 24.88354492 C-36.01373221 26.00770993 -37.75626398 26.55929419 -40 27 C-40 26.34 -40 25.68 -40 25 C-37.99221801 23.45819856 -35.99331956 22.06500427 -33.875 20.6875 C-33.22499023 20.25888672 -32.57498047 19.83027344 -31.90527344 19.38867188 C-23.16823517 13.70375081 -14.1346933 8.49369869 -5.12207031 3.26171875 C-3.38222729 2.22726077 -1.68418922 1.12279282 0 0 Z " fill="#3F3842" transform="translate(337,290)"/>
<path d="M0 0 C5 5 5 5 7 8 C6.67148315 12.81824716 4.99105238 16.67162527 3 21 C2.67 21 2.34 21 2 21 C2 19.35 2 17.7 2 16 C0.68 16 -0.64 16 -2 16 C-1.34 10.72 -0.68 5.44 0 0 Z " fill="#F3F1F0" transform="translate(154,199)"/>
<path d="M0 0 C1.23928467 3.717854 0.44113227 4.4812192 -1 8 C-1.35976806 10.69993904 -1.35976806 10.69993904 -1.4140625 13.51953125 C-1.45273437 14.54111328 -1.49140625 15.56269531 -1.53125 16.61523438 C-1.5621875 17.67033203 -1.593125 18.72542969 -1.625 19.8125 C-1.66367187 20.88693359 -1.70234375 21.96136719 -1.7421875 23.06835938 C-1.83618613 25.71207088 -1.92184573 28.3557805 -2 31 C-4.60676734 28.72204916 -4.96969254 28.23809106 -5.43359375 24.59375 C-5.4565261 23.22935875 -5.45665961 21.86444944 -5.4375 20.5 C-5.43355225 19.789646 -5.42960449 19.07929199 -5.42553711 18.34741211 C-5.26439451 12.37165128 -4.4400895 4.4400895 0 0 Z " fill="#4F3D44" transform="translate(374,234)"/>
<path d="M0 0 C0.99 0.33 1.98 0.66 3 1 C-0.62589811 3.12425199 -4.25551275 5.24196194 -7.88867188 7.35375977 C-9.12343172 8.0726867 -10.35716859 8.79337363 -11.58984375 9.51586914 C-13.36450778 10.5556219 -15.14278586 11.58893548 -16.921875 12.62109375 C-17.99018555 13.2442749 -19.05849609 13.86745605 -20.15917969 14.50952148 C-22.52087415 15.74861951 -24.39841699 16.53621569 -27 17 C-25.67067119 13.01201358 -24.16979659 12.76565811 -20.46875 10.8984375 C-19.34855469 10.32609375 -18.22835938 9.75375 -17.07421875 9.1640625 C-15.89472656 8.57367188 -14.71523438 7.98328125 -13.5 7.375 C-11.17544184 6.19851984 -8.85344774 5.01707835 -6.53125 3.8359375 C-5.49548828 3.31563965 -4.45972656 2.7953418 -3.39257812 2.25927734 C-1.1100625 1.20885956 -1.1100625 1.20885956 0 0 Z " fill="#483B42" transform="translate(376,269)"/>
<path d="M0 0 C-6.9137712 3.91082007 -13.09897121 4.97502057 -21 4 C-23.35422465 3.23279457 -24.92512353 2.38325098 -27 1 C-25 0 -25 0 -22.9375 0.4375 C-15.10840577 1.93668826 -7.04161088 -2.18427409 0 0 Z " fill="#383941" transform="translate(244,146)"/>
<path d="M0 0 C-1.07401108 2.91517292 -1.77810176 4.77810176 -4 7 C-6.5 7.25 -6.5 7.25 -9 7 C-9.66 6.34 -10.32 5.68 -11 5 C-11 4.01 -11 3.02 -11 2 C-3.375 0 -3.375 0 0 0 Z " fill="#A66D44" transform="translate(237,130)"/>
<path d="M0 0 C0.66 0 1.32 0 2 0 C1.67 6.27 1.34 12.54 1 19 C-1 18 -1 18 -2 15 C-2.38612745 9.70197223 -2.55903682 4.79819403 0 0 Z " fill="#443942" transform="translate(326,263)"/>
<path d="M0 0 C0.99 0.66 1.98 1.32 3 2 C3 2.66 3 3.32 3 4 C0.01758453 4.77321882 -2.97580475 5.41196203 -6 6 C-6.12375 5.360625 -6.2475 4.72125 -6.375 4.0625 C-6.684375 3.0415625 -6.684375 3.0415625 -7 2 C-7.66 1.67 -8.32 1.34 -9 1 C-5.98131566 -0.50934217 -3.32702771 -0.17510672 0 0 Z " fill="#373841" transform="translate(246,109)"/>
<path d="M0 0 C0.99 0 1.98 0 3 0 C3.33 4.95 3.66 9.9 4 15 C3.34 15 2.68 15 2 15 C1.67 15.99 1.34 16.98 1 18 C0.67 12.06 0.34 6.12 0 0 Z " fill="#505D69" transform="translate(243,221)"/>
<path d="M0 0 C1.50433594 0.01353516 1.50433594 0.01353516 3.0390625 0.02734375 C3.80992187 0.03894531 4.58078125 0.05054687 5.375 0.0625 C5.375 0.7225 5.375 1.3825 5.375 2.0625 C3.4386296 2.56685694 1.50085854 3.06583874 -0.4375 3.5625 C-1.51644531 3.8409375 -2.59539062 4.119375 -3.70703125 4.40625 C-6.625 5.0625 -6.625 5.0625 -9.625 5.0625 C-7.31621143 -0.04981756 -5.45179037 -0.06339291 0 0 Z " fill="#3B3A41" transform="translate(219.625,102.9375)"/>
<path d="M0 0 C0.33 1.32 0.66 2.64 1 4 C-0.85625 4.1546875 -0.85625 4.1546875 -2.75 4.3125 C-6.2792866 4.73801682 -8.37160966 5.48112592 -11 8 C-10.875 5.6875 -10.875 5.6875 -10 3 C-6.33634907 0.63898051 -4.40218532 0 0 0 Z " fill="#B3784D" transform="translate(142,179)"/>
<path d="M0 0 C0.66 0.33 1.32 0.66 2 1 C2.4140625 4.16015625 2.4140625 4.16015625 2.625 8.0625 C2.69976562 9.35285156 2.77453125 10.64320312 2.8515625 11.97265625 C2.90054688 12.97167969 2.94953125 13.97070312 3 15 C2.01 15.66 1.02 16.32 0 17 C0.020625 15.88625 0.04125 14.7725 0.0625 13.625 C0.26380718 10.16784079 0.26380718 10.16784079 -1 8 C-1.125 4.4375 -1.125 4.4375 -1 1 C-0.67 0.67 -0.34 0.34 0 0 Z " fill="#3D3B41" transform="translate(230,107)"/>
<path d="M0 0 C0 1.65 0 3.3 0 5 C-1.65 5.33 -3.3 5.66 -5 6 C-5 5.34 -5 4.68 -5 4 C-6.32 3.67 -7.64 3.34 -9 3 C-6.38997624 -0.48003168 -4.1689578 -0.27793052 0 0 Z " fill="#343741" transform="translate(222,110)"/>
<path d="M0 0 C2.5 1 2.5 1 4 2 C4 2.66 4 3.32 4 4 C-2.93 3.505 -2.93 3.505 -10 3 C-10 2.34 -10 1.68 -10 1 C-6.83013832 -0.58493084 -3.45967739 -0.2940042 0 0 Z " fill="#333741" transform="translate(247,101)"/>
<path d="M0 0 C0.99 0 1.98 0 3 0 C2.98839844 0.97582031 2.97679687 1.95164063 2.96484375 2.95703125 C2.95582031 4.22933594 2.94679688 5.50164062 2.9375 6.8125 C2.92589844 8.07707031 2.91429687 9.34164063 2.90234375 10.64453125 C2.83840884 13.99605237 2.83840884 13.99605237 4 17 C3.01 16.67 2.02 16.34 1 16 C-0.50156874 12.99686252 -0.09281204 10.20932478 -0.0625 6.875 C-0.05347656 5.59367188 -0.04445313 4.31234375 -0.03515625 2.9921875 C-0.02355469 2.00476563 -0.01195312 1.01734375 0 0 Z " fill="#4A3B43" transform="translate(352,250)"/>
<path d="M0 0 C1.05445313 -0.02578125 2.10890625 -0.0515625 3.1953125 -0.078125 C4.07960937 0.03015625 4.96390625 0.1384375 5.875 0.25 C6.535 1.24 7.195 2.23 7.875 3.25 C1.935 3.25 -4.005 3.25 -10.125 3.25 C-10.125 2.59 -10.125 1.93 -10.125 1.25 C-6.72552755 0.23180052 -3.54107017 0.05220251 0 0 Z " fill="#584842" transform="translate(145.125,186.75)"/>
<path d="M0 0 C0.66 0 1.32 0 2 0 C2.66 3.96 3.32 7.92 4 12 C1 11 1 11 -0.1875 8.75 C-1.00525547 5.98221224 -1.23885231 3.86622776 -1 1 C-0.67 0.67 -0.34 0.34 0 0 Z " fill="#433942" transform="translate(344,257)"/>
<path d="M0 0 C2.31 0.33 4.62 0.66 7 1 C6.21625 1.763125 5.4325 2.52625 4.625 3.3125 C1.92742283 5.90891805 1.92742283 5.90891805 0 9 C0 6.03 0 3.06 0 0 Z " fill="#ECEAEB" transform="translate(292,305)"/>
<path d="M0 0 C0.78246094 0.01675781 1.56492188 0.03351563 2.37109375 0.05078125 C3.15613281 0.05464844 3.94117188 0.05851563 4.75 0.0625 C6.80859375 0.36328125 6.80859375 0.36328125 8.80859375 2.36328125 C4.18859375 2.69328125 -0.43140625 3.02328125 -5.19140625 3.36328125 C-2.19140625 0.36328125 -2.19140625 0.36328125 0 0 Z " fill="#423D41" transform="translate(145.19140625,190.63671875)"/>
<path d="M0 0 C1.875 0.25 1.875 0.25 4 1 C5.25 3.0625 5.25 3.0625 6 5 C5.01 5.66 4.02 6.32 3 7 C1.5 5.75 1.5 5.75 0 4 C0 2.68 0 1.36 0 0 Z " fill="#7B5843" transform="translate(257,111)"/>
<path d="M0 0 C-1.28813342 0.83878455 -2.58063256 1.67086783 -3.875 2.5 C-4.59429687 2.9640625 -5.31359375 3.428125 -6.0546875 3.90625 C-8 5 -8 5 -10 5 C-9 2 -9 2 -6.125 0.25 C-3 -1 -3 -1 0 0 Z " fill="#3B3742" transform="translate(359,281)"/>
<path d="M0 0 C2.35302007 2.35302007 2.39392208 3.27435295 2.75 6.5 C2.84796875 7.2940625 2.9459375 8.088125 3.046875 8.90625 C3 11 3 11 1 13 C-0.10228696 8.59085217 -0.07654536 4.51617599 0 0 Z " fill="#596772" transform="translate(238,183)"/>
<path d="M0 0 C4.29 0.66 8.58 1.32 13 2 C12.34 2.66 11.68 3.32 11 4 C3.65 3.65 3.65 3.65 0 0 Z " fill="#4A4142" transform="translate(217,146)"/>
<path d="M0 0 C0.66 0 1.32 0 2 0 C3.1577506 3.47325181 3.06866652 6.36067448 3 10 C2.34 10 1.68 10 1 10 C0.67 6.7 0.34 3.4 0 0 Z " fill="#3A4553" transform="translate(242,211)"/>
<path d="M0 0 C0.99 0.33 1.98 0.66 3 1 C1.90554162 1.86657116 0.79902219 2.71792724 -0.3125 3.5625 C-0.92738281 4.03816406 -1.54226562 4.51382813 -2.17578125 5.00390625 C-2.77777344 5.33261719 -3.37976563 5.66132813 -4 6 C-4.99 5.67 -5.98 5.34 -7 5 C-5.90554162 4.13342884 -4.79902219 3.28207276 -3.6875 2.4375 C-3.07261719 1.96183594 -2.45773438 1.48617187 -1.82421875 0.99609375 C-1.22222656 0.66738281 -0.62023437 0.33867187 0 0 Z " fill="#393941" transform="translate(150,197)"/>
</svg>
