<?xml version="1.0" encoding="UTF-8"?>
<svg version="1.1" xmlns="http://www.w3.org/2000/svg" width="1300" height="950">
<path d="M0 0 C633.6 0 1267.2 0 1920 0 C1920 356.4 1920 712.8 1920 1080 C1286.4 1080 652.8 1080 0 1080 C0 723.6 0 367.2 0 0 Z " fill="#FEFEFE" transform="translate(0,0)"/>
<path d="M0 0 C0.81197845 0.00060425 1.62395691 0.0012085 2.46054077 0.00183105 C15.7460471 0.02856213 28.8757544 0.4431834 42.0625 2.1875 C43.47982422 2.3728833 43.47982422 2.3728833 44.92578125 2.56201172 C99.85690021 10.06502052 153.88260389 33.3382017 196.50439453 68.88964844 C198.08334239 70.20486104 199.67958247 71.49680511 201.27734375 72.7890625 C208.87626132 79.03035153 215.90132364 85.82213477 222.875 92.75 C223.74648682 93.61222168 224.61797363 94.47444336 225.51586914 95.36279297 C230.68515274 100.55715824 235.46243255 105.93430472 240.03686523 111.65991211 C242.08189344 114.21169915 244.18829972 116.70146977 246.3125 119.1875 C285.95091221 167.69604641 312.00029945 233.7669971 312.265625 296.66015625 C312.27132507 297.74090927 312.27702515 298.82166229 312.28289795 299.93516541 C312.29229885 302.21856729 312.29886226 304.50198244 312.30273438 306.78540039 C312.31232686 310.18857348 312.34335082 313.5911117 312.375 316.99414062 C312.47179567 336.86609428 310.77913399 356.51594452 306.4375 375.9375 C306.05899902 377.653927 306.05899902 377.653927 305.67285156 379.4050293 C300.69135095 401.18650745 293.62385862 422.0056119 284.0625 442.1875 C283.42489746 443.55696777 283.42489746 443.55696777 282.77441406 444.95410156 C269.79281756 472.68529229 252.44208741 497.98307145 231.62890625 520.40234375 C229.49883815 522.71397016 227.42298242 525.0536298 225.375 527.4375 C219.44787011 534.25369938 212.92448527 540.33084817 206.0625 546.1875 C204.69544922 547.38826172 204.69544922 547.38826172 203.30078125 548.61328125 C152.89605549 592.56626704 83.57785265 621.9327543 16.328125 622.42578125 C15.22458176 622.43562042 14.12103851 622.44545959 12.98405457 622.45559692 C-60.50236034 622.97588782 -131.95835308 604.50752799 -189.9375 557.1875 C-190.86304688 556.45273437 -191.78859375 555.71796875 -192.7421875 554.9609375 C-210.19674019 540.96762755 -227.39634292 525.03720706 -240.9375 507.1875 C-241.92292789 505.94017912 -242.91004668 504.69419309 -243.8984375 503.44921875 C-294.29205132 439.46588905 -317.78796287 356.96307527 -308.8125 275.9375 C-300.91060047 212.40622782 -274.38556555 152.04035218 -231.1796875 104.6484375 C-229.69430939 103.01814445 -228.22013272 101.3775692 -226.7578125 99.7265625 C-218.67070758 90.60338719 -210.28728322 82.02223228 -200.734375 74.42578125 C-197.84891678 72.11660868 -195.05450288 69.71906666 -192.25 67.3125 C-185.16272017 61.41099415 -177.65618968 56.22616349 -169.9375 51.1875 C-169.26541504 50.74825195 -168.59333008 50.30900391 -167.90087891 49.85644531 C-117.60505312 17.33831975 -59.85863377 -0.08276764 0 0 Z " fill="#00ACC1" transform="translate(958.9375,228.8125)"/>
<path d="M0 0 C0.63550781 0.44085938 1.27101563 0.88171875 1.92578125 1.3359375 C11.24313055 8.48405914 15.35987217 18.66686443 17 30 C18.24308311 39.92715667 14.49397301 49.86315368 9 58 C8.07809819 59.03494154 7.14154109 60.05710826 6.1875 61.0625 C3.89331981 64.14325625 3.32916416 65.93974314 3.55859375 69.7734375 C4.26717085 73.34767596 5.6456359 76.58014163 7.125 79.8984375 C8 82 8 82 8 84 C2.53626132 83.55398052 -1.602913 82.37811469 -6 79 C-6.66 78.071875 -7.32 77.14375 -8 76.1875 C-8.99 75.1046875 -8.99 75.1046875 -10 74 C-13.40614946 74.02126462 -13.40614946 74.02126462 -17 75 C-31.91118665 77.63138588 -44.93456032 75.55515565 -57.5625 66.91015625 C-66.38167154 59.99897855 -71.3862481 50.81353109 -74 40 C-75.14404163 26.12292363 -72.88899521 16.70131462 -64 6 C-47.05893563 -11.9782724 -20.15606278 -14.48382564 0 0 Z " fill="#FCFEFD" transform="translate(1019,424)"/>
<path d="M0 0 C4.82938823 2.68680953 8.32465712 6.96199442 12 11 C13.60832157 12.43889533 15.25073715 13.84141339 16.9375 15.1875 C17.60652344 15.73792969 18.27554688 16.28835938 18.96484375 16.85546875 C21.59779841 18.3361899 23.01941862 18.49599813 26 18 C28.39432089 16.35792097 28.39432089 16.35792097 30.625 14.0625 C31.50027344 13.25039063 32.37554688 12.43828125 33.27734375 11.6015625 C35.06541154 9.8930214 36.82958617 8.15904964 38.56640625 6.3984375 C43.79280928 1.49138249 47.3443502 -0.5972591 54.625 -0.75 C64.20952446 -0.10908955 72.08455219 2.05644061 79 9 C87.0704685 19.38993386 88.31578553 28.18801765 88.125 41 C88.11597656 42.15628906 88.10695313 43.31257812 88.09765625 44.50390625 C88.07425029 47.33602786 88.03838498 50.1680418 88 53 C82.06 53 76.12 53 70 53 C69.67 46.4 69.34 39.8 69 33 C67.35 32.67 65.7 32.34 64 32 C59.02785537 36.97214463 62.35114506 45.97709878 62 53 C36.26 53 10.52 53 -16 53 C-16.495 43.1 -16.495 43.1 -17 33 C-20.63619656 31.91915479 -20.63619656 31.91915479 -23 32 C-23 38.93 -23 45.86 -23 53 C-28.94 53 -34.88 53 -41 53 C-41.10860887 48.54100235 -41.18762673 44.08468911 -41.25 39.625 C-41.28351562 38.37332031 -41.31703125 37.12164063 -41.3515625 35.83203125 C-41.46933756 24.58451327 -39.30687439 16.24866107 -31.37109375 8.05078125 C-22.80287733 0.64005041 -11.20270045 -3.28110281 0 0 Z " fill="#FCFEFD" transform="translate(831,622)"/>
<path d="M0 0 C4.68379515 2.81694002 8.5323937 6.66289267 12.42138672 10.46240234 C16.86822809 15.04820875 16.86822809 15.04820875 22.58203125 17.5625 C25.84886993 16.8025246 27.29770681 15.33844226 29.6875 13 C30.99267578 11.77990234 30.99267578 11.77990234 32.32421875 10.53515625 C33.20722656 9.69855469 34.09023437 8.86195313 35 8 C43.98194744 -0.48062944 43.98194744 -0.48062944 50 -0.6875 C58.75210988 0.12186439 66.768454 2.56829728 73 9 C77.42539851 15.18977307 80.13512785 20.29879138 80.09765625 27.98046875 C80.09282227 29.72553711 80.09282227 29.72553711 80.08789062 31.50585938 C80.07532227 33.32827148 80.07532227 33.32827148 80.0625 35.1875 C80.05798828 36.41404297 80.05347656 37.64058594 80.04882812 38.90429688 C80.03703076 41.93621865 80.01909514 44.9681154 80 48 C75.05 48 70.1 48 65 48 C64.505 39.09 64.505 39.09 64 30 C62.35 29.67 60.7 29.34 59 29 C58.67 35.27 58.34 41.54 58 48 C34.57 48 11.14 48 -13 48 C-13.495 38.595 -13.495 38.595 -14 29 C-15.65 29.33 -17.3 29.66 -19 30 C-19.33 35.94 -19.66 41.88 -20 48 C-24.95 48 -29.9 48 -35 48 C-35.1358464 43.70725365 -35.23455109 39.41887151 -35.3125 35.125 C-35.3753418 33.31902344 -35.3753418 33.31902344 -35.43945312 31.4765625 C-35.56088582 22.53911602 -34.2235616 15.64979753 -28.08642578 8.89331055 C-20.50081901 1.58906303 -10.53641831 -2.77585011 0 0 Z " fill="#FCFEFD" transform="translate(1050,627)"/>
<path d="M0 0 C0.639375 0.70125 1.27875 1.4025 1.9375 2.125 C7.96101163 8.16577098 14.30307493 12.12132475 22.91601562 12.13671875 C24.04040039 12.13091797 24.04040039 12.13091797 25.1875 12.125 C26.28288086 12.13080078 26.28288086 12.13080078 27.40039062 12.13671875 C32.348702 12.12795292 37.10120175 11.69903576 42 11 C42.4831058 27.1035266 41.89927318 42.81467006 30.3125 55.3125 C22.37716332 62.58410034 15.3454191 64.82658544 4.5546875 64.4140625 C-0.3236093 63.84582133 -3.90563904 62.68919566 -8 60 C-8.68449219 59.56042969 -9.36898437 59.12085938 -10.07421875 58.66796875 C-17.99560475 52.70806881 -23.27420703 41.78004773 -24.80078125 32.0625 C-25.29996989 24.38869814 -25.14541276 16.68450507 -25 9 C-24.31035156 8.97421875 -23.62070312 8.9484375 -22.91015625 8.921875 C-13.83439125 8.3740922 -6.84453617 6.1821617 0 0 Z " fill="#FCFEFD" transform="translate(846,533)"/>
<path d="M0 0 C0.54527344 0.39832031 1.09054687 0.79664063 1.65234375 1.20703125 C9.22680411 6.5285752 15.8533073 8.79299091 25 10 C25.60075084 26.44208842 25.43341722 39.91786939 13.75 52.6875 C6.94959283 59.14502949 -0.08042877 59.68881184 -9.3046875 59.46875 C-16.94636089 58.49940454 -21.93854541 54.59253917 -26.875 48.875 C-33.59398429 39.49377665 -35.16233562 28.34392542 -35.0625 17.0625 C-35.05798828 16.37865234 -35.05347656 15.69480469 -35.04882812 14.99023438 C-35.0371956 13.32678396 -35.01926694 11.6633795 -35 10 C-33.81664062 9.89042969 -32.63328125 9.78085937 -31.4140625 9.66796875 C-14.56637033 8.07009953 -14.56637033 8.07009953 0 0 Z " fill="#FCFEFD" transform="translate(1077,545)"/>
<path d="M0 0 C0.91136719 -0.01611328 1.82273437 -0.03222656 2.76171875 -0.04882812 C8.45782752 -0.05293787 12.43689739 0.67662653 17.5 3.3125 C14.68935893 5.18626071 12.00116542 6.47298362 8.9375 7.875 C-1.53016716 13.05173721 -9.57114946 20.94174748 -14.6875 31.4375 C-15.19667969 32.47132813 -15.70585938 33.50515625 -16.23046875 34.5703125 C-20.36387097 43.4984613 -20.1926468 56.94220947 -17.55859375 66.375 C-15.26475734 72.47272186 -12.18028284 77.94980215 -8.5 83.3125 C-9.09167969 83.18230469 -9.68335938 83.05210937 -10.29296875 82.91796875 C-12.76086802 82.48719351 -14.99423472 82.21481762 -17.5 82.3125 C-20.18726558 84.4153059 -20.18726558 84.4153059 -22.5 87.3125 C-26.92899965 90.66667965 -30.85276452 92.88895734 -36.5 93.3125 C-36.21125 92.4875 -35.9225 91.6625 -35.625 90.8125 C-32.62074087 81.73764098 -32.62074087 81.73764098 -32.5 72.3125 C-33.81165864 70.47003636 -35.28209392 68.9004863 -36.83984375 67.26171875 C-43.52522506 59.41229457 -45.9595478 49.44584622 -45.74609375 39.36328125 C-44.86960191 28.4975649 -39.54951971 18.41532737 -31.6171875 10.9765625 C-21.74347425 3.21604249 -12.41933722 -0.04391562 0 0 Z " fill="#FAFDFC" transform="translate(957.5,405.6875)"/>
<path d="M0 0 C1.12470703 -0.02835937 2.24941406 -0.05671875 3.40820312 -0.0859375 C13.04996067 -0.10834716 20.02586846 2.3565462 27.125 8.9375 C32.9098989 15.29408303 33.75601413 21.13810133 34.1875 29.5 C25.71156955 32.65034583 16.34430006 34.74324428 7.75 30.875 C1.2759912 27.04152895 -1.74231755 21.09520674 -4.8125 14.5 C-6.73493145 14.67538212 -6.73493145 14.67538212 -8.8125 15.5 C-10.27467034 17.44612735 -10.27467034 17.44612735 -11.5 19.8125 C-14.71052258 24.87834969 -17.99014034 27.10149204 -23.8125 28.5 C-26.90311754 28.77628248 -29.69962742 28.6976427 -32.8125 28.5 C-33.47315967 21.36487554 -31.82119261 16.4452591 -27.8125 10.5 C-19.6834761 1.41862183 -11.76486387 -0.02669283 0 0 Z " fill="#FAFDFC" transform="translate(853.8125,506.5)"/>
<path d="M0 0 C1.82337891 -0.04350586 1.82337891 -0.04350586 3.68359375 -0.08789062 C12.05069407 -0.14719941 16.67169145 0.50905013 22.89453125 6.3125 C23.72017578 7.3025 23.72017578 7.3025 24.5625 8.3125 C25.12582031 8.9725 25.68914062 9.6325 26.26953125 10.3125 C29.56183189 14.76014624 29.96416229 17.74428035 29.75 23.3125 C23.65225785 23.94768147 19.55136277 23.36906853 14.48046875 19.81640625 C11.87830539 17.55493245 10.37307848 15.35577215 8.75 12.3125 C8.75 11.6525 8.75 10.9925 8.75 10.3125 C6.36559098 9.99927096 6.36559098 9.99927096 3.75 10.3125 C2.17033774 11.91243171 2.17033774 11.91243171 1 14.0625 C-2.25003763 18.81967944 -5.85556587 20.57647302 -11.25 22.3125 C-11.85070313 22.5084375 -12.45140625 22.704375 -13.0703125 22.90625 C-16.22599947 23.49440671 -19.29418677 23.40468346 -22.5 23.375 C-23.76328125 23.36597656 -25.0265625 23.35695313 -26.328125 23.34765625 C-27.29234375 23.33605469 -28.2565625 23.32445312 -29.25 23.3125 C-29.0769824 16.51762686 -27.71578995 11.54157548 -23.25 6.3125 C-15.91614877 -0.16895186 -9.34626462 0.07339998 0 0 Z " fill="#FBFDFD" transform="translate(1072.25,523.6875)"/>
<path d="M0 0 C1.28777344 0.24363281 1.28777344 0.24363281 2.6015625 0.4921875 C10.68058993 1.69939849 18.95163148 1.26248918 27 0 C27.47970123 1.74985354 27.95873924 3.49988891 28.4375 5.25 C28.70433594 6.22453125 28.97117187 7.1990625 29.24609375 8.203125 C29.85544584 10.46372653 30.44238255 12.72622009 31 15 C29.12971875 16.75528013 27.2540838 18.50418455 25.375 20.25 C24.59189453 20.98669922 24.59189453 20.98669922 23.79296875 21.73828125 C20.38645667 24.8924591 16.9280064 27.52287885 13 30 C10.74822352 28.08538791 8.49854467 26.16840121 6.25 24.25 C5.61578125 23.71117187 4.9815625 23.17234375 4.328125 22.6171875 C1.09241332 19.85335044 -2.04757267 17.07171733 -5 14 C-4.72285156 13.32453125 -4.44570313 12.6490625 -4.16015625 11.953125 C-3.79792969 11.06109375 -3.43570313 10.1690625 -3.0625 9.25 C-2.52302734 7.92742188 -2.52302734 7.92742188 -1.97265625 6.578125 C-1.14643424 4.38813896 -0.50630057 2.28101729 0 0 Z " fill="#FAFDFC" transform="translate(841,603)"/>
<path d="M0 0 C0.70253906 0.16242187 1.40507813 0.32484375 2.12890625 0.4921875 C8.90663609 1.69096965 16.28527265 1.49216163 23 0 C23.4803318 1.58298026 23.95921612 3.16639978 24.4375 4.75 C24.70433594 5.63171875 24.97117187 6.5134375 25.24609375 7.421875 C25.88302113 9.59996864 26.44961145 11.79844581 27 14 C19.575 20.435 19.575 20.435 12 27 C6.41672413 22.91224445 1.14562078 18.62558464 -4 14 C-3.38139249 10.61867932 -2.55327538 7.43780218 -1.4375 4.1875 C-1.16808594 3.39730469 -0.89867187 2.60710938 -0.62109375 1.79296875 C-0.41613281 1.20128906 -0.21117187 0.60960937 0 0 Z " fill="#FAFDFC" transform="translate(1061,610)"/>
<path d="M0 0 C2.875 1.6875 2.875 1.6875 5 4 C5.33 5.65 5.66 7.3 6 9 C-0.27 9 -6.54 9 -13 9 C-12 4 -12 4 -9.875 1.6875 C-6.22304466 -0.45603901 -4.1758776 -0.59655394 0 0 Z " fill="#F5FBFB" transform="translate(1076,507)"/>
<path d="M0 0 C1.50046875 0.00386719 1.50046875 0.00386719 3.03125 0.0078125 C4.0315625 0.00523437 5.031875 0.00265625 6.0625 0 C8.53125 0.1328125 8.53125 0.1328125 9.53125 1.1328125 C9.65625 3.6328125 9.65625 3.6328125 9.53125 6.1328125 C8.53125 7.1328125 8.53125 7.1328125 6.0625 7.265625 C4.56203125 7.26175781 4.56203125 7.26175781 3.03125 7.2578125 C2.0309375 7.26039063 1.030625 7.26296875 0 7.265625 C-2.46875 7.1328125 -2.46875 7.1328125 -3.46875 6.1328125 C-3.59375 3.6328125 -3.59375 3.6328125 -3.46875 1.1328125 C-2.46875 0.1328125 -2.46875 0.1328125 0 0 Z " fill="#06AEC2" transform="translate(1010.46875,453.8671875)"/>
<path d="M0 0 C1.50046875 0.00386719 1.50046875 0.00386719 3.03125 0.0078125 C4.0315625 0.00523437 5.031875 0.00265625 6.0625 0 C8.53125 0.1328125 8.53125 0.1328125 9.53125 1.1328125 C9.57188832 2.79898365 9.573971 4.46669345 9.53125 6.1328125 C7.02985398 7.38351051 5.25732309 7.26583717 2.46875 7.2578125 C1.12103516 7.26167969 1.12103516 7.26167969 -0.25390625 7.265625 C-2.46875 7.1328125 -2.46875 7.1328125 -3.46875 6.1328125 C-3.59375 3.6328125 -3.59375 3.6328125 -3.46875 1.1328125 C-2.46875 0.1328125 -2.46875 0.1328125 0 0 Z " fill="#04ADC2" transform="translate(987.46875,453.8671875)"/>
<path d="M0 0 C1.50046875 0.00386719 1.50046875 0.00386719 3.03125 0.0078125 C4.0315625 0.00523437 5.031875 0.00265625 6.0625 0 C8.53125 0.1328125 8.53125 0.1328125 9.53125 1.1328125 C9.57188832 2.79898365 9.573971 4.46669345 9.53125 6.1328125 C7.02985398 7.38351051 5.25732309 7.26583717 2.46875 7.2578125 C1.12103516 7.26167969 1.12103516 7.26167969 -0.25390625 7.265625 C-2.46875 7.1328125 -2.46875 7.1328125 -3.46875 6.1328125 C-3.59375 3.6328125 -3.59375 3.6328125 -3.46875 1.1328125 C-2.46875 0.1328125 -2.46875 0.1328125 0 0 Z " fill="#04ADC2" transform="translate(964.46875,453.8671875)"/>
</svg>
