<?xml version="1.0" encoding="UTF-8"?>
<svg version="1.1" xmlns="http://www.w3.org/2000/svg" width="1300" height="950">
<path d="M0 0 C633.6 0 1267.2 0 1920 0 C1920 356.4 1920 712.8 1920 1080 C1286.4 1080 652.8 1080 0 1080 C0 723.6 0 367.2 0 0 Z " fill="#FEFEFE" transform="translate(0,0)"/>
<path d="M0 0 C1.18003601 0.00090637 1.18003601 0.00090637 2.38391113 0.00183105 C72.09163893 0.14635782 140.20209482 23.27258879 194.625 67.1875 C195.635625 67.98671875 196.64625 68.7859375 197.6875 69.609375 C214.08180162 82.74344619 229.69528012 97.61984818 242.625 114.1875 C243.51491374 115.25667452 244.40835713 116.32291778 245.3046875 117.38671875 C259.75715257 134.69459331 271.44815208 154.11122182 281.625 174.1875 C282.05619141 175.03505859 282.48738281 175.88261719 282.93164062 176.75585938 C301.19592819 213.25637876 312.55864492 255.8809592 312.86328125 296.73828125 C312.87302979 297.82263458 312.88277832 298.90698792 312.89282227 300.02420044 C313.05496204 322.71708024 313.18678153 344.86974664 308.625 367.1875 C308.43776367 368.14881836 308.25052734 369.11013672 308.05761719 370.10058594 C306.78843318 376.52103493 305.28233445 382.85700707 303.625 389.1875 C303.38442871 390.12303711 303.14385742 391.05857422 302.89599609 392.02246094 C290.15182177 440.81912584 264.71325823 486.01426995 230.09375 522.6171875 C228.65611664 524.15423168 227.24588598 525.7118137 225.84375 527.28125 C215.4695989 538.8785137 204.04746091 548.83705898 191.625 558.1875 C190.95227051 558.69539062 190.27954102 559.20328125 189.58642578 559.7265625 C163.70862929 579.14238209 135.90267876 594.61776739 105.29980469 605.25585938 C102.87091016 606.10184893 100.45447388 606.97581773 98.0390625 607.859375 C85.200629 612.46257181 71.99050406 615.54319109 58.625 618.1875 C57.56023437 618.40212891 56.49546875 618.61675781 55.3984375 618.83789062 C20.09022313 625.60315068 -20.16459177 625.41834698 -55.375 618.1875 C-56.56657715 617.94612305 -57.7581543 617.70474609 -58.98583984 617.45605469 C-108.76290885 607.04901462 -154.84429727 585.13640607 -194.375 553.1875 C-194.94911621 552.72907715 -195.52323242 552.2706543 -196.11474609 551.79833984 C-204.27989121 545.2343899 -211.75591938 538.00203214 -219.1875 530.625 C-220.05922852 529.76261719 -220.93095703 528.90023437 -221.82910156 528.01171875 C-227.03352313 522.78154252 -231.82497024 517.35825078 -236.4387207 511.60083008 C-238.57469057 508.93861067 -240.81457881 506.38036561 -243.0625 503.8125 C-287.5931157 450.41731384 -309.5756112 379.27013217 -309.625 310.5 C-309.62567474 309.64711395 -309.62634949 308.79422791 -309.62704468 307.91549683 C-309.53285317 232.42936367 -279.97474913 158.98414833 -229.375 103.1875 C-228.84068359 102.59678711 -228.30636719 102.00607422 -227.75585938 101.39746094 C-219.70339669 92.52222546 -211.55615992 83.90930888 -202.375 76.1875 C-201.83230469 75.73101074 -201.28960938 75.27452148 -200.73046875 74.80419922 C-171.6617869 50.4739615 -139.13145485 30.96122828 -103.375 18.1875 C-102.46975586 17.86410645 -101.56451172 17.54071289 -100.63183594 17.20751953 C-94.58465609 15.0734136 -88.50175994 13.08035986 -82.375 11.1875 C-81.63491699 10.95579102 -80.89483398 10.72408203 -80.13232422 10.48535156 C-69.28805464 7.1580492 -58.24882817 5.20022539 -47.0625 3.4375 C-46.38867279 3.3304071 -45.71484558 3.22331421 -45.02059937 3.11297607 C-30.00137273 0.75288056 -15.17135918 -0.02168599 0 0 Z " fill="#6D4C41" transform="translate(958.375,228.8125)"/>
<path d="M0 0 C4.59353016 1.87917143 7.08260416 5.11013888 10 9 C10.8980547 11.69416411 11.16262383 13.34881956 11.1875 16.125 C11.20167969 16.82882812 11.21585938 17.53265625 11.23046875 18.2578125 C10.89680324 22.22786657 9.864262 26.11082101 9 30 C23.85 30.33 38.7 30.66 54 31 C54.33 45.19 54.66 59.38 55 74 C59.60532389 75.45314664 59.60532389 75.45314664 62 74 C68.2574482 73.46832139 73.67207604 73.32119536 79 77 C83.0846116 80.63076586 84.7833139 82.74646456 85.3125 88.25 C84.93790449 92.74514607 83.82194965 95.51151622 81 99 C75.28764004 103.52228497 71.20267153 104.3858574 64 104 C62.66666667 103.33333333 61.33333333 102.66666667 60 102 C58.35 102.33 56.7 102.66 55 103 C54.67 117.52 54.34 132.04 54 147 C39.61376707 147.1129054 25.22782781 147.20466176 10.84125233 147.25906086 C4.16115151 147.28516814 -2.51856894 147.3205878 -9.19848633 147.37719727 C-15.64349313 147.43147493 -22.08819333 147.46141207 -28.53341103 147.47438622 C-30.99385722 147.48363356 -33.45428641 147.50169128 -35.91460228 147.52865028 C-39.35774534 147.56488236 -42.79961728 147.56994754 -46.24291992 147.56762695 C-47.77285332 147.59459152 -47.77285332 147.59459152 -49.33369446 147.62210083 C-54.03181832 147.58777877 -56.271263 147.53947013 -60.13684082 144.67785645 C-62.57974255 141.1667554 -62.57579482 138.98362835 -62.48828125 134.73046875 C-62.47766914 133.70896477 -62.47766914 133.70896477 -62.46684265 132.66682434 C-62.43900069 130.50590005 -62.37629527 128.34763178 -62.3125 126.1875 C-62.28740332 124.71683448 -62.26459253 123.24612807 -62.24414062 121.77539062 C-62.18921188 118.18274043 -62.10301647 114.59162972 -62 111 C-61.04158203 110.94666504 -60.08316406 110.89333008 -59.09570312 110.83837891 C-57.83693359 110.76022949 -56.57816406 110.68208008 -55.28125 110.6015625 C-54.03408203 110.52760254 -52.78691406 110.45364258 -51.50195312 110.37744141 C-44.1134333 109.58110484 -39.83200816 106.44157428 -35.2265625 100.78125 C-31.28452547 95.05650833 -31.41430687 89.81783413 -32 83 C-34.10151541 76.91666593 -38.60679342 72.43204055 -44 69 C-50.24245002 66.03483624 -54.33563685 67 -62 67 C-62 55.12 -62 43.24 -62 31 C-39.725 30.505 -39.725 30.505 -17 30 C-17.66 27.36 -18.32 24.72 -19 22 C-19.64922227 16.04739066 -19.54550703 11.03233256 -16 6 C-11.33832709 0.5171652 -7.16653796 -1.3386552 0 0 Z " fill="#FEFEFD" transform="translate(852,547)"/>
<path d="M0 0 C4.42054591 1.39550567 7.11721427 3.61723373 9.4375 7.625 C12.04244674 13.6030188 11.39324265 19.7597647 10.4375 26.0625 C10.293125 27.031875 10.14875 28.00125 10 29 C11.52791083 30.52791083 12.92989408 30.16183457 15.06079102 30.20532227 C16.35201622 30.2352401 16.35201622 30.2352401 17.66932678 30.26576233 C18.60473801 30.28247482 19.54014923 30.29918732 20.50390625 30.31640625 C21.45692123 30.33718735 22.40993622 30.35796844 23.39183044 30.37937927 C26.4486441 30.44498177 29.50554656 30.50380918 32.5625 30.5625 C34.62956663 30.60567506 36.69662414 30.64928901 38.76367188 30.69335938 C43.84235595 30.80067401 48.9211297 30.90191091 54 31 C54.07004827 45.55113854 54.12276823 60.10225098 54.15543652 74.65352345 C54.17091241 81.40977931 54.19201557 88.16593047 54.22631836 94.92211914 C54.25938735 101.43840329 54.27683794 107.95461939 54.28463173 114.47098351 C54.29018814 116.96096195 54.30103796 119.45093422 54.31719017 121.94086647 C54.33886869 125.42010147 54.3419709 128.89888251 54.34057617 132.37817383 C54.351362 133.41467072 54.36214783 134.4511676 54.3732605 135.51907349 C54.36913651 136.46558273 54.36501251 137.41209198 54.36076355 138.38728333 C54.36352893 139.21044446 54.36629431 140.03360559 54.36914349 140.88171101 C53.9105998 143.51301314 53.06358755 144.35911869 51 146 C48.62443706 147.18778147 47.19575841 147.12324578 44.54550171 147.12025452 C43.60878128 147.12162918 42.67206085 147.12300385 41.70695496 147.12442017 C40.67621353 147.12082489 39.64547211 147.11722961 38.58349609 147.11352539 C37.50055771 147.11367142 36.41761932 147.11381744 35.30186462 147.1139679 C31.70903547 147.11326915 28.11625764 147.10547852 24.5234375 147.09765625 C22.03764881 147.09579193 19.55185975 147.0943681 17.06607056 147.09336853 C11.18353603 147.08993565 5.30102057 147.08204773 -0.58150613 147.07201904 C-7.93454246 147.05975492 -15.28758107 147.05437626 -22.640625 147.04882812 C-35.76042793 147.03809268 -48.88020868 147.02049672 -62 147 C-62 135.12 -62 123.24 -62 111 C-57.38 110.67 -52.76 110.34 -48 110 C-40.27698514 107.03774773 -35.20746209 102.71282671 -31.734375 95.09765625 C-29.73838235 89.39633681 -30.63985432 85.21932988 -33 79.875 C-36.74706406 72.95570558 -41.83570229 69.86571908 -49 67 C-52.96 66.67 -56.92 66.34 -61 66 C-61 54.45 -61 42.9 -61 31 C-46.81 30.67 -32.62 30.34 -18 30 C-16.94403413 24.72017066 -17.17842472 24.50036246 -19 20 C-19.75708906 13.31237997 -17.81988273 8.54842386 -13.71484375 3.3828125 C-9.58656071 -0.68797356 -5.42336166 -0.99207835 0 0 Z " fill="#FEFEFD" transform="translate(975,547)"/>
<path d="M0 0 C0.9549234 -0.00412399 1.9098468 -0.00824799 2.89370728 -0.01249695 C4.46247871 0.00368179 4.46247871 0.00368179 6.0629425 0.02018738 C7.16553406 0.0197493 8.26812561 0.01931122 9.40412903 0.01885986 C13.05661085 0.02095357 16.70863636 0.04431266 20.36103821 0.0677948 C22.89023589 0.07338867 25.41943682 0.07765975 27.94863892 0.08065796 C33.93038766 0.09095064 39.91193987 0.11460617 45.89360982 0.14470643 C52.70368379 0.17823182 59.51376559 0.19473174 66.32390153 0.20979273 C80.33248191 0.24115539 94.3408549 0.29617483 108.34931946 0.36076355 C108.67931946 14.55076355 109.00931946 28.74076355 109.34931946 43.36076355 C113.10911591 44.72359529 113.10911591 44.72359529 115.59931946 43.42326355 C120.83762674 41.3993721 125.48253644 41.7012863 130.53681946 43.92326355 C134.65089797 46.23591123 137.43418065 49.0186055 139.34931946 53.36076355 C140.30796875 57.67044357 139.70826949 61.19309006 137.72431946 65.11076355 C135.38040417 68.63066382 133.30299514 70.62669527 129.34931946 72.36076355 C122.51151946 72.97757541 116.14219388 72.33117418 109.34931946 71.36076355 C109.01931946 85.88076355 108.68931946 100.40076355 108.34931946 115.36076355 C96.46931946 115.36076355 84.58931946 115.36076355 72.34931946 115.36076355 C72.34931946 111.73076355 72.34931946 108.10076355 72.34931946 104.36076355 C69.77176161 97.00995042 66.60596698 90.99576423 59.66181946 86.98576355 C54.24806927 84.55926158 48.77901799 84.29534236 43.11103821 86.05607605 C35.82071481 89.32367863 32.90561996 94.24816255 29.34931946 101.36076355 C29.01931946 105.98076355 28.68931946 110.60076355 28.34931946 115.36076355 C16.46931946 115.36076355 4.58931946 115.36076355 -7.65068054 115.36076355 C-7.71837331 100.80959493 -7.77344873 86.25853035 -7.80611706 71.7072401 C-7.82159296 64.95098424 -7.84269611 58.19483308 -7.8769989 51.43864441 C-7.9100679 44.92236026 -7.92751848 38.40614416 -7.93531227 31.88978004 C-7.94086868 29.3998016 -7.9517185 26.90982933 -7.96787071 24.41989708 C-7.98954923 20.94066208 -7.99265144 17.46188104 -7.99125671 13.98258972 C-8.00743546 12.42784439 -8.00743546 12.42784439 -8.02394104 10.84169006 C-8.01981705 9.89518082 -8.01569305 8.94867157 -8.01144409 7.97348022 C-8.01420947 7.15031909 -8.01697485 6.32715796 -8.01982403 5.47905254 C-7.65068054 3.36076355 -7.65068054 3.36076355 -6.41880035 1.59501648 C-4.13568685 0.00126728 -2.77412239 -0.00923681 0 0 Z " fill="#FEFEFD" transform="translate(797.6506805419922,454.6392364501953)"/>
<path d="M0 0 C3.63260345 1.36472823 6.90961407 2.9980116 10.26171875 4.94921875 C11.79602539 5.83867187 11.79602539 5.83867187 13.36132812 6.74609375 C14.45896484 7.38675781 15.55660156 8.02742188 16.6875 8.6875 C17.84940348 9.3623338 19.01151671 10.03680656 20.17382812 10.7109375 C22.5872404 12.11107089 24.9997446 13.51275019 27.41162109 14.91552734 C32.93267135 18.12491306 38.4671054 21.31109446 44 24.5 C46.14976603 25.7408396 48.29950548 26.98172525 50.44921875 28.22265625 C54.36666226 30.48301467 58.2860953 32.73984086 62.20828247 34.99195862 C94.57968329 53.57968329 94.57968329 53.57968329 98 57 C98.58868834 61.99340998 97.35384096 64.83813769 94.82421875 69.09765625 C94.16099609 70.22880859 93.49777344 71.35996094 92.81445312 72.52539062 C92.105752 73.70459736 91.39676509 74.88363239 90.6875 76.0625 C89.98904356 77.24474 89.29176625 78.42767744 88.59570312 79.61132812 C83.75289355 87.81369062 83.75289355 87.81369062 81.28833008 91.69702148 C79.80523516 94.34815554 79.7436618 96.00938765 80 99 C81.08667969 99.12955078 81.08667969 99.12955078 82.1953125 99.26171875 C88.65789412 100.20094728 92.6068432 101.0576986 97 106 C99.95674066 111.22357517 100.56611956 115.15009787 100 121 C98.12154533 125.59177808 95.45860742 127.88802807 91 130 C85.37951168 130.76327619 80.65235243 130.79666992 75.5 128.3125 C73.03305922 126.03057978 70.96658729 123.72296701 69 121 C66.61239973 121.08161056 66.61239973 121.08161056 64 122 C62.02625962 124.36841689 62.02625962 124.36841689 60.44140625 127.43359375 C59.80783203 128.55830078 59.17425781 129.68300781 58.52148438 130.84179688 C57.86793082 132.04005999 57.21493878 133.23862954 56.5625 134.4375 C55.27282551 136.74908307 53.98246997 139.06028631 52.69140625 141.37109375 C52.07410645 142.48726074 51.45680664 143.60342773 50.82080078 144.75341797 C48.3109925 149.22853603 45.67752874 153.62364267 43 158 C32.33423363 152.89230007 22.18584675 146.99562884 12 141 C12.93438087 138.5840783 13.88007099 136.23197947 15.0703125 133.9296875 C18.44406093 127.35712574 19.43549146 120.92653875 17.33984375 113.734375 C14.62806568 107.58298231 10.10057394 103.45133248 4.0625 100.625 C-3.32954307 99.11641978 -7.99340334 99.79303232 -14.59765625 103.375 C-19.85967167 106.93434702 -24.25268934 111.78733987 -26 118 C-29.97275304 116.52908578 -33.51552627 114.6510734 -37.17578125 112.5234375 C-37.74580368 112.19332672 -38.31582611 111.86321594 -38.90312195 111.52310181 C-40.70808352 110.47685993 -42.51031402 109.42601425 -44.3125 108.375 C-45.54213964 107.66115152 -46.77195562 106.94760669 -48.00195312 106.234375 C-51.00334992 104.49309126 -54.00231667 102.74767064 -57 101 C-56.40718499 96.88026346 -55.04164847 93.94760196 -52.9453125 90.3671875 C-52.33042969 89.31402344 -51.71554687 88.26085937 -51.08203125 87.17578125 C-50.43621094 86.08652344 -49.79039062 84.99726563 -49.125 83.875 C-48.48691406 82.77800781 -47.84882812 81.68101562 -47.19140625 80.55078125 C-41.98158022 71.68646348 -41.98158022 71.68646348 -39 69 C-38.18595703 69.52400391 -38.18595703 69.52400391 -37.35546875 70.05859375 C-36.64003906 70.51363281 -35.92460938 70.96867187 -35.1875 71.4375 C-34.47980469 71.88996094 -33.77210938 72.34242188 -33.04296875 72.80859375 C-27.24664126 76.18886122 -19.74834744 75.98050942 -13.38671875 74.31640625 C-7.36043501 71.87550813 -3.69106344 68.60919548 -0.89453125 62.640625 C1.05828034 56.8759934 0.96675654 50.34931906 -1.5 44.75 C-4.99616555 38.69080918 -10.89686387 34.24229107 -17 31 C-15.70075769 26.70904474 -14.04986828 23.05939301 -11.77734375 19.19921875 C-10.84631836 17.61077148 -10.84631836 17.61077148 -9.89648438 15.99023438 C-9.25001953 14.90033203 -8.60355469 13.81042969 -7.9375 12.6875 C-7.28716797 11.57826172 -6.63683594 10.46902344 -5.96679688 9.32617188 C-1.16269066 1.16269066 -1.16269066 1.16269066 0 0 Z " fill="#FEFEFC" transform="translate(1030,387)"/>
</svg>
