<?xml version="1.0" encoding="UTF-8"?>
<svg xmlns="http://www.w3.org/2000/svg" width="1300" height="950">
<path d="M0 0 C633.6 0 1267.2 0 1920 0 C1920 356.4 1920 712.8 1920 1080 C1286.4 1080 652.8 1080 0 1080 C0 723.6 0 367.2 0 0 Z " fill="#FEFEFE" transform="translate(0,0)"/>
<path d="M0 0 C0.81197845 0.00060425 1.62395691 0.0012085 2.46054077 0.00183105 C15.74763486 0.02856532 28.87335966 0.45310389 42.0625 2.1875 C42.98611328 2.30577148 43.90972656 2.42404297 44.86132812 2.54589844 C104.05059844 10.45255487 159.60918133 36.69678295 204.47827148 75.80810547 C205.60826326 76.79199413 206.743821 77.76950546 207.88305664 78.74267578 C213.31583949 83.41863627 218.43504647 88.36746831 223.5 93.4375 C224.33966309 94.27796875 225.17932617 95.1184375 226.04443359 95.984375 C231.79801906 101.79512642 237.06636751 107.71218129 242.0625 114.1875 C243.49809748 115.89743243 244.93568199 117.60569811 246.375 119.3125 C276.8797809 156.8365471 296.58060017 201.92987581 306.75 249 C306.94045898 249.86246338 307.13091797 250.72492676 307.32714844 251.61352539 C311.1576632 270.22294155 312.56370073 288.87404947 312.45361328 307.84155273 C312.43752108 311.12070378 312.45358737 314.3986199 312.47265625 317.67773438 C312.49294928 337.28757018 310.72116089 356.77527727 306.4375 375.9375 C306.05899902 377.653927 306.05899902 377.653927 305.67285156 379.4050293 C300.69255339 401.18124981 293.63761587 422.01597036 284.0625 442.1875 C283.62679687 443.11643066 283.19109375 444.04536133 282.7421875 445.00244141 C276.43718488 458.35678722 269.30912255 470.93938527 261.0625 483.1875 C260.56073242 483.93402832 260.05896484 484.68055664 259.54199219 485.44970703 C252.9330047 495.20593262 245.84661944 504.34643144 238.0625 513.1875 C237.46179687 513.88746094 236.86109375 514.58742188 236.2421875 515.30859375 C234.53764326 517.28899419 232.80595053 519.24123992 231.0625 521.1875 C230.20398437 522.15042969 229.34546875 523.11335937 228.4609375 524.10546875 C217.92480266 535.7964919 206.51509755 546.54878529 194.0625 556.1875 C193.41780762 556.68830078 192.77311523 557.18910156 192.10888672 557.70507812 C137.17737413 600.08903728 71.03789224 622.68646004 1.8125 622.5625 C0.6176297 622.56162384 -0.5772406 622.56074768 -1.80831909 622.55984497 C-20.1699648 622.51545867 -37.89789892 621.88296534 -55.9375 618.1875 C-57.113125 617.95144043 -58.28875 617.71538086 -59.5 617.47216797 C-85.23785172 612.14105045 -110.35668012 603.82878603 -133.9375 592.1875 C-134.77120117 591.77951172 -135.60490234 591.37152344 -136.46386719 590.95117188 C-155.4286459 581.58673157 -173.5390716 570.57954986 -189.9375 557.1875 C-190.88625 556.42953125 -191.835 555.6715625 -192.8125 554.890625 C-202.91348274 546.75372223 -212.32838014 537.97738098 -221.5 528.8125 C-222.38107422 527.94367187 -223.26214844 527.07484375 -224.16992188 526.1796875 C-230.19741078 520.16554359 -235.66769257 513.87199113 -240.9375 507.1875 C-241.51282471 506.4661084 -242.08814941 505.7447168 -242.6809082 505.00146484 C-293.66223465 440.67886533 -317.86644777 357.67159408 -308.8125 275.9375 C-302.26547947 223.29945492 -282.86162608 173.25174094 -251.9375 130.1875 C-251.45522949 129.51299805 -250.97295898 128.83849609 -250.47607422 128.14355469 C-243.95777669 119.08116412 -237.0170712 110.70848154 -229.30859375 102.63964844 C-227.2401777 100.44895423 -225.24806943 98.19226585 -223.25 95.9375 C-216.59153866 88.52184901 -209.56096012 81.60578076 -201.9375 75.1875 C-200.7928125 74.20910156 -200.7928125 74.20910156 -199.625 73.2109375 C-163.51608904 42.93669813 -121.35293818 21.54137499 -75.9375 9.1875 C-75.02597168 8.93693848 -74.11444336 8.68637695 -73.17529297 8.42822266 C-65.56605355 6.42444347 -57.89858488 5.06835001 -50.12939453 3.87988281 C-48.07052816 3.56373277 -46.01382686 3.23557253 -43.95703125 2.90625 C-29.31176508 0.60262456 -14.79822367 -0.02046178 0 0 Z " fill="#29B5F5" transform="translate(958.9375,228.8125)"/>
<path d="M0 0 C1.04607422 -0.04576172 2.09214844 -0.09152344 3.16992188 -0.13867188 C10.58537808 -0.2472368 10.58537808 -0.2472368 13.45581055 1.53613281 C16.73227796 5.12582302 17.81355285 9.4366299 18.875 14.0625 C19.99998971 20.09385962 19.99998971 20.09385962 22.6875 25.4375 C25.12759235 26.73635298 27.3770495 27.76955878 29.9375 28.75 C30.59363281 29.02650391 31.24976563 29.30300781 31.92578125 29.58789062 C36.28254454 31.30720974 39.20940167 31.83542488 43.6875 30.4375 C46.71296742 28.81131126 49.58562975 27.07870535 52.4765625 25.23242188 C56.38501709 22.85205251 59.11550601 21.73068756 63.6875 22.4375 C65.7421875 23.6875 65.7421875 23.6875 67.5625 25.4375 C68.23152344 26.076875 68.90054687 26.71625 69.58984375 27.375 C70.62818359 28.3959375 70.62818359 28.3959375 71.6875 29.4375 C72.43128906 30.0975 73.17507813 30.7575 73.94140625 31.4375 C77.16429404 34.38941154 79.37415905 36.68263316 81.0625 40.75 C80.40072678 47.25743663 76.65412083 52.59582311 72.984375 57.8984375 C71.376671 61.04605076 71.30057797 62.93720535 71.6875 66.4375 C72.66343677 69.31912819 72.66343677 69.31912819 74.0625 72.0625 C74.50335937 72.98289062 74.94421875 73.90328125 75.3984375 74.8515625 C75.82382813 75.70492187 76.24921875 76.55828125 76.6875 77.4375 C76.90019531 78.15550781 77.11289063 78.87351562 77.33203125 79.61328125 C79.64574619 82.72712816 83.39510707 83.10555288 87 84 C98.10359589 86.85359589 98.10359589 86.85359589 101.6875 90.4375 C101.77498207 92.36417507 101.79447334 94.29401861 101.78515625 96.22265625 C101.78193359 97.39248047 101.77871094 98.56230469 101.77539062 99.76757812 C101.76701172 100.99927734 101.75863281 102.23097656 101.75 103.5 C101.74548828 104.73556641 101.74097656 105.97113281 101.73632812 107.24414062 C101.72449608 110.30864117 101.70801173 113.37304721 101.6875 116.4375 C97.28083859 119.23126573 93.70509348 120.8422238 88.5847168 121.75317383 C82.08920623 122.79173845 82.08920623 122.79173845 76.8671875 126.4453125 C75.86827177 128.76562858 75.25500613 130.97969771 74.6875 133.4375 C74.10453295 134.65620268 73.50175289 135.86572616 72.875 137.0625 C71.37541199 141.32448697 71.40143381 143.07916458 72.6875 147.4375 C73.81780831 149.4582707 74.98862339 151.45664009 76.1875 153.4375 C81.21908458 161.83043362 81.21908458 161.83043362 80.6875 166.4375 C78.73075581 169.4996776 76.26413338 171.89348223 73.6875 174.4375 C72.96433594 175.26507812 72.24117187 176.09265625 71.49609375 176.9453125 C70.75488281 177.76773438 70.01367188 178.59015625 69.25 179.4375 C68.57066406 180.200625 67.89132812 180.96375 67.19140625 181.75 C64.33583662 183.67450246 62.21907072 184.04237669 58.78588867 183.86376953 C55.02244438 183.09925834 52.17139907 181.04542435 49.0625 178.875 C44.29283066 175.40120373 44.29283066 175.40120373 38.64453125 174.53125 C37.66871094 174.8303125 36.69289063 175.129375 35.6875 175.4375 C34.04201172 175.88802734 34.04201172 175.88802734 32.36328125 176.34765625 C26.22887241 178.23115547 26.22887241 178.23115547 21.3203125 182.08984375 C20.52730429 184.19710714 20.10694436 186.22396168 19.6875 188.4375 C19.04245878 190.69379481 18.37426824 192.94355396 17.6875 195.1875 C17.378125 196.27546875 17.06875 197.3634375 16.75 198.484375 C15.68173545 201.45352207 14.86701282 203.17749635 12.6875 205.4375 C8.59361461 206.28658776 4.42158598 206.03977395 0.25 206 C-0.89533203 206.02384766 -2.04066406 206.04769531 -3.22070312 206.07226562 C-11.51643579 206.05770319 -11.51643579 206.05770319 -14.96484375 203.37109375 C-16.53182051 199.96008057 -17.60714062 196.58386074 -18.4375 192.9375 C-19.8447951 186.49735002 -19.8447951 186.49735002 -22.3125 180.4375 C-24.22194445 179.30323267 -24.22194445 179.30323267 -26.5 178.8125 C-29.51716101 177.96982582 -32.24714719 177.06114467 -35.0625 175.6875 C-38.73194366 174.27617551 -39.64106611 174.31713407 -43.3125 175.4375 C-46.26439557 177.0879097 -49.12170112 178.81484357 -51.96484375 180.64257812 C-56.31379574 183.2854028 -59.28315814 184.4803009 -64.3125 183.4375 C-67.68544685 181.10053513 -70.46036058 178.31216913 -73.3125 175.375 C-74.49392578 174.24674805 -74.49392578 174.24674805 -75.69921875 173.09570312 C-81.22458405 167.5269449 -81.22458405 167.5269449 -81.6015625 162.85546875 C-79.79375609 158.06204267 -77.22776565 154.09539374 -74.375 149.8671875 C-71.95188358 146.19466313 -71.95188358 146.19466313 -71.4296875 141.94140625 C-71.72101562 141.11511719 -72.01234375 140.28882813 -72.3125 139.4375 C-72.53421875 138.26316406 -72.7559375 137.08882812 -72.984375 135.87890625 C-74.06627603 131.59941092 -75.24719474 127.71659658 -78.3125 124.4375 C-84.1056046 121.33180367 -90.71059656 120.18204316 -97.1394043 119.09082031 C-99.74190443 118.30840369 -100.76232941 117.67296408 -102.3125 115.4375 C-102.98417961 111.32346238 -102.82183877 107.16275487 -102.8125 103 C-102.84085938 101.85466797 -102.86921875 100.70933594 -102.8984375 99.52929688 C-102.91776762 91.27050413 -102.91776762 91.27050413 -100.37109375 87.765625 C-97.03905018 86.31876061 -93.98711849 85.6652808 -90.41943359 85.0703125 C-82.93806351 83.91913114 -82.93806351 83.91913114 -76.86181641 79.82666016 C-74.4111711 75.63197044 -73.28854914 71.16363269 -72.3125 66.4375 C-72.01859375 65.60992187 -71.7246875 64.78234375 -71.421875 63.9296875 C-71.24757473 59.95813137 -73.54753845 57.23422872 -75.6875 54.0625 C-81.76729146 44.99808364 -81.76729146 44.99808364 -81.3125 39.4375 C-79.03129877 36.02736074 -76.21602486 33.31639626 -73.25 30.5 C-72.48494141 29.72076172 -71.71988281 28.94152344 -70.93164062 28.13867188 C-65.20287534 22.53753975 -65.20287534 22.53753975 -61.28564453 22.09741211 C-58.3811312 22.42964951 -56.8498902 22.88607517 -54.40234375 24.40625 C-53.72236328 24.81230469 -53.04238281 25.21835937 -52.34179688 25.63671875 C-51.65150391 26.06597656 -50.96121094 26.49523437 -50.25 26.9375 C-44.2556492 30.95446345 -44.2556492 30.95446345 -37.3125 31.4375 C-35.33077114 30.6732657 -35.33077114 30.6732657 -33.5 29.5625 C-29.5947192 27.31425732 -25.67663439 26.44986973 -21.3125 25.4375 C-21.07015625 24.20773437 -20.8278125 22.97796875 -20.578125 21.7109375 C-20.2402722 20.07798232 -19.90169192 18.44517754 -19.5625 16.8125 C-19.40523437 16.00425781 -19.24796875 15.19601562 -19.0859375 14.36328125 C-17.9945703 9.20027487 -16.62693513 5.57401944 -13.3125 1.4375 C-9.32510829 -0.55619586 -4.38474905 0.07748795 0 0 Z " fill="#FDFEFD" transform="translate(960.3125,381.5625)"/>
<path d="M0 0 C1.04607422 -0.04576172 2.09214844 -0.09152344 3.16992188 -0.13867188 C10.58537808 -0.2472368 10.58537808 -0.2472368 13.45581055 1.53613281 C16.73227796 5.12582302 17.81355285 9.4366299 18.875 14.0625 C19.99998971 20.09385962 19.99998971 20.09385962 22.6875 25.4375 C25.12759235 26.73635298 27.3770495 27.76955878 29.9375 28.75 C30.59363281 29.02650391 31.24976563 29.30300781 31.92578125 29.58789062 C36.28254454 31.30720974 39.20940167 31.83542488 43.6875 30.4375 C46.71296742 28.81131126 49.58562975 27.07870535 52.4765625 25.23242188 C56.38501709 22.85205251 59.11550601 21.73068756 63.6875 22.4375 C65.7421875 23.6875 65.7421875 23.6875 67.5625 25.4375 C68.23152344 26.076875 68.90054687 26.71625 69.58984375 27.375 C70.62818359 28.3959375 70.62818359 28.3959375 71.6875 29.4375 C72.43128906 30.0975 73.17507813 30.7575 73.94140625 31.4375 C77.16429404 34.38941154 79.37415905 36.68263316 81.0625 40.75 C80.40072678 47.25743663 76.65412083 52.59582311 72.984375 57.8984375 C71.376671 61.04605076 71.30057797 62.93720535 71.6875 66.4375 C72.66343677 69.31912819 72.66343677 69.31912819 74.0625 72.0625 C74.50335937 72.98289062 74.94421875 73.90328125 75.3984375 74.8515625 C75.82382813 75.70492187 76.24921875 76.55828125 76.6875 77.4375 C76.90019531 78.15550781 77.11289063 78.87351562 77.33203125 79.61328125 C79.64574619 82.72712816 83.39510707 83.10555288 87 84 C98.10359589 86.85359589 98.10359589 86.85359589 101.6875 90.4375 C101.77498207 92.36417507 101.79447334 94.29401861 101.78515625 96.22265625 C101.78193359 97.39248047 101.77871094 98.56230469 101.77539062 99.76757812 C101.76701172 100.99927734 101.75863281 102.23097656 101.75 103.5 C101.74548828 104.73556641 101.74097656 105.97113281 101.73632812 107.24414062 C101.72449608 110.30864117 101.70801173 113.37304721 101.6875 116.4375 C97.28083859 119.23126573 93.70509348 120.8422238 88.5847168 121.75317383 C82.08920623 122.79173845 82.08920623 122.79173845 76.8671875 126.4453125 C75.86827177 128.76562858 75.25500613 130.97969771 74.6875 133.4375 C74.10453295 134.65620268 73.50175289 135.86572616 72.875 137.0625 C71.37541199 141.32448697 71.40143381 143.07916458 72.6875 147.4375 C73.81780831 149.4582707 74.98862339 151.45664009 76.1875 153.4375 C81.21908458 161.83043362 81.21908458 161.83043362 80.6875 166.4375 C78.73075581 169.4996776 76.26413338 171.89348223 73.6875 174.4375 C72.96433594 175.26507812 72.24117187 176.09265625 71.49609375 176.9453125 C70.75488281 177.76773438 70.01367188 178.59015625 69.25 179.4375 C68.57066406 180.200625 67.89132812 180.96375 67.19140625 181.75 C64.33583662 183.67450246 62.21907072 184.04237669 58.78588867 183.86376953 C55.02244438 183.09925834 52.17139907 181.04542435 49.0625 178.875 C44.29283066 175.40120373 44.29283066 175.40120373 38.64453125 174.53125 C37.66871094 174.8303125 36.69289063 175.129375 35.6875 175.4375 C34.04201172 175.88802734 34.04201172 175.88802734 32.36328125 176.34765625 C26.22887241 178.23115547 26.22887241 178.23115547 21.3203125 182.08984375 C20.52730429 184.19710714 20.10694436 186.22396168 19.6875 188.4375 C19.04245878 190.69379481 18.37426824 192.94355396 17.6875 195.1875 C17.378125 196.27546875 17.06875 197.3634375 16.75 198.484375 C15.68173545 201.45352207 14.86701282 203.17749635 12.6875 205.4375 C8.59361461 206.28658776 4.42158598 206.03977395 0.25 206 C-0.89533203 206.02384766 -2.04066406 206.04769531 -3.22070312 206.07226562 C-11.51643579 206.05770319 -11.51643579 206.05770319 -14.96484375 203.37109375 C-16.53182051 199.96008057 -17.60714062 196.58386074 -18.4375 192.9375 C-19.8447951 186.49735002 -19.8447951 186.49735002 -22.3125 180.4375 C-24.22194445 179.30323267 -24.22194445 179.30323267 -26.5 178.8125 C-29.51716101 177.96982582 -32.24714719 177.06114467 -35.0625 175.6875 C-38.73194366 174.27617551 -39.64106611 174.31713407 -43.3125 175.4375 C-46.26439557 177.0879097 -49.12170112 178.81484357 -51.96484375 180.64257812 C-56.31379574 183.2854028 -59.28315814 184.4803009 -64.3125 183.4375 C-67.68544685 181.10053513 -70.46036058 178.31216913 -73.3125 175.375 C-74.49392578 174.24674805 -74.49392578 174.24674805 -75.69921875 173.09570312 C-81.22458405 167.5269449 -81.22458405 167.5269449 -81.6015625 162.85546875 C-79.79375609 158.06204267 -77.22776565 154.09539374 -74.375 149.8671875 C-71.95188358 146.19466313 -71.95188358 146.19466313 -71.4296875 141.94140625 C-71.72101562 141.11511719 -72.01234375 140.28882813 -72.3125 139.4375 C-72.53421875 138.26316406 -72.7559375 137.08882812 -72.984375 135.87890625 C-74.06627603 131.59941092 -75.24719474 127.71659658 -78.3125 124.4375 C-84.1056046 121.33180367 -90.71059656 120.18204316 -97.1394043 119.09082031 C-99.74190443 118.30840369 -100.76232941 117.67296408 -102.3125 115.4375 C-102.98417961 111.32346238 -102.82183877 107.16275487 -102.8125 103 C-102.84085938 101.85466797 -102.86921875 100.70933594 -102.8984375 99.52929688 C-102.91776762 91.27050413 -102.91776762 91.27050413 -100.37109375 87.765625 C-97.03905018 86.31876061 -93.98711849 85.6652808 -90.41943359 85.0703125 C-82.93806351 83.91913114 -82.93806351 83.91913114 -76.86181641 79.82666016 C-74.4111711 75.63197044 -73.28854914 71.16363269 -72.3125 66.4375 C-72.01859375 65.60992187 -71.7246875 64.78234375 -71.421875 63.9296875 C-71.24757473 59.95813137 -73.54753845 57.23422872 -75.6875 54.0625 C-81.76729146 44.99808364 -81.76729146 44.99808364 -81.3125 39.4375 C-79.03129877 36.02736074 -76.21602486 33.31639626 -73.25 30.5 C-72.48494141 29.72076172 -71.71988281 28.94152344 -70.93164062 28.13867188 C-65.20287534 22.53753975 -65.20287534 22.53753975 -61.28564453 22.09741211 C-58.3811312 22.42964951 -56.8498902 22.88607517 -54.40234375 24.40625 C-53.72236328 24.81230469 -53.04238281 25.21835937 -52.34179688 25.63671875 C-51.65150391 26.06597656 -50.96121094 26.49523437 -50.25 26.9375 C-44.2556492 30.95446345 -44.2556492 30.95446345 -37.3125 31.4375 C-35.33077114 30.6732657 -35.33077114 30.6732657 -33.5 29.5625 C-29.5947192 27.31425732 -25.67663439 26.44986973 -21.3125 25.4375 C-21.07015625 24.20773437 -20.8278125 22.97796875 -20.578125 21.7109375 C-20.2402722 20.07798232 -19.90169192 18.44517754 -19.5625 16.8125 C-19.40523437 16.00425781 -19.24796875 15.19601562 -19.0859375 14.36328125 C-17.9945703 9.20027487 -16.62693513 5.57401944 -13.3125 1.4375 C-9.32510829 -0.55619586 -4.38474905 0.07748795 0 0 Z M-53.6875 63.3125 C-57.93866664 68.88939428 -60.76490549 74.92962616 -63.3125 81.4375 C-63.82490234 82.74460937 -63.82490234 82.74460937 -64.34765625 84.078125 C-69.50638094 99.72225756 -66.74970297 118.11336699 -59.6875 132.625 C-50.64420535 150.13333615 -36.87867453 160.88416206 -18.421875 167.46875 C-1.27722846 172.52782603 17.38636366 169.54085827 32.9453125 161.12890625 C48.5396646 151.5101677 59.68543141 137.13298997 64.6875 119.4375 C68.78688817 100.74096611 65.6870537 82.37051186 55.625 66.21484375 C44.94271652 50.90213498 29.27112224 40.58949149 10.92578125 36.87890625 C-15.11828177 33.32887112 -36.90905187 43.76942121 -53.6875 63.3125 Z " fill="#FCFEFD" transform="translate(960.3125,381.5625)"/>
<path d="M0 0 C1.13625824 -0.0216069 2.27251648 -0.04321381 3.44320679 -0.06547546 C4.70165909 -0.08387482 5.96011139 -0.10227417 7.25669861 -0.12123108 C8.57403992 -0.1438652 9.89138123 -0.16649933 11.24864197 -0.18981934 C23.48913907 -0.39333164 35.7311475 -0.50439262 47.97295475 -0.59303951 C56.1902201 -0.65385362 64.40538424 -0.74062659 72.6214447 -0.8966217 C79.79810035 -1.0328791 86.97329947 -1.11767007 94.15123266 -1.14344698 C97.9408667 -1.15864499 101.72664344 -1.19674411 105.51507759 -1.29632378 C123.98077598 -1.7618634 137.33511154 0.23815307 152.88314819 11.20126343 C157.50863365 14.37055543 160.2257423 14.99925063 165.76426697 14.21446228 C168.57543096 13.22760653 168.57543096 13.22760653 171.03379822 11.65977478 C172.39601501 10.86120056 172.39601501 10.86120056 173.78575134 10.04649353 C174.7067865 9.48317322 175.62782166 8.91985291 176.57676697 8.33946228 C177.98732361 7.50608337 177.98732361 7.50608337 179.42637634 6.65586853 C182.92620977 4.57948415 186.3779805 2.47198659 189.76426697 0.21446228 C192.31984234 -0.03163338 192.31984234 -0.03163338 195.43997192 -0.02604675 C196.62207748 -0.02879608 197.80418304 -0.03154541 199.02210999 -0.03437805 C200.32042755 -0.0271875 201.61874512 -0.01999695 202.95640564 -0.0125885 C204.33614087 -0.01202441 205.71587669 -0.01234091 207.09561157 -0.01347351 C210.84330073 -0.01404811 214.59086226 -0.00227653 218.33852172 0.0116744 C222.25430008 0.02416395 226.17008126 0.02535086 230.08587646 0.02772522 C237.50190837 0.03394522 244.91788142 0.05036306 252.3338874 0.0704242 C260.77635155 0.09276704 269.21881848 0.10377256 277.66130483 0.11381507 C295.02899294 0.13472884 312.39662373 0.16991491 329.76426697 0.21446228 C332.1138918 4.68219878 332.31294596 8.21538703 331.76426697 13.21446228 C329.93999791 18.4845729 327.19175011 21.05197432 322.76426697 24.21446228 C319.73098798 25.23290888 316.95835508 25.32924873 313.77278137 25.3053894 C312.7667688 25.30072662 311.76075623 25.29606384 310.72425842 25.29125977 C309.62612823 25.28130478 308.52799805 25.27134979 307.39659119 25.26109314 C304.98837957 25.24831549 302.58016615 25.23587524 300.17195129 25.22372437 C298.89342159 25.21580809 297.61489189 25.20789181 296.29761887 25.19973564 C292.28493914 25.17913137 288.2723796 25.17133586 284.25965881 25.17041016 C283.58046603 25.17022839 282.90127325 25.17004662 282.20149887 25.16985935 C279.39887153 25.16940942 276.59624437 25.16949173 273.79361701 25.16969478 C265.87089055 25.16943113 257.94895477 25.15305659 250.026474 25.0877533 C243.72310048 25.03591358 237.42075121 25.0203115 231.11719906 25.04521471 C227.78982857 25.05704078 224.46641955 25.04636787 221.13904953 25.00253105 C205.41817185 24.80649343 193.57108409 25.66835876 180.52719498 34.96188545 C177.82852259 36.87931741 175.01208512 38.59076426 172.20176697 40.33946228 C171.35485291 40.89891541 170.50793884 41.45836853 169.63536072 42.03477478 C164.57174459 44.11533542 160.23027411 44.1949694 155.10923767 42.15879822 C152.24264897 40.70886571 149.47293494 39.15157141 146.70176697 37.52696228 C145.76010681 36.99651306 144.81844666 36.46606384 143.84825134 35.91954041 C136.34154143 31.66208141 136.34154143 31.66208141 134.17050362 29.97865677 C128.15636312 25.57720177 122.86109758 25.5216211 115.58433533 25.61851501 C114.38496841 25.61445648 113.1856015 25.61039795 111.94989014 25.60621643 C108.68105544 25.59927981 105.41315899 25.61400965 102.14442897 25.63728976 C98.71237169 25.6553999 95.28045475 25.6419737 91.84838867 25.63098145 C83.87300153 25.61037433 75.89789463 25.62588584 67.9225235 25.64645386 C57.76750212 25.67164264 47.61263675 25.68440023 37.45761019 25.65649754 C34.04628687 25.6481974 30.63542835 25.64879767 27.2241497 25.66975212 C23.42082234 25.69095574 19.61816769 25.68833905 15.81480408 25.68101501 C14.69304779 25.6939006 13.5712915 25.70678619 12.4155426 25.72006226 C5.96342052 25.67863271 2.01586323 25.05357242 -3.23573303 21.21446228 C-6.52535622 17.70794087 -8.10809227 14.2902916 -8.67323303 9.52696228 C-7.76424868 2.64465219 -6.91572609 0.12022571 0 0 Z " fill="#FCFEFD" transform="translate(798.2357330322266,654.7855377197266)"/>
<path d="M0 0 C9.37226087 8.32302138 18.47568346 19.97313271 20.9375 32.625 C17.87162307 31.5723568 15.55413078 30.35908848 12.87316895 28.49952698 C0.47512809 19.90017548 -11.69400209 20.37090271 -26.34375 20.52734375 C-28.85438192 20.52168077 -31.36500772 20.51205682 -33.87561035 20.49867249 C-40.43209835 20.47421313 -46.98727435 20.50299244 -53.54364014 20.54345703 C-60.25433296 20.58015859 -66.9650476 20.55588127 -73.67578125 20.54101562 C-86.80502476 20.51937182 -99.93345276 20.55405885 -113.0625 20.625 C-113.0625 16.665 -113.0625 12.705 -113.0625 8.625 C-95.04564446 3.17289471 -77.45021224 1.3451946 -58.6875 1.25 C-57.92635895 1.24214478 -57.1652179 1.23428955 -56.38101196 1.22619629 C-46.94848073 1.15043605 -38.29844082 1.86128802 -29.11474609 4.07958984 C-26.25257597 4.59103506 -24.74540009 4.62126953 -22.0625 3.625 C-22.5575 1.645 -22.5575 1.645 -23.0625 -0.375 C-51.11742154 -9.56257664 -84.97069783 -5.21532062 -113.0625 1.625 C-113.0625 -2.005 -113.0625 -5.635 -113.0625 -9.375 C-103.42065033 -12.15682217 -94.0459291 -14.18733647 -84.0625 -15.375 C-82.82983398 -15.54322266 -81.59716797 -15.71144531 -80.32714844 -15.88476562 C-52.86684317 -19.30848761 -22.56076752 -17.53347132 0 0 Z " fill="#FBFDFD" transform="translate(934.0625,627.375)"/>
<path d="M0 0 C0.68725159 0.00060425 1.37450317 0.0012085 2.08258057 0.00183105 C19.44151412 0.04324964 36.36522745 1.66340915 52.9375 7.1875 C52.9375 10.4875 52.9375 13.7875 52.9375 17.1875 C45.72177397 16.63244415 38.82070707 15.42930992 31.74609375 13.90625 C22.57998776 12.17644128 13.53361405 11.970982 4.23876953 11.94726562 C1.96999316 11.93763789 -0.29784432 11.90656946 -2.56640625 11.875 C-14.35067939 11.79123767 -25.64758124 13.16547343 -37.0625 16.1875 C-37.0625 17.8375 -37.0625 19.4875 -37.0625 21.1875 C-31.53313576 20.7047082 -31.53313576 20.7047082 -26.08203125 19.71313477 C-18.02329313 17.82288663 -10.03729161 17.83476494 -1.8125 17.875 C-1.06294037 17.87649048 -0.31338074 17.87798096 0.45889282 17.8795166 C18.47962497 17.9438121 35.66303154 19.88676747 52.9375 25.1875 C52.9375 29.1475 52.9375 33.1075 52.9375 37.1875 C51.5787677 37.17560135 50.2200354 37.1637027 48.82012939 37.15144348 C35.93485631 37.04589635 23.05049949 36.99936231 10.16478348 37.00871754 C3.54198398 37.01168018 -3.07956432 36.99477474 -9.70214844 36.93041992 C-16.1088737 36.86892772 -22.5136406 36.86229338 -28.92057037 36.89166832 C-31.34909415 36.89355313 -33.77771757 36.87658086 -36.20595551 36.83927345 C-53.25441554 36.59429517 -64.97228603 39.34481744 -79.0625 49.1875 C-80.29708106 45.48375683 -79.36872481 44.13421628 -77.71362305 40.7421875 C-77.35437744 40.04351563 -76.99513184 39.34484375 -76.625 38.625 C-76.25737549 37.90699219 -75.88975098 37.18898438 -75.51098633 36.44921875 C-66.78043914 19.87142841 -52.98546421 10.10148737 -35.41015625 3.8984375 C-23.61630098 0.33851159 -12.26098401 -0.01989881 0 0 Z " fill="#FCFEFD" transform="translate(1046.0625,610.8125)"/>
<path d="M0 0 C1.10794922 0.84304688 1.10794922 0.84304688 2.23828125 1.703125 C12.23344048 9.92021618 18.84881568 20.82986122 23 33 C23.36738281 34.03769531 23.73476562 35.07539063 24.11328125 36.14453125 C25.28734545 41.24938309 25.29064609 46.09286469 25.25 51.3125 C25.25773437 52.29412109 25.26546875 53.27574219 25.2734375 54.28710938 C25.24779129 63.97496467 23.87460983 72.37638107 19.375 81 C19.02236084 81.68642578 18.66972168 82.37285156 18.30639648 83.08007812 C9.09432478 100.4772484 -5.05553843 111.06293031 -23.484375 117.01953125 C-39.89196189 121.59542493 -56.64335126 119.47271103 -71.75 111.8125 C-88.19057417 102.30275612 -99.34094875 88.91249358 -105.03125 70.69921875 C-109.64053958 52.19804251 -107.54169922 34.1900727 -97.85546875 17.65625 C-87.20463958 2.40874718 -71.67548024 -9.60830799 -53.26171875 -13.56640625 C-34.13921358 -16.10843987 -15.47298647 -11.83725741 0 0 Z M-83 10 C-95.39282206 24.41405663 -101.19052257 39.02044316 -100.1640625 57.94580078 C-98.94242514 73.24171862 -91.7364379 87.26630964 -80.27734375 97.41015625 C-66.32693845 108.41976465 -51.72866968 113.50684391 -34 112 C-18.03263831 109.02521459 -4.26354104 102.14091374 6.26953125 89.53125 C8.57564509 86.15797287 10.46311922 82.64015738 12.3125 79 C12.65039551 78.33548828 12.98829102 77.67097656 13.33642578 76.98632812 C19.47406817 64.34433864 20.61177857 47.74661872 16.375 34.3125 C15.63515295 32.51939846 14.84418484 30.74640739 14 29 C13.5875 28.08476562 13.175 27.16953125 12.75 26.2265625 C4.84045706 10.1827737 -8.48511735 0.83951652 -25 -5 C-44.66819248 -11.51084992 -68.45360017 -4.41045216 -83 10 Z " fill="#30B8F6" transform="translate(1001,432)"/>
<path d="M0 0 C0.56702637 0.2165625 1.13405273 0.433125 1.71826172 0.65625 C1.95605469 2.97387695 1.95605469 2.97387695 1.71826172 5.65625 C0.140625 7.23510742 0.140625 7.23510742 -2.08642578 8.57421875 C-3.32344238 9.330979 -3.32344238 9.330979 -4.58544922 10.10302734 C-5.47522461 10.61559082 -6.365 11.1281543 -7.28173828 11.65625 C-8.59706543 12.42316162 -8.59706543 12.42316162 -9.93896484 13.20556641 C-12.74851653 14.81771152 -15.57435144 16.39709903 -18.40673828 17.96875 C-26.73453768 22.59798492 -26.73453768 22.59798492 -34.90283203 27.5 C-35.57878418 27.92112061 -36.25473633 28.34224121 -36.95117188 28.77612305 C-38.17109726 29.54467289 -39.38430955 30.32403618 -40.58886719 31.11645508 C-44.26867199 33.43131286 -46.95656929 34.54742493 -51.28173828 33.65625 C-53.43408203 31.20703125 -53.43408203 31.20703125 -55.21923828 27.96875 C-56.12996094 26.38513672 -56.12996094 26.38513672 -57.05908203 24.76953125 C-58.3697861 21.43205157 -58.38209998 20.00706895 -57.28173828 16.65625 C-55.03173828 16.78125 -55.03173828 16.78125 -52.28173828 17.65625 C-48.28173828 22.73733108 -48.28173828 22.73733108 -48.28173828 25.65625 C-40.02877226 21.653479 -32.05194179 17.32206059 -24.15673828 12.65625 C-22.64660156 11.77066406 -22.64660156 11.77066406 -21.10595703 10.8671875 C-20.10951172 10.28195312 -19.11306641 9.69671875 -18.08642578 9.09375 C-16.63187988 8.24103516 -16.63187988 8.24103516 -15.14794922 7.37109375 C-13.23274638 6.22523475 -11.33461898 5.05035538 -9.45458984 3.84765625 C-8.57512695 3.28949219 -7.69566406 2.73132813 -6.78955078 2.15625 C-6.01498535 1.6509375 -5.24041992 1.145625 -4.44238281 0.625 C-2.28173828 -0.34375 -2.28173828 -0.34375 0 0 Z " fill="#2EB8F6" transform="translate(988.28173828125,467.34375)"/>
</svg>
