<svg version="1.1" id="Layer_1" xmlns="http://www.w3.org/2000/svg" xmlns:xlink="http://www.w3.org/1999/xlink" x="0px" y="0px"
	 width="100%" viewBox="0 0 865 445" enable-background="new 0 0 865 445" xml:space="preserve">
<path fill="#FEFEFE" opacity="1.000000" stroke="none" 
	d="
M663.000000,446.000000 
	C442.000031,446.000000 221.500076,446.000000 1.000089,446.000000 
	C1.000059,297.666718 1.000059,149.333466 1.000030,1.000149 
	C289.333221,1.000099 577.666443,1.000099 865.999756,1.000049 
	C865.999817,149.333191 865.999817,297.666382 865.999878,445.999786 
	C798.500000,446.000000 731.000000,446.000000 663.000000,446.000000 
M21.160975,242.499939 
	C21.162954,284.164825 21.129526,325.829742 21.180754,367.494568 
	C21.209541,390.908783 40.016415,409.785156 63.400173,409.792847 
	C177.395798,409.830261 291.391418,409.831604 405.387054,409.797211 
	C429.732635,409.789856 448.159119,391.581085 448.181274,367.225922 
	C448.271606,267.896484 448.276306,168.566849 448.190948,69.237389 
	C448.169434,44.192829 429.893494,26.202099 404.871277,26.197598 
	C291.375610,26.177187 177.879944,26.185234 64.384277,26.202942 
	C62.059811,26.203304 59.704033,26.244970 57.415813,26.604431 
	C36.119934,29.949846 21.204779,47.324265 21.183647,69.006538 
	C21.127609,126.504280 21.162352,184.002106 21.160975,242.499939 
M592.844604,298.403931 
	C593.586426,281.759430 594.300293,265.113556 595.118835,248.472839 
	C595.190491,247.017197 595.949280,245.595367 596.388916,244.157837 
	C597.029602,244.237061 597.670227,244.316284 598.310913,244.395508 
	C600.649048,279.436981 599.770386,314.758209 606.428528,349.610413 
	C615.285400,349.610413 624.063721,349.610413 633.335754,349.610413 
	C636.602478,309.735992 639.858337,269.994751 643.129211,230.069427 
	C637.448364,230.069427 632.348389,230.069427 626.790039,230.069427 
	C625.867004,244.501297 624.881287,258.755188 624.061035,273.018585 
	C622.941956,292.478577 621.983887,311.947876 620.823059,331.405243 
	C620.745911,332.698059 619.538696,333.923431 618.857117,335.180176 
	C618.291931,333.822510 617.344482,332.494965 617.234802,331.101440 
	C616.934387,327.286774 616.899170,323.444061 616.913086,319.613007 
	C617.022034,289.702179 613.644836,260.161316 607.554749,230.930359 
	C600.341187,230.930359 593.103088,230.930359 585.751709,230.930359 
	C585.294128,233.905060 584.890808,236.529892 584.486633,239.154602 
	C582.308533,253.298065 579.388977,267.376801 578.147400,281.601990 
	C576.729553,297.846588 576.805725,314.221558 576.231567,330.539825 
	C576.196411,331.538788 576.315247,332.582458 576.055542,333.520386 
	C575.880676,334.152130 574.960144,335.172119 574.729309,335.084106 
	C573.981262,334.798981 572.920410,334.149536 572.832642,333.521301 
	C572.441650,330.722595 572.287903,327.885193 572.154968,325.056793 
	C571.404236,309.078979 570.824219,293.091736 569.913879,277.123230 
	C569.024902,261.529816 567.809387,245.955032 566.727112,230.226135 
	C561.132202,230.226135 555.931213,230.226135 550.436890,230.226135 
	C553.759460,270.219604 557.049927,309.826263 560.337891,349.403809 
	C569.774719,349.403809 578.658875,349.403809 588.099487,349.403809 
	C589.685242,332.501068 591.239563,315.933441 592.844604,298.403931 
M772.030884,84.773994 
	C771.940308,83.503624 771.849792,82.233246 771.756165,80.919220 
	C766.516785,80.919220 761.584167,80.919220 756.430847,80.919220 
	C756.430847,83.010002 756.369995,84.816292 756.439941,86.617500 
	C757.674133,118.407959 758.943848,150.197098 760.101379,181.990326 
	C760.149597,183.314270 759.181763,184.675186 758.687256,186.018890 
	C757.902222,184.783691 756.608215,183.624664 756.410156,182.301575 
	C754.167297,167.320175 752.346008,152.272232 749.908020,137.324280 
	C746.834839,118.481628 743.294861,99.715118 739.975220,81.022339 
	C730.931824,81.022339 722.714905,81.022339 714.579834,81.022339 
	C714.579834,120.972565 714.579834,160.537170 714.579834,200.232880 
	C719.827087,200.232880 724.746033,200.232880 730.270569,200.232880 
	C728.905518,165.033997 727.553040,130.159897 726.200562,95.285805 
	C726.744751,95.032211 727.288879,94.778618 727.833069,94.525024 
	C728.629944,95.765457 729.935852,96.928314 730.138672,98.259254 
	C731.216736,105.333778 731.849854,112.476540 732.945496,119.547874 
	C736.943970,145.353714 741.028259,171.146606 745.244141,196.917572 
	C745.462097,198.249481 747.161011,200.331116 748.235046,200.372162 
	C756.020996,200.669601 763.823486,200.531906 772.030884,200.531906 
	C772.030884,161.944519 772.030884,123.832489 772.030884,84.773994 
M686.418457,349.801849 
	C688.680237,349.801849 690.942017,349.801849 693.688660,349.801849 
	C692.386475,314.252472 691.108521,279.362122 689.831909,244.509583 
	C694.053040,243.242767 693.680237,246.068604 693.978516,248.262589 
	C697.339844,272.989288 700.558716,297.736694 704.145874,322.430603 
	C705.474670,331.578430 707.671082,340.600220 709.426941,349.453430 
	C718.517883,349.453430 726.921387,349.453430 735.430298,349.453430 
	C735.430298,309.525391 735.430298,269.946747 735.430298,230.123047 
	C730.262512,230.123047 725.364441,230.123047 719.573853,230.123047 
	C720.943542,265.278625 722.301819,300.141663 723.660095,335.004700 
	C723.190369,335.218475 722.720642,335.432220 722.250916,335.645996 
	C721.493286,334.163574 720.284546,332.750092 720.045959,331.188385 
	C716.627441,308.811951 713.549072,286.381683 709.933594,264.038055 
	C708.084534,252.610718 705.329895,241.329956 703.016541,230.137756 
	C694.374451,230.137756 686.288696,230.137756 678.201599,230.137756 
	C678.201599,270.116455 678.201599,309.815948 678.201599,349.803131 
	C680.862488,349.803131 683.170593,349.803131 686.418457,349.801849 
M555.790039,153.141617 
	C553.875122,168.759201 551.960266,184.376785 550.019592,200.204559 
	C555.890259,200.204559 561.125549,200.204559 566.579712,200.204559 
	C567.440247,191.481125 568.175049,183.046936 569.194580,174.647324 
	C569.368347,173.215576 570.677612,170.833328 571.605164,170.762573 
	C576.650269,170.377762 581.740112,170.579727 586.856567,170.579727 
	C587.959656,180.979828 588.985779,190.654266 589.999817,200.214966 
	C595.657593,200.214966 600.740356,200.214966 606.300476,200.214966 
	C601.403381,160.271042 596.551575,120.696793 591.672791,80.902496 
	C582.605896,80.902496 573.865417,80.902496 564.651550,80.902496 
	C561.717896,104.775986 558.801208,128.511658 555.790039,153.141617 
M698.435364,186.044266 
	C692.340820,186.044266 686.246216,186.044266 680.229553,186.044266 
	C680.229553,172.657486 680.229553,159.938629 680.229553,146.681580 
	C688.636414,146.681580 696.694275,146.681580 704.756592,146.681580 
	C704.756592,141.821442 704.756592,137.507782 704.756592,132.696823 
	C696.548462,132.696823 688.460144,132.696823 680.143066,132.696823 
	C680.143066,119.971230 680.143066,107.744324 680.143066,94.895317 
	C688.941223,94.895317 697.481873,94.895317 705.905518,94.895317 
	C705.905518,89.838715 705.905518,85.411308 705.905518,80.910324 
	C691.692871,80.910324 677.776855,80.910324 663.789917,80.910324 
	C663.789917,120.871895 663.789917,160.553070 663.789917,200.225586 
	C678.079346,200.225586 691.983093,200.225586 705.782898,200.225586 
	C705.782898,195.339783 705.782898,190.793289 705.782898,186.044571 
	C703.386597,186.044571 701.401978,186.044571 698.435364,186.044266 
M541.339478,95.038834 
	C542.772583,94.936356 544.205750,94.833878 545.686646,94.727989 
	C545.686646,89.899117 545.686646,85.486328 545.686646,80.951637 
	C528.808533,80.951637 512.232727,80.951637 495.439972,80.951637 
	C495.439972,85.658684 495.439972,90.068222 495.439972,95.149727 
	C501.225800,95.149727 506.761047,95.149727 512.697876,95.149727 
	C512.697876,130.583054 512.697876,165.345551 512.697876,200.102325 
	C518.339844,200.102325 523.532410,200.102325 529.097351,200.102325 
	C529.097351,164.907364 529.097351,130.144989 529.097351,95.037621 
	C533.109985,95.037621 536.743469,95.037621 541.339478,95.038834 
M528.882385,322.500031 
	C528.882385,296.456177 528.882385,270.412292 528.882385,244.009872 
	C534.963745,244.009872 540.231750,244.009872 545.578430,244.009872 
	C545.578430,239.112305 545.578430,234.588989 545.578430,230.254440 
	C528.611206,230.254440 512.056091,230.254440 495.515533,230.254440 
	C495.515533,235.052795 495.515533,239.459305 495.515533,244.303360 
	C501.272919,244.303360 506.698486,244.303360 512.610107,244.303360 
	C512.610107,279.630219 512.610107,314.513489 512.610107,349.558960 
	C518.202820,349.558960 523.291565,349.558960 528.882385,349.558960 
	C528.882385,340.719971 528.882385,332.110016 528.882385,322.500031 
M612.997253,126.500000 
	C612.997253,151.058701 612.997253,175.617401 612.997253,200.160782 
	C627.618835,200.160782 641.671021,200.160782 655.703369,200.160782 
	C655.703369,195.373901 655.703369,190.952408 655.703369,185.970154 
	C646.874329,185.970154 638.329590,185.970154 629.203003,185.970154 
	C629.203003,150.577423 629.203003,115.750710 629.203003,80.911079 
	C623.523621,80.911079 618.449097,80.911079 612.997253,80.911079 
	C612.997253,95.940254 612.997253,110.720123 612.997253,126.500000 
M815.719604,95.036652 
	C820.470764,95.036652 825.221863,95.036652 829.789490,95.036652 
	C829.789490,89.783478 829.789490,85.366165 829.789490,81.033058 
	C812.866455,81.033058 796.308838,81.033058 779.715210,81.033058 
	C779.715210,85.835205 779.715210,90.254707 779.715210,95.161392 
	C785.450989,95.161392 790.867615,95.161392 796.691528,95.161392 
	C796.691528,130.414429 796.691528,165.178162 796.691528,200.173645 
	C802.331238,200.173645 807.540588,200.173645 812.953979,200.173645 
	C812.953979,197.997406 812.953918,196.171799 812.953918,194.346207 
	C812.953369,162.855057 812.926086,131.363815 813.029297,99.873009 
	C813.034607,98.260429 814.159119,96.651520 815.719604,95.036652 
M656.604919,349.792633 
	C660.011719,349.792633 663.418579,349.792633 666.765259,349.792633 
	C666.765259,309.446533 666.765259,269.888580 666.765259,230.246613 
	C661.323975,230.246613 656.125000,230.246613 651.012939,230.246613 
	C651.012939,270.179443 651.012939,309.730408 651.012939,349.551483 
	C652.725647,349.640472 654.186523,349.716370 656.604919,349.792633 
z"/>
<path fill="#010101" opacity="1.000000" stroke="none" 
	d="
M21.160976,241.999924 
	C21.162352,184.002106 21.127609,126.504280 21.183647,69.006538 
	C21.204779,47.324265 36.119934,29.949846 57.415813,26.604431 
	C59.704033,26.244970 62.059811,26.203304 64.384277,26.202942 
	C177.879944,26.185234 291.375610,26.177187 404.871277,26.197598 
	C429.893494,26.202099 448.169434,44.192829 448.190948,69.237389 
	C448.276306,168.566849 448.271606,267.896484 448.181274,367.225922 
	C448.159119,391.581085 429.732635,409.789856 405.387054,409.797211 
	C291.391418,409.831604 177.395798,409.830261 63.400173,409.792847 
	C40.016415,409.785156 21.209541,390.908783 21.180754,367.494568 
	C21.129526,325.829742 21.162954,284.164825 21.160976,241.999924 
M307.121399,114.718102 
	C286.064758,125.056953 265.000427,135.380234 243.953094,145.738022 
	C204.091568,165.354614 164.237457,184.986282 124.395721,204.643021 
	C123.266273,205.200256 121.537155,206.001221 121.411400,206.878326 
	C120.896736,210.468002 120.896248,214.131409 120.692543,218.033875 
	C191.406570,220.578659 261.560455,223.103271 331.714325,225.627884 
	C331.796295,226.023193 331.878235,226.418503 331.960205,226.813812 
	C254.156815,262.088928 176.353424,297.364014 98.550049,332.639130 
	C98.788277,329.926819 100.166985,328.347717 100.289932,326.676239 
	C100.436409,324.684998 99.505692,322.614502 99.041656,320.578339 
	C97.077011,321.243164 94.185555,321.312958 93.309845,322.676910 
	C89.721451,328.265961 86.663605,334.205688 83.580994,340.105408 
	C81.903351,343.316162 83.086998,345.739990 86.535728,346.575500 
	C93.000206,348.141571 99.493263,349.671844 106.056305,350.688385 
	C107.602119,350.927795 109.473404,349.065826 111.194946,348.170563 
	C110.161880,346.380005 109.508354,344.090118 107.990952,342.936768 
	C106.416801,341.740234 104.006142,341.644226 100.842400,340.750946 
	C186.131485,302.066376 270.414703,263.838074 354.594147,225.656815 
	C353.814484,222.726288 353.197144,220.405838 352.542450,217.945038 
	C279.864014,215.327591 207.263092,212.712936 134.662170,210.098297 
	C134.604477,209.720230 134.546799,209.342163 134.489120,208.964111 
	C214.023788,169.836655 293.558441,130.709198 373.093109,91.581757 
	C372.826385,94.086365 371.431519,95.666489 371.320862,97.331932 
	C371.177765,99.486076 371.324463,102.568855 372.662231,103.712013 
	C375.035553,105.740143 377.327942,103.824867 378.603973,101.359695 
	C381.587280,95.596123 384.488281,89.789436 387.374390,83.976280 
	C388.865723,80.972572 387.996613,78.465904 384.811005,77.739182 
	C378.002747,76.186028 371.118591,74.864037 364.196869,73.993073 
	C362.762787,73.812622 361.030273,76.003784 359.435303,77.101906 
	C360.556061,78.719498 361.349426,80.870262 362.884583,81.813065 
	C364.610809,82.873177 367.006378,82.843338 370.304657,83.539719 
	C348.620148,94.230400 328.200226,104.297638 307.121399,114.718102 
z"/>
<path fill="#070707" opacity="1.000000" stroke="none" 
	d="
M592.819275,298.884888 
	C591.239563,315.933441 589.685242,332.501068 588.099487,349.403809 
	C578.658875,349.403809 569.774719,349.403809 560.337891,349.403809 
	C557.049927,309.826263 553.759460,270.219604 550.436890,230.226135 
	C555.931213,230.226135 561.132202,230.226135 566.727112,230.226135 
	C567.809387,245.955032 569.024902,261.529816 569.913879,277.123230 
	C570.824219,293.091736 571.404236,309.078979 572.154968,325.056793 
	C572.287903,327.885193 572.441650,330.722595 572.832642,333.521301 
	C572.920410,334.149536 573.981262,334.798981 574.729309,335.084106 
	C574.960144,335.172119 575.880676,334.152130 576.055542,333.520386 
	C576.315247,332.582458 576.196411,331.538788 576.231567,330.539825 
	C576.805725,314.221558 576.729553,297.846588 578.147400,281.601990 
	C579.388977,267.376801 582.308533,253.298065 584.486633,239.154602 
	C584.890808,236.529892 585.294128,233.905060 585.751709,230.930359 
	C593.103088,230.930359 600.341187,230.930359 607.554749,230.930359 
	C613.644836,260.161316 617.022034,289.702179 616.913086,319.613007 
	C616.899170,323.444061 616.934387,327.286774 617.234802,331.101440 
	C617.344482,332.494965 618.291931,333.822510 618.857117,335.180176 
	C619.538696,333.923431 620.745911,332.698059 620.823059,331.405243 
	C621.983887,311.947876 622.941956,292.478577 624.061035,273.018585 
	C624.881287,258.755188 625.867004,244.501297 626.790039,230.069427 
	C632.348389,230.069427 637.448364,230.069427 643.129211,230.069427 
	C639.858337,269.994751 636.602478,309.735992 633.335754,349.610413 
	C624.063721,349.610413 615.285400,349.610413 606.428528,349.610413 
	C599.770386,314.758209 600.649048,279.436981 598.310913,244.395508 
	C597.670227,244.316284 597.029602,244.237061 596.388916,244.157837 
	C595.949280,245.595367 595.190491,247.017197 595.118835,248.472839 
	C594.300293,265.113556 593.586426,281.759430 592.819275,298.884888 
z"/>
<path fill="#080808" opacity="1.000000" stroke="none" 
	d="
M772.030884,85.247223 
	C772.030884,123.832489 772.030884,161.944519 772.030884,200.531906 
	C763.823486,200.531906 756.020996,200.669601 748.235046,200.372162 
	C747.161011,200.331116 745.462097,198.249481 745.244141,196.917572 
	C741.028259,171.146606 736.943970,145.353714 732.945496,119.547874 
	C731.849854,112.476540 731.216736,105.333778 730.138672,98.259254 
	C729.935852,96.928314 728.629944,95.765457 727.833069,94.525024 
	C727.288879,94.778618 726.744751,95.032211 726.200562,95.285805 
	C727.553040,130.159897 728.905518,165.033997 730.270569,200.232880 
	C724.746033,200.232880 719.827087,200.232880 714.579834,200.232880 
	C714.579834,160.537170 714.579834,120.972565 714.579834,81.022339 
	C722.714905,81.022339 730.931824,81.022339 739.975220,81.022339 
	C743.294861,99.715118 746.834839,118.481628 749.908020,137.324280 
	C752.346008,152.272232 754.167297,167.320175 756.410156,182.301575 
	C756.608215,183.624664 757.902222,184.783691 758.687256,186.018890 
	C759.181763,184.675186 760.149597,183.314270 760.101379,181.990326 
	C758.943848,150.197098 757.674133,118.407959 756.439941,86.617500 
	C756.369995,84.816292 756.430847,83.010002 756.430847,80.919220 
	C761.584167,80.919220 766.516785,80.919220 771.756165,80.919220 
	C771.849792,82.233246 771.940308,83.503624 772.030884,85.247223 
z"/>
<path fill="#070707" opacity="1.000000" stroke="none" 
	d="
M685.948547,349.802490 
	C683.170593,349.803131 680.862488,349.803131 678.201599,349.803131 
	C678.201599,309.815948 678.201599,270.116455 678.201599,230.137756 
	C686.288696,230.137756 694.374451,230.137756 703.016541,230.137756 
	C705.329895,241.329956 708.084534,252.610718 709.933594,264.038055 
	C713.549072,286.381683 716.627441,308.811951 720.045959,331.188385 
	C720.284546,332.750092 721.493286,334.163574 722.250916,335.645996 
	C722.720642,335.432220 723.190369,335.218475 723.660095,335.004700 
	C722.301819,300.141663 720.943542,265.278625 719.573853,230.123047 
	C725.364441,230.123047 730.262512,230.123047 735.430298,230.123047 
	C735.430298,269.946747 735.430298,309.525391 735.430298,349.453430 
	C726.921387,349.453430 718.517883,349.453430 709.426941,349.453430 
	C707.671082,340.600220 705.474670,331.578430 704.145874,322.430603 
	C700.558716,297.736694 697.339844,272.989288 693.978516,248.262589 
	C693.680237,246.068604 694.053040,243.242767 689.831909,244.509583 
	C691.108521,279.362122 692.386475,314.252472 693.688660,349.801849 
	C690.942017,349.801849 688.680237,349.801849 685.948547,349.802490 
z"/>
<path fill="#070707" opacity="1.000000" stroke="none" 
	d="
M555.837280,152.694458 
	C558.801208,128.511658 561.717896,104.775986 564.651550,80.902496 
	C573.865417,80.902496 582.605896,80.902496 591.672791,80.902496 
	C596.551575,120.696793 601.403381,160.271042 606.300476,200.214966 
	C600.740356,200.214966 595.657593,200.214966 589.999817,200.214966 
	C588.985779,190.654266 587.959656,180.979828 586.856567,170.579727 
	C581.740112,170.579727 576.650269,170.377762 571.605164,170.762573 
	C570.677612,170.833328 569.368347,173.215576 569.194580,174.647324 
	C568.175049,183.046936 567.440247,191.481125 566.579712,200.204559 
	C561.125549,200.204559 555.890259,200.204559 550.019592,200.204559 
	C551.960266,184.376785 553.875122,168.759201 555.837280,152.694458 
M582.863403,129.632294 
	C582.107056,119.515976 581.446228,109.390617 580.489502,99.293274 
	C580.348633,97.806160 578.804993,96.451958 577.910339,95.036278 
	C577.192871,96.442886 575.969971,97.803101 575.835938,99.263260 
	C574.468140,114.163620 573.278503,129.080338 572.036438,143.992249 
	C571.710815,147.901917 571.375854,151.810791 571.038940,155.793793 
	C576.056091,155.793793 580.576111,155.793793 585.339417,155.793793 
	C584.507629,147.088074 583.717468,138.817535 582.863403,129.632294 
z"/>
<path fill="#0A0A0A" opacity="1.000000" stroke="none" 
	d="
M698.926331,186.044418 
	C701.401978,186.044571 703.386597,186.044571 705.782898,186.044571 
	C705.782898,190.793289 705.782898,195.339783 705.782898,200.225586 
	C691.983093,200.225586 678.079346,200.225586 663.789917,200.225586 
	C663.789917,160.553070 663.789917,120.871895 663.789917,80.910324 
	C677.776855,80.910324 691.692871,80.910324 705.905518,80.910324 
	C705.905518,85.411308 705.905518,89.838715 705.905518,94.895317 
	C697.481873,94.895317 688.941223,94.895317 680.143066,94.895317 
	C680.143066,107.744324 680.143066,119.971230 680.143066,132.696823 
	C688.460144,132.696823 696.548462,132.696823 704.756592,132.696823 
	C704.756592,137.507782 704.756592,141.821442 704.756592,146.681580 
	C696.694275,146.681580 688.636414,146.681580 680.229553,146.681580 
	C680.229553,159.938629 680.229553,172.657486 680.229553,186.044266 
	C686.246216,186.044266 692.340820,186.044266 698.926331,186.044418 
z"/>
<path fill="#050505" opacity="1.000000" stroke="none" 
	d="
M540.858215,95.038223 
	C536.743469,95.037621 533.109985,95.037621 529.097351,95.037621 
	C529.097351,130.144989 529.097351,164.907364 529.097351,200.102325 
	C523.532410,200.102325 518.339844,200.102325 512.697876,200.102325 
	C512.697876,165.345551 512.697876,130.583054 512.697876,95.149727 
	C506.761047,95.149727 501.225800,95.149727 495.439972,95.149727 
	C495.439972,90.068222 495.439972,85.658684 495.439972,80.951637 
	C512.232727,80.951637 528.808533,80.951637 545.686646,80.951637 
	C545.686646,85.486328 545.686646,89.899117 545.686646,94.727989 
	C544.205750,94.833878 542.772583,94.936356 540.858215,95.038223 
z"/>
<path fill="#040404" opacity="1.000000" stroke="none" 
	d="
M528.882385,323.000061 
	C528.882385,332.110016 528.882385,340.719971 528.882385,349.558960 
	C523.291565,349.558960 518.202820,349.558960 512.610107,349.558960 
	C512.610107,314.513489 512.610107,279.630219 512.610107,244.303360 
	C506.698486,244.303360 501.272919,244.303360 495.515533,244.303360 
	C495.515533,239.459305 495.515533,235.052795 495.515533,230.254440 
	C512.056091,230.254440 528.611206,230.254440 545.578430,230.254440 
	C545.578430,234.588989 545.578430,239.112305 545.578430,244.009872 
	C540.231750,244.009872 534.963745,244.009872 528.882385,244.009872 
	C528.882385,270.412292 528.882385,296.456177 528.882385,323.000061 
z"/>
<path fill="#040404" opacity="1.000000" stroke="none" 
	d="
M612.997253,126.000000 
	C612.997253,110.720123 612.997253,95.940254 612.997253,80.911079 
	C618.449097,80.911079 623.523621,80.911079 629.203003,80.911079 
	C629.203003,115.750710 629.203003,150.577423 629.203003,185.970154 
	C638.329590,185.970154 646.874329,185.970154 655.703369,185.970154 
	C655.703369,190.952408 655.703369,195.373901 655.703369,200.160782 
	C641.671021,200.160782 627.618835,200.160782 612.997253,200.160782 
	C612.997253,175.617401 612.997253,151.058701 612.997253,126.000000 
z"/>
<path fill="#040404" opacity="1.000000" stroke="none" 
	d="
M815.241089,95.038773 
	C814.159119,96.651520 813.034607,98.260429 813.029297,99.873009 
	C812.926086,131.363815 812.953369,162.855057 812.953918,194.346207 
	C812.953918,196.171799 812.953979,197.997406 812.953979,200.173645 
	C807.540588,200.173645 802.331238,200.173645 796.691528,200.173645 
	C796.691528,165.178162 796.691528,130.414429 796.691528,95.161392 
	C790.867615,95.161392 785.450989,95.161392 779.715210,95.161392 
	C779.715210,90.254707 779.715210,85.835205 779.715210,81.033058 
	C796.308838,81.033058 812.866455,81.033058 829.789490,81.033058 
	C829.789490,85.366165 829.789490,89.783478 829.789490,95.036652 
	C825.221863,95.036652 820.470764,95.036652 815.241089,95.038773 
z"/>
<path fill="#040404" opacity="1.000000" stroke="none" 
	d="
M656.126099,349.792480 
	C654.186523,349.716370 652.725647,349.640472 651.012939,349.551483 
	C651.012939,309.730408 651.012939,270.179443 651.012939,230.246613 
	C656.125000,230.246613 661.323975,230.246613 666.765259,230.246613 
	C666.765259,269.888580 666.765259,309.446533 666.765259,349.792633 
	C663.418579,349.792633 660.011719,349.792633 656.126099,349.792480 
z"/>
<path fill="#F4F4F4" opacity="1.000000" stroke="none" 
	d="
M307.450836,114.541489 
	C328.200226,104.297638 348.620148,94.230400 370.304657,83.539719 
	C367.006378,82.843338 364.610809,82.873177 362.884583,81.813065 
	C361.349426,80.870262 360.556061,78.719498 359.435303,77.101913 
	C361.030273,76.003784 362.762787,73.812622 364.196869,73.993073 
	C371.118591,74.864037 378.002747,76.186028 384.811005,77.739182 
	C387.996613,78.465904 388.865723,80.972572 387.374390,83.976280 
	C384.488281,89.789436 381.587280,95.596123 378.603973,101.359695 
	C377.327942,103.824867 375.035553,105.740143 372.662231,103.712013 
	C371.324463,102.568855 371.177765,99.486076 371.320862,97.331932 
	C371.431519,95.666489 372.826385,94.086365 373.093109,91.581757 
	C293.558441,130.709198 214.023788,169.836655 134.489120,208.964111 
	C134.546799,209.342163 134.604477,209.720230 134.662170,210.098297 
	C207.263092,212.712936 279.864014,215.327591 352.542450,217.945038 
	C353.197144,220.405838 353.814484,222.726288 354.594147,225.656815 
	C270.414703,263.838074 186.131485,302.066376 100.842400,340.750946 
	C104.006142,341.644226 106.416801,341.740234 107.990952,342.936768 
	C109.508354,344.090118 110.161880,346.380005 111.194946,348.170563 
	C109.473404,349.065826 107.602119,350.927795 106.056305,350.688385 
	C99.493263,349.671844 93.000206,348.141571 86.535728,346.575500 
	C83.086998,345.739990 81.903351,343.316162 83.580994,340.105408 
	C86.663605,334.205688 89.721451,328.265961 93.309845,322.676910 
	C94.185555,321.312958 97.077011,321.243164 99.041656,320.578339 
	C99.505692,322.614502 100.436409,324.684998 100.289932,326.676239 
	C100.166985,328.347717 98.788277,329.926819 98.550049,332.639130 
	C176.353424,297.364014 254.156815,262.088928 331.960205,226.813812 
	C331.878235,226.418503 331.796295,226.023193 331.714325,225.627884 
	C261.560455,223.103271 191.406570,220.578659 120.692543,218.033875 
	C120.896248,214.131409 120.896736,210.468002 121.411400,206.878326 
	C121.537155,206.001221 123.266273,205.200256 124.395721,204.643021 
	C164.237457,184.986282 204.091568,165.354614 243.953094,145.738022 
	C265.000427,135.380234 286.064758,125.056953 307.450836,114.541489 
z"/>
<path fill="#F4F4F4" opacity="1.000000" stroke="none" 
	d="
M582.895325,130.089661 
	C583.717468,138.817535 584.507629,147.088074 585.339417,155.793793 
	C580.576111,155.793793 576.056091,155.793793 571.038940,155.793793 
	C571.375854,151.810791 571.710815,147.901917 572.036438,143.992249 
	C573.278503,129.080338 574.468140,114.163620 575.835938,99.263260 
	C575.969971,97.803101 577.192871,96.442886 577.910339,95.036270 
	C578.804993,96.451958 580.348633,97.806160 580.489502,99.293274 
	C581.446228,109.390617 582.107056,119.515976 582.895325,130.089661 
z"/>
</svg>