<?xml version="1.0" encoding="UTF-8"?>
<svg version="1.1" xmlns="http://www.w3.org/2000/svg" width="1300" height="950">
<path d="M0 0 C633.6 0 1267.2 0 1920 0 C1920 356.4 1920 712.8 1920 1080 C1286.4 1080 652.8 1080 0 1080 C0 723.6 0 367.2 0 0 Z " fill="#FEFEFE" transform="translate(0,0)"/>
<path d="M0 0 C1.18564041 -0.0033284 2.37128082 -0.0066568 3.59284973 -0.01008606 C6.10348118 -0.01514028 8.61411933 -0.01749485 11.12475586 -0.01733398 C14.89904443 -0.019498 18.67302958 -0.03760754 22.44726562 -0.05664062 C40.01009525 -0.09784294 57.28241377 0.3603899 74.4375 4.39453125 C77.90869776 5.20027235 81.3892811 5.84041233 84.89453125 6.48046875 C109.18216586 11.38278844 134.08296375 20.32405141 155.85888672 32.14794922 C157.95774825 33.26845056 160.08063962 34.33116717 162.2109375 35.390625 C184.7158242 46.70150439 204.8696397 61.60980869 223.76953125 78.16796875 C224.2898291 78.62365234 224.81012695 79.07933594 225.34619141 79.54882812 C238.9899915 91.59922272 251.58299748 104.84992143 262.47949219 119.44091797 C263.79642957 121.20397911 265.13017054 122.95346533 266.46484375 124.703125 C299.41475946 168.30292418 320.65883324 220.81020138 326.76953125 275.16796875 C326.86451904 276.007229 326.95950684 276.84648926 327.05737305 277.71118164 C328.00984215 287.40943366 327.97094377 297.12045671 327.95703125 306.85546875 C327.95576233 307.76625183 327.95449341 308.67703491 327.95318604 309.61541748 C327.86708183 342.07954755 324.17940612 373.27922164 313.76953125 404.16796875 C313.25362665 405.76162826 312.73800613 407.35537977 312.22265625 408.94921875 C300.64333737 444.01691062 282.75262089 477.21508012 259.06298828 505.61425781 C257.76003204 507.17937927 256.48158772 508.76249771 255.203125 510.34765625 C248.8118547 518.14530722 241.81072669 525.33559203 234.70703125 532.48046875 C233.79719482 533.39957031 232.8873584 534.31867187 231.94995117 535.265625 C225.86369094 541.32397916 219.511578 546.85312202 212.76953125 552.16796875 C212.04854248 552.74297119 211.32755371 553.31797363 210.5847168 553.91040039 C196.13166331 565.36578353 180.90422294 575.25969682 164.76953125 584.16796875 C163.15884766 585.09996094 163.15884766 585.09996094 161.515625 586.05078125 C149.15687207 592.99642852 135.97110229 598.06259643 122.76953125 603.16796875 C121.37299316 603.7086499 121.37299316 603.7086499 119.94824219 604.26025391 C107.13336818 609.15210883 94.19729968 612.43414296 80.76953125 615.16796875 C79.88088379 615.35488281 78.99223633 615.54179688 78.07666016 615.734375 C75.43522423 616.28852917 72.79089696 616.82539663 70.14453125 617.35546875 C69.3956665 617.51039795 68.64680176 617.66532715 67.87524414 617.82495117 C51.99020843 620.87957387 35.93593422 621.47851633 19.80371094 621.3737793 C16.8755631 621.35534936 13.94773158 621.35327193 11.01953125 621.35351562 C-3.33993812 621.32800336 -17.3480371 620.70636616 -31.54296875 618.35546875 C-32.62473389 618.17806152 -33.70649902 618.0006543 -34.82104492 617.81787109 C-43.73686337 616.31875704 -52.50256291 614.52327979 -61.23046875 612.16796875 C-61.95878906 611.97541504 -62.68710937 611.78286133 -63.4375 611.58447266 C-95.65272479 602.93383414 -126.62989933 588.87591585 -154.23046875 570.16796875 C-155.30965576 569.44359619 -155.30965576 569.44359619 -156.41064453 568.70458984 C-178.76490043 553.62213965 -199.67724943 535.68114271 -217.23046875 515.16796875 C-218.03226563 514.2553125 -218.8340625 513.34265625 -219.66015625 512.40234375 C-256.87343986 469.71368606 -280.47592999 416.78395337 -290.48046875 361.29296875 C-290.64377686 360.40303223 -290.80708496 359.5130957 -290.9753418 358.59619141 C-301.36871428 298.03001761 -291.0480796 232.17409071 -264.23046875 177.16796875 C-263.51697266 175.70206299 -263.51697266 175.70206299 -262.7890625 174.20654297 C-253.13950385 154.58968126 -241.77938788 136.33506515 -228.23046875 119.16796875 C-227.52921875 118.27464844 -226.82796875 117.38132812 -226.10546875 116.4609375 C-212.0898158 98.96639926 -196.07689166 81.77220916 -178.23046875 68.16796875 C-177.00532391 67.19289519 -175.78146519 66.21620444 -174.55859375 65.23828125 C-138.65522325 36.80159842 -96.28021695 16.63398536 -51.61035156 6.69897461 C-50.06604777 6.35440539 -48.52356405 6.00153432 -46.98339844 5.63891602 C-41.22808161 4.30054417 -35.45826626 3.40242749 -29.60546875 2.60546875 C-28.703125 2.47978516 -27.80078125 2.35410156 -26.87109375 2.22460938 C-25.18431328 1.9897879 -23.49732864 1.75642391 -21.81005859 1.52514648 C-19.92962494 1.26477601 -18.05485008 0.96252998 -16.18481445 0.63574219 C-10.78219224 -0.00335296 -5.43584044 0.00537194 0 0 Z " fill="#43A047" transform="translate(943.23046875,229.83203125)"/>
<path d="M0 0 C1.2375 0.42410156 2.475 0.84820312 3.75 1.28515625 C18.68898209 6.63743162 30.7774818 14.91048942 42 26 C42.71542969 26.64324219 43.43085937 27.28648437 44.16796875 27.94921875 C60.42218547 42.90569362 70.94145223 67.06319659 72.8125 88.875 C72.90307242 91.24909517 72.96284361 93.62446834 73 96 C73.02433105 96.75007324 73.04866211 97.50014648 73.07373047 98.27294922 C73.61653007 115.13345111 72.08994771 130.49583274 65 146 C64.59265625 146.90878906 64.1853125 147.81757812 63.765625 148.75390625 C58.55992954 159.27247326 50.27284211 167.93330308 41.875 176 C28.77065136 188.87259971 22.12565783 203.12214938 18 221 C-15 221 -48 221 -82 221 C-83.32 215.72 -84.64 210.44 -86 205 C-91.7510512 191.94953767 -99.22665995 182.8329439 -108.9375 172.625 C-130.53528971 149.86304946 -138.03813015 125.08779741 -137.375 93.92578125 C-136.1584068 67.35625469 -123.47478361 43.52771995 -105 25 C-104.24460937 24.22140625 -103.48921875 23.4428125 -102.7109375 22.640625 C-92.03330292 12.29322654 -78.1524739 4.38916773 -64 0 C-62.93394531 -0.38929688 -61.86789062 -0.77859375 -60.76953125 -1.1796875 C-42.59355219 -6.9278161 -17.85768023 -6.63462425 0 0 Z " fill="#FDFEFC" transform="translate(992,386)"/>
<path d="M0 0 C7.59729915 4.30208506 11.71059232 9.53667941 14.03125 17.90625 C14.32726189 21.0183526 14.33523266 24.11662873 14.33764648 27.24121094 C14.34597 28.16236694 14.35429352 29.08352295 14.36286926 30.03259277 C14.38690377 33.06864693 14.39573388 36.10448589 14.40234375 39.140625 C14.4113158 41.26043764 14.42043775 43.38024965 14.42970276 45.50006104 C14.44617805 49.94178809 14.45389009 54.3834399 14.45678711 58.82519531 C14.46216605 64.49885917 14.4998328 70.17180944 14.54553127 75.84527206 C14.57536972 80.2240859 14.58251217 84.60272941 14.58351326 88.98163605 C14.58770287 91.07230137 14.60008622 93.1629678 14.62103081 95.25353241 C14.82771563 117.66953683 14.82771563 117.66953683 7.2900238 125.77972412 C2.36866052 130.49098801 -3.06503754 133.03019633 -9.90625 133.28125 C-17.55300504 133.00318618 -22.87529522 130.55272601 -28.52734375 125.45703125 C-29.96875 123.90625 -29.96875 123.90625 -31.34375 121.21875 C-33.25867013 118.49367135 -33.92230215 118.47553643 -37.03125 117.65625 C-44.43006062 115.51639791 -50.74640336 109.74254414 -54.46875 103.03125 C-55.87624429 99.80114789 -56.38556696 96.63054213 -56.90625 93.15625 C-57.50997029 88.86938206 -57.50997029 88.86938206 -60.34375 85.65625 C-61.643125 84.79 -61.643125 84.79 -62.96875 83.90625 C-68.28092359 76.36014911 -68.99754288 68.92501371 -67.96875 59.90625 C-65.81873611 54.45768059 -62.94916368 50.09492949 -57.96875 46.90625 C-57.30875 46.90625 -56.64875 46.90625 -55.96875 46.90625 C-56.03835938 46.25140625 -56.10796875 45.5965625 -56.1796875 44.921875 C-56.71080509 35.9687499 -54.10702025 28.80657934 -48.29296875 21.921875 C-44.20736563 18.1274298 -38.68300511 14.90625 -32.96875 14.90625 C-32.741875 14.019375 -32.515 13.1325 -32.28125 12.21875 C-29.92237163 6.26539029 -25.31557774 3.1608408 -19.96875 -0.09375 C-13.6762283 -2.19125723 -6.23699287 -2.29783948 0 0 Z " fill="#FCFDFB" transform="translate(939.96875,418.09375)"/>
<path d="M0 0 C5.33478502 2.42342368 8.61807734 5.40157519 11.80859375 10.296875 C14.30728465 14.01766706 16.71549787 15.58934264 20.8125 17.3515625 C27.4990857 20.60212168 31.24096081 25.1085774 35 31.4140625 C36.49422549 36.68779952 36.30383943 41.72051757 36.0625 47.1640625 C36.83335938 47.43863281 37.60421875 47.71320313 38.3984375 47.99609375 C43.16174456 50.08440579 45.39465171 53.98957068 47.875 58.3515625 C50.0908882 65.46572988 50.09000994 71.71540389 46.9375 78.5390625 C45.24284316 81.624207 43.76948754 83.61738063 40.875 85.6015625 C37.16467466 88.98208115 37.19905339 91.55246185 36.54296875 96.37890625 C35.00787555 105.27745461 29.16931623 111.01162074 22.0625 116.1640625 C18.6304417 117.83823728 16.98346167 118.1640625 13.0625 118.1640625 C12.81886719 118.90269531 12.57523438 119.64132812 12.32421875 120.40234375 C9.70492046 126.13560657 4.30643591 130.18489047 -1.375 132.6640625 C-10.55526848 133.95252123 -17.05589843 133.50728349 -24.9375 128.1640625 C-29.00884853 124.53101704 -32.48751826 119.51667134 -33.22329903 114.03470421 C-33.34830138 111.47052817 -33.37713196 108.92149503 -33.37329102 106.35424805 C-33.38336685 105.3827179 -33.39344269 104.41118774 -33.40382385 103.41021729 C-33.43225841 100.20695401 -33.43817829 97.00416278 -33.44140625 93.80078125 C-33.45105085 91.56647042 -33.46114359 89.33216149 -33.47166443 87.09785461 C-33.48961483 82.41651011 -33.4951866 77.73533156 -33.4934082 73.05395508 C-33.49310351 67.06841802 -33.53404954 61.08395003 -33.58572483 55.09866619 C-33.61915563 50.4839646 -33.62516369 45.86951952 -33.62357903 41.25470924 C-33.62710914 39.04877858 -33.64032256 36.84284057 -33.66357613 34.63702965 C-33.69312323 31.54462179 -33.68428991 28.45450897 -33.66625977 25.36206055 C-33.68311829 24.45941971 -33.69997681 23.55677887 -33.71734619 22.62678528 C-33.61571521 15.73320373 -31.30512825 11.43718749 -26.9375 6.1640625 C-24.671875 4.0078125 -24.671875 4.0078125 -22.6875 2.6640625 C-22.02234375 2.2 -21.3571875 1.7359375 -20.671875 1.2578125 C-14.76531579 -2.46704466 -6.54351244 -1.86211657 0 0 Z " fill="#FCFDFB" transform="translate(999.9375,417.8359375)"/>
<path d="M0 0 C7.59729915 4.30208506 11.71059232 9.53667941 14.03125 17.90625 C14.32726189 21.0183526 14.33523266 24.11662873 14.33764648 27.24121094 C14.34597 28.16236694 14.35429352 29.08352295 14.36286926 30.03259277 C14.38690377 33.06864693 14.39573388 36.10448589 14.40234375 39.140625 C14.4113158 41.26043764 14.42043775 43.38024965 14.42970276 45.50006104 C14.44617805 49.94178809 14.45389009 54.3834399 14.45678711 58.82519531 C14.46216605 64.49885917 14.4998328 70.17180944 14.54553127 75.84527206 C14.57536972 80.2240859 14.58251217 84.60272941 14.58351326 88.98163605 C14.58770287 91.07230137 14.60008622 93.1629678 14.62103081 95.25353241 C14.82771563 117.66953683 14.82771563 117.66953683 7.2900238 125.77972412 C2.36866052 130.49098801 -3.06503754 133.03019633 -9.90625 133.28125 C-17.55300504 133.00318618 -22.87529522 130.55272601 -28.52734375 125.45703125 C-29.96875 123.90625 -29.96875 123.90625 -31.34375 121.21875 C-33.25867013 118.49367135 -33.92230215 118.47553643 -37.03125 117.65625 C-44.43006062 115.51639791 -50.74640336 109.74254414 -54.46875 103.03125 C-55.87624429 99.80114789 -56.38556696 96.63054213 -56.90625 93.15625 C-57.50997029 88.86938206 -57.50997029 88.86938206 -60.34375 85.65625 C-61.643125 84.79 -61.643125 84.79 -62.96875 83.90625 C-68.28092359 76.36014911 -68.99754288 68.92501371 -67.96875 59.90625 C-65.81873611 54.45768059 -62.94916368 50.09492949 -57.96875 46.90625 C-57.30875 46.90625 -56.64875 46.90625 -55.96875 46.90625 C-56.03835938 46.25140625 -56.10796875 45.5965625 -56.1796875 44.921875 C-56.71080509 35.9687499 -54.10702025 28.80657934 -48.29296875 21.921875 C-44.20736563 18.1274298 -38.68300511 14.90625 -32.96875 14.90625 C-32.741875 14.019375 -32.515 13.1325 -32.28125 12.21875 C-29.92237163 6.26539029 -25.31557774 3.1608408 -19.96875 -0.09375 C-13.6762283 -2.19125723 -6.23699287 -2.29783948 0 0 Z M-24.28125 12.53125 C-26.92406159 16.2507626 -27.24316573 18.33265449 -26.96875 22.90625 C-26.33400925 24.25507408 -25.67026152 25.5909159 -24.96875 26.90625 C-24.96875 28.22625 -24.96875 29.54625 -24.96875 30.90625 C-26.61875 30.90625 -28.26875 30.90625 -29.96875 30.90625 C-31.28875 28.26625 -32.60875 25.62625 -33.96875 22.90625 C-37.83640375 23.02345163 -39.86139485 24.41623138 -42.59375 26.96875 C-46.97811676 31.63967668 -48.66745696 36.09418164 -49.34375 42.40625 C-48.9580537 46.00608214 -48.07107677 48.72457202 -46.625 52.01171875 C-45.96875 53.90625 -45.96875 53.90625 -45.96875 57.90625 C-48.21875 58.15625 -48.21875 58.15625 -50.96875 57.90625 C-53.28125 55.90625 -53.28125 55.90625 -54.96875 53.90625 C-58.35154282 56.76551536 -60.65339623 59.3380622 -61.54296875 63.76171875 C-61.79755125 70.68811855 -60.6839035 75.72218621 -55.96875 80.90625 C-51.95749277 84.26703309 -48.03195602 84.47716474 -42.96875 84.90625 C-42.63875 86.55625 -42.30875 88.20625 -41.96875 89.90625 C-45.43375 90.89625 -45.43375 90.89625 -48.96875 91.90625 C-48.42814649 98.66379391 -46.43662933 102.56492859 -41.53125 107.21875 C-38.76043314 109.27336373 -38.76043314 109.27336373 -33.96875 109.90625 C-33.30875 106.27625 -32.64875 102.64625 -31.96875 98.90625 C-29.98875 98.41125 -29.98875 98.41125 -27.96875 97.90625 C-27.05273325 101.67362715 -27.02359917 104.86409157 -27.28125 108.71875 C-27.33587332 114.26301709 -26.28504959 117.23249106 -22.59765625 121.34765625 C-18.80788121 124.97384387 -16.25511609 126.07822979 -11.03125 126.28125 C-5.97298461 126.10113372 -2.26618881 125.19088971 1.43359375 121.51171875 C5.45957676 116.90225994 7.29439929 113.58968632 7.2265625 107.484375 C7.22011719 106.45957031 7.21367188 105.43476562 7.20703125 104.37890625 C7.19027344 103.31542969 7.17351562 102.25195312 7.15625 101.15625 C7.14722656 100.07730469 7.13820313 98.99835938 7.12890625 97.88671875 C7.10536305 95.22633722 7.07247799 92.56640664 7.03125 89.90625 C2.03294141 89.76708596 -0.08584687 89.7999275 -3.96875 92.90625 C-6.71875 93.09375 -6.71875 93.09375 -8.96875 92.90625 C-8.90625 90.65625 -8.90625 90.65625 -7.96875 87.90625 C-2.49791909 83.88686402 -0.34976111 83.82887639 7.03125 82.90625 C7.03125 75.64625 7.03125 68.38625 7.03125 60.90625 C5.05125 59.91625 3.07125 58.92625 1.03125 57.90625 C-3.21286091 53.75645267 -4.6134131 50.82853163 -4.96875 44.90625 C-2.78125 44.40625 -2.78125 44.40625 0.03125 44.90625 C1.56730754 46.89614272 2.73624154 48.93906801 3.91796875 51.15625 C4.46904297 52.0225 4.46904297 52.0225 5.03125 52.90625 C5.69125 52.90625 6.35125 52.90625 7.03125 52.90625 C7.10570407 48.17402545 7.1599947 43.44214589 7.19604492 38.70947266 C7.21108176 37.10133928 7.23151672 35.49324656 7.25756836 33.88525391 C7.29417822 31.56662936 7.31102722 29.24854951 7.32421875 26.9296875 C7.33970261 26.21694672 7.35518646 25.50420593 7.37113953 24.76986694 C7.3732012 18.5805245 5.65720263 14.7406581 1.59375 10.15625 C-3.2468058 5.90600589 -6.94389755 5.46334349 -13.27734375 5.58984375 C-18.37630059 6.1892857 -21.00550211 8.81283348 -24.28125 12.53125 Z " fill="#49A34D" transform="translate(939.96875,418.09375)"/>
<path d="M0 0 C5.33478502 2.42342368 8.61807734 5.40157519 11.80859375 10.296875 C14.30728465 14.01766706 16.71549787 15.58934264 20.8125 17.3515625 C27.4990857 20.60212168 31.24096081 25.1085774 35 31.4140625 C36.49422549 36.68779952 36.30383943 41.72051757 36.0625 47.1640625 C36.83335938 47.43863281 37.60421875 47.71320313 38.3984375 47.99609375 C43.16174456 50.08440579 45.39465171 53.98957068 47.875 58.3515625 C50.0908882 65.46572988 50.09000994 71.71540389 46.9375 78.5390625 C45.24284316 81.624207 43.76948754 83.61738063 40.875 85.6015625 C37.16467466 88.98208115 37.19905339 91.55246185 36.54296875 96.37890625 C35.00787555 105.27745461 29.16931623 111.01162074 22.0625 116.1640625 C18.6304417 117.83823728 16.98346167 118.1640625 13.0625 118.1640625 C12.81886719 118.90269531 12.57523438 119.64132812 12.32421875 120.40234375 C9.70492046 126.13560657 4.30643591 130.18489047 -1.375 132.6640625 C-10.55526848 133.95252123 -17.05589843 133.50728349 -24.9375 128.1640625 C-29.00884853 124.53101704 -32.48751826 119.51667134 -33.22329903 114.03470421 C-33.34830138 111.47052817 -33.37713196 108.92149503 -33.37329102 106.35424805 C-33.38336685 105.3827179 -33.39344269 104.41118774 -33.40382385 103.41021729 C-33.43225841 100.20695401 -33.43817829 97.00416278 -33.44140625 93.80078125 C-33.45105085 91.56647042 -33.46114359 89.33216149 -33.47166443 87.09785461 C-33.48961483 82.41651011 -33.4951866 77.73533156 -33.4934082 73.05395508 C-33.49310351 67.06841802 -33.53404954 61.08395003 -33.58572483 55.09866619 C-33.61915563 50.4839646 -33.62516369 45.86951952 -33.62357903 41.25470924 C-33.62710914 39.04877858 -33.64032256 36.84284057 -33.66357613 34.63702965 C-33.69312323 31.54462179 -33.68428991 28.45450897 -33.66625977 25.36206055 C-33.68311829 24.45941971 -33.69997681 23.55677887 -33.71734619 22.62678528 C-33.61571521 15.73320373 -31.30512825 11.43718749 -26.9375 6.1640625 C-24.671875 4.0078125 -24.671875 4.0078125 -22.6875 2.6640625 C-22.02234375 2.2 -21.3571875 1.7359375 -20.671875 1.2578125 C-14.76531579 -2.46704466 -6.54351244 -1.86211657 0 0 Z M-25.02050781 14.76757812 C-26.36389076 18.27840001 -26.18267144 21.72592236 -26.1328125 25.4296875 C-26.1299826 26.22308533 -26.12715271 27.01648315 -26.12423706 27.83392334 C-26.11306779 30.36079167 -26.08796944 32.88730182 -26.0625 35.4140625 C-26.05246598 37.1302032 -26.04334087 38.84634948 -26.03515625 40.5625 C-26.01313914 44.76315824 -25.97863187 48.9635497 -25.9375 53.1640625 C-23.28997996 50.58621404 -20.99317935 48.24758152 -18.9375 45.1640625 C-17.6175 45.1640625 -16.2975 45.1640625 -14.9375 45.1640625 C-15.30401584 52.3722073 -15.30401584 52.3722073 -18.1875 55.9765625 C-20.9375 58.1640625 -20.9375 58.1640625 -23.58984375 59.1015625 C-26.14044816 60.90799709 -26.14044816 60.90799709 -26.33935547 63.46557617 C-26.4310931 66.44186617 -26.37170262 69.37640146 -26.25 72.3515625 C-26.22744141 73.38732422 -26.20488281 74.42308594 -26.18164062 75.49023438 C-26.12266846 78.04962654 -26.04042567 80.60612201 -25.9375 83.1640625 C-25.01408813 83.35234619 -25.01408813 83.35234619 -24.07202148 83.54443359 C-22.85881226 83.80087646 -22.85881226 83.80087646 -21.62109375 84.0625 C-20.81986084 84.22927246 -20.01862793 84.39604492 -19.19311523 84.56787109 C-16.42830301 85.29865055 -14.30558192 86.58534122 -11.9375 88.1640625 C-11.2775 88.1640625 -10.6175 88.1640625 -9.9375 88.1640625 C-10.2675 89.8140625 -10.5975 91.4640625 -10.9375 93.1640625 C-16.4575 92.41133523 -16.4575 92.41133523 -19 91.1015625 C-21.420036 89.93057734 -23.27912943 90.09858539 -25.9375 90.1640625 C-26.05478126 93.83045498 -26.12510891 97.4963577 -26.1875 101.1640625 C-26.23777344 102.70900391 -26.23777344 102.70900391 -26.2890625 104.28515625 C-26.37224437 110.81493289 -25.81257738 115.77087855 -21.9375 121.1640625 C-18.58982127 124.53987298 -14.64264952 126.44188077 -9.875 126.6640625 C-3.00819822 125.79208767 1.66555942 123.56601807 6.0625 118.1640625 C8.93654164 111.86854272 8.36045188 105.81606589 7.0625 99.1640625 C8.9375 98.5390625 8.9375 98.5390625 11.0625 98.1640625 C13.48380331 100.58536581 13.59090504 101.96517627 14.1875 105.2890625 C14.43886719 106.65417969 14.43886719 106.65417969 14.6953125 108.046875 C14.81648437 108.74554687 14.93765625 109.44421875 15.0625 110.1640625 C21.24027617 109.2049086 23.58640531 106.0391017 27.375 101.2265625 C29.22866002 97.86251283 29.422174 95.94063948 29.0625 92.1640625 C26.7525 91.5040625 24.4425 90.8440625 22.0625 90.1640625 C22.0625 88.5140625 22.0625 86.8640625 22.0625 85.1640625 C22.78695312 85.07769531 23.51140625 84.99132812 24.2578125 84.90234375 C30.72039412 83.96311522 34.6693432 83.1063639 39.0625 78.1640625 C41.78176873 73.36002108 43.1830377 68.65262215 42.0625 63.1640625 C40.77814172 60.1825165 39.38179916 57.45894799 37.0625 55.1640625 C35.7425 55.1640625 34.4225 55.1640625 33.0625 55.1640625 C32.7325 56.4840625 32.4025 57.8040625 32.0625 59.1640625 C30.4125 58.8340625 28.7625 58.5040625 27.0625 58.1640625 C27.52072468 54.69464704 27.95381683 51.49011201 29.0625 48.1640625 C29.96012411 40.59675038 29.50395733 35.14177838 24.78125 29.015625 C21.89816393 25.90975501 19.29625024 23.35552681 14.875 22.9765625 C12.6722189 24.17559142 12.6722189 24.17559142 11.625 27.6640625 C11.109375 28.8190625 10.59375 29.9740625 10.0625 31.1640625 C7.375 32.1015625 7.375 32.1015625 5.0625 32.1640625 C5.206875 31.59558594 5.35125 31.02710938 5.5 30.44140625 C7.69485711 21.59733356 7.69485711 21.59733356 5.5 12.9765625 C1.7791273 8.68324785 -1.24875483 6.62636394 -6.77734375 5.67578125 C-15.29334912 5.12809364 -20.24839552 7.70192584 -25.02050781 14.76757812 Z " fill="#48A24C" transform="translate(999.9375,417.8359375)"/>
<path d="M0 0 C1.00962799 -0.00281982 2.01925598 -0.00563965 3.05947876 -0.00854492 C4.17640106 -0.00652069 5.29332336 -0.00449646 6.4440918 -0.00241089 C8.1975441 -0.00503937 8.1975441 -0.00503937 9.98641968 -0.00772095 C13.20121494 -0.011379 16.41596932 -0.01050611 19.63076401 -0.00734186 C22.98821858 -0.00481777 26.34567033 -0.00715593 29.703125 -0.00872803 C35.34237156 -0.01054958 40.98160504 -0.00814379 46.62084961 -0.00338745 C53.14931314 0.00205515 59.67774545 0.00029248 66.20620823 -0.00521386 C71.80195414 -0.00974539 77.39769062 -0.01039534 82.99343777 -0.00777519 C86.33967539 -0.00621264 89.68589832 -0.00601805 93.03213501 -0.00931168 C96.7606216 -0.0118365 100.48904728 -0.008 104.2175293 -0.00241089 C105.3344516 -0.00443512 106.4513739 -0.00645935 107.60214233 -0.00854492 C109.11658432 -0.00431519 109.11658432 -0.00431519 110.66162109 0 C111.98567207 0.00056554 111.98567207 0.00056554 113.33647156 0.0011425 C115.33081055 0.12698364 115.33081055 0.12698364 116.33081055 1.12698364 C116.42980578 2.67653923 116.46160579 4.23052037 116.46362305 5.78323364 C116.46491211 6.72296021 116.46620117 7.66268677 116.4675293 8.63088989 C116.46366211 9.61960083 116.45979492 10.60831177 116.45581055 11.62698364 C116.45967773 12.61569458 116.46354492 13.60440552 116.4675293 14.62307739 C116.46624023 15.56280396 116.46495117 16.50253052 116.46362305 17.47073364 C116.46249512 18.33891724 116.46136719 19.20710083 116.46020508 20.10159302 C116.33081055 22.12698364 116.33081055 22.12698364 115.33081055 23.12698364 C113.77460659 23.22286488 112.21404601 23.24886397 110.65489197 23.24723816 C109.64381882 23.24861282 108.63274567 23.24998749 107.59103394 23.25140381 C105.91329391 23.24601089 105.91329391 23.24601089 104.20166016 23.24050903 C103.03108566 23.24065506 101.86051117 23.24080109 100.65446472 23.24095154 C97.43560112 23.2403726 94.21678051 23.23534356 90.99792552 23.22837758 C87.63733655 23.22214321 84.27674681 23.22154018 80.91615295 23.22035217 C74.54838713 23.2172391 68.18063839 23.20902604 61.8128801 23.19900268 C54.56511326 23.18784079 47.31734562 23.1823309 40.06957233 23.17730725 C25.1566422 23.16684341 10.24372808 23.14924444 -4.66918945 23.12698364 C-5.861383 20.74259655 -5.79834968 19.25042363 -5.80200195 16.59182739 C-5.80329102 15.70044067 -5.80458008 14.80905396 -5.8059082 13.89065552 C-5.80204102 12.9580188 -5.79817383 12.02538208 -5.79418945 11.06448364 C-5.79805664 10.12797974 -5.80192383 9.19147583 -5.8059082 8.22659302 C-5.80461914 7.33649536 -5.80333008 6.44639771 -5.80200195 5.52932739 C-5.80087402 4.70940308 -5.79974609 3.88947876 -5.79858398 3.04470825 C-5.54239267 -0.75224033 -3.26896278 0.00139626 0 0 Z " fill="#FEFEFD" transform="translate(904.669189453125,613.8730163574219)"/>
<path d="M0 0 C34.98 0 69.96 0 106 0 C106 6.93 106 13.86 106 21 C102.62487157 24.37512843 102.62487157 24.37512843 98.86303711 24.38095093 C98.02183319 24.3894104 97.18062927 24.39786987 96.31393433 24.40658569 C95.39435944 24.400513 94.47478455 24.39444031 93.52734375 24.38818359 C92.55636749 24.39344055 91.58539124 24.39869751 90.58499146 24.40411377 C87.3689983 24.41733917 84.15349837 24.40856654 80.9375 24.3984375 C78.7069489 24.4004575 76.47639844 24.40336832 74.24584961 24.40713501 C69.56845825 24.41156181 64.89123861 24.40511573 60.21386719 24.39111328 C54.21113923 24.37402135 48.20881365 24.3838606 42.20610046 24.40183067 C37.59937495 24.4126588 32.99274521 24.40922661 28.38601685 24.4014473 C26.17237297 24.39944261 23.95872047 24.40191394 21.74508667 24.40888596 C18.65404141 24.41648434 15.56365249 24.40491854 12.47265625 24.38818359 C11.09329391 24.39729263 11.09329391 24.39729263 9.68606567 24.40658569 C8.4242598 24.39389648 8.4242598 24.39389648 7.13696289 24.38095093 C6.40619034 24.37981985 5.67541779 24.37868877 4.92250061 24.37752342 C3 24 3 24 0 21 C0 14.07 0 7.14 0 0 Z " fill="#FAFCF9" transform="translate(907,644)"/>
<path d="M0 0 C24.09 0 48.18 0 73 0 C70.24788801 8.25633598 64.85169498 15.05780699 56.90234375 19.0546875 C45.6173866 24.21675471 34.79857609 26.12071572 22.625 22.375 C13.4828767 18.87297696 5.77711535 13.58769613 0.83984375 4.9765625 C0 3 0 3 0 0 Z " fill="#FDFEFC" transform="translate(924,675)"/>
<path d="M0 0 C0.91119598 -0.00960754 1.82239197 -0.01921509 2.76119995 -0.02911377 C3.75282135 -0.03336365 4.74444275 -0.03761353 5.76611328 -0.04199219 C6.77860138 -0.04769226 7.79108948 -0.05339233 8.83425903 -0.05926514 C10.98129221 -0.06873135 13.12834002 -0.07525552 15.27539062 -0.07910156 C18.56552415 -0.08880554 21.85503284 -0.11981329 25.14501953 -0.15136719 C27.22704706 -0.157897 29.30907907 -0.16314755 31.39111328 -0.16699219 C32.37868622 -0.17933899 33.36625916 -0.19168579 34.38375854 -0.20440674 C35.30125885 -0.20140564 36.21875916 -0.19840454 37.1640625 -0.1953125 C38.37532303 -0.20078094 38.37532303 -0.20078094 39.61105347 -0.20635986 C42.22525137 0.25103456 43.1377986 1.0562893 44.71142578 3.16113281 C44.52392578 5.28613281 44.52392578 5.28613281 43.71142578 7.16113281 C41.37883732 8.32742704 39.99927329 8.29379534 37.40112305 8.30639648 C36.51002335 8.31277634 35.61892365 8.31915619 34.70082092 8.32572937 C33.73623459 8.32684219 32.77164825 8.32795502 31.77783203 8.32910156 C30.29451637 8.33409416 30.29451637 8.33409416 28.78123474 8.33918762 C26.68725043 8.3442562 24.59325802 8.34659597 22.49926758 8.34643555 C19.29055514 8.34862148 16.08218669 8.36677649 12.87353516 8.38574219 C10.84163529 8.38867619 8.80973379 8.39066094 6.77783203 8.39160156 C5.81526993 8.39878708 4.85270782 8.4059726 3.86097717 8.41337585 C2.96672531 8.41029922 2.07247345 8.4072226 1.15112305 8.40405273 C0.36439713 8.40547775 -0.4223288 8.40690277 -1.2328949 8.40837097 C-3.28857422 8.16113281 -3.28857422 8.16113281 -6.28857422 6.16113281 C-5.19062314 0.04397679 -5.19062314 0.04397679 0 0 Z " fill="#ECF5EB" transform="translate(796.28857421875,475.8388671875)"/>
<path d="M0 0 C0.495 1.98 0.495 1.98 1 4 C-6.28937474 8.89682134 -14.10928943 12.46991564 -22.0625 16.125 C-23.41232347 16.75084052 -24.76193444 17.37713958 -26.11132812 18.00390625 C-29.73493672 19.6826477 -33.36077506 21.35527287 -37 23 C-37.62260712 23.28897156 -38.24521423 23.57794312 -38.88668823 23.87567139 C-42.73229666 25.61306357 -44.90943869 26.36352044 -49 25 C-49.33 23.68 -49.66 22.36 -50 21 C-46.01126448 18.23005516 -42.10491081 15.97432377 -37.67578125 13.94140625 C-36.48146484 13.39033203 -35.28714844 12.83925781 -34.05664062 12.27148438 C-32.80864055 11.70172039 -31.56059347 11.13205937 -30.3125 10.5625 C-29.08377282 9.99720439 -27.85525558 9.43145225 -26.62695312 8.86523438 C-24.22687389 7.75917437 -21.82312034 6.66274336 -19.41650391 5.57080078 C-17.20785766 4.55533487 -15.01099762 3.51364784 -12.82958984 2.44091797 C-11.86875488 1.97443848 -10.90791992 1.50795898 -9.91796875 1.02734375 C-9.08418701 0.610896 -8.25040527 0.19444824 -7.39135742 -0.23461914 C-4.54229938 -1.14649224 -2.84239163 -0.81242838 0 0 Z " fill="#F7FBF7" transform="translate(840,512)"/>
<path d="M0 0 C4.52322552 0.45513098 8.12351758 1.76995139 12.21875 3.6953125 C13.39268311 4.24316406 14.56661621 4.79101562 15.77612305 5.35546875 C17.01773038 5.94464911 18.25901788 6.5345039 19.5 7.125 C20.76527267 7.72288527 22.03065377 8.32054111 23.29614258 8.91796875 C25.76293352 10.08431658 28.22713881 11.25592146 30.68994141 12.43066406 C33.42239448 13.72615074 36.16378919 14.99391169 38.91796875 16.2421875 C40.17487002 16.82728611 41.43142989 17.41311922 42.6875 18 C43.72261719 18.474375 44.75773437 18.94875 45.82421875 19.4375 C48 21 48 21 48.89453125 23.625 C48.94673828 24.800625 48.94673828 24.800625 49 26 C48.505 26.495 48.505 26.495 48 27 C42.42520937 26.59822526 38.14934488 24.97198511 33.16015625 22.54296875 C32.07147499 22.02661613 32.07147499 22.02661613 30.96080017 21.49983215 C28.65704945 20.40451557 26.35983466 19.29620004 24.0625 18.1875 C22.52449334 17.45422847 20.98608498 16.72179887 19.44726562 15.99023438 C12.59748178 12.72584581 5.78055505 9.40611442 -1 6 C-1.042721 4.33388095 -1.04063832 2.66617115 -1 1 C-0.67 0.67 -0.34 0.34 0 0 Z " fill="#F8FBF7" transform="translate(1081,511)"/>
<path d="M0 0 C-0.11230469 2.78515625 -0.11230469 2.78515625 -1 6 C-3.66113281 7.87109375 -3.66113281 7.87109375 -7.203125 9.4375 C-7.83675964 9.7255249 -8.47039429 10.0135498 -9.12322998 10.31030273 C-11.15651317 11.2287002 -13.20215233 12.11462691 -15.25 13 C-16.58167778 13.59423286 -17.91241927 14.19056868 -19.2421875 14.7890625 C-21.87217643 15.97010511 -24.50860052 17.13468336 -27.15039062 18.2890625 C-29.69295019 19.40657263 -32.20799065 20.56580814 -34.70898438 21.7734375 C-36.42311523 22.59714844 -36.42311523 22.59714844 -38.171875 23.4375 C-39.17831055 23.93121094 -40.18474609 24.42492187 -41.22167969 24.93359375 C-44.06371804 26.02445698 -45.98788924 26.30509163 -49 26 C-50 25 -50 25 -50.0625 22.4375 C-50.041875 21.633125 -50.02125 20.82875 -50 20 C-41.01670955 15.63137245 -32.01701894 11.29851717 -23 7 C-22.02160156 6.53239258 -21.04320312 6.06478516 -20.03515625 5.58300781 C-17.57229781 4.41396377 -15.10142892 3.26495188 -12.625 2.125 C-11.91424316 1.78597656 -11.20348633 1.44695312 -10.47119141 1.09765625 C-6.59622301 -0.65532823 -4.09310555 -1.40651117 0 0 Z " fill="#F8FBF7" transform="translate(1130,423)"/>
<path d="M0 0 C5.47251996 0.4171662 9.86146483 2.58038361 14.72265625 4.9296875 C15.5457579 5.32068634 16.36885956 5.71168518 17.21690369 6.11453247 C18.95072773 6.93985562 20.68284272 7.76877763 22.41333008 8.60107422 C25.0537809 9.87080718 27.69917956 11.12969994 30.34570312 12.38671875 C32.03415405 13.19207993 33.72231506 13.99804924 35.41015625 14.8046875 C36.19673111 15.17979462 36.98330597 15.55490173 37.79371643 15.94137573 C41.64770548 17.79762375 45.37557202 19.71473077 49 22 C48.67 23.32 48.34 24.64 48 26 C43.65550662 27.2931918 41.46637271 26.6898188 37.421875 24.75390625 C35.81505859 23.99762939 35.81505859 23.99762939 34.17578125 23.22607422 C33.04527344 22.67709473 31.91476562 22.12811523 30.75 21.5625 C29.59371094 21.01352051 28.43742188 20.46454102 27.24609375 19.89892578 C24.91741065 18.79254228 22.59119965 17.68093953 20.26757812 16.56396484 C17.38099314 15.1823552 14.48498253 13.82655967 11.578125 12.48828125 C10.7934082 12.12597412 10.00869141 11.76366699 9.20019531 11.39038086 C7.76799534 10.72942661 6.33508745 10.07000347 4.90136719 9.41235352 C2.20448646 8.15152368 0.12305861 7.12305861 -2 5 C-1.46428571 1.46428571 -1.46428571 1.46428571 0 0 Z " fill="#F8FBF7" transform="translate(792,422)"/>
<path d="M0 0 C15.84 0 31.68 0 48 0 C48.495 2.475 48.495 2.475 49 5 C46.55871331 7.44128669 45.92919186 7.252187 42.58203125 7.25878906 C41.21050903 7.26824554 41.21050903 7.26824554 39.8112793 7.27789307 C38.32688354 7.27182037 38.32688354 7.27182037 36.8125 7.265625 C35.79905518 7.26753845 34.78561035 7.2694519 33.74145508 7.27142334 C31.59618888 7.27278591 29.45091447 7.26908447 27.30566406 7.26074219 C24.01348428 7.25004382 20.72185022 7.26063519 17.4296875 7.2734375 C15.34895712 7.27211592 13.26822709 7.26955355 11.1875 7.265625 C10.19790283 7.26967346 9.20830566 7.27372192 8.1887207 7.27789307 C7.27437256 7.27158875 6.36002441 7.26528442 5.41796875 7.25878906 C4.61125732 7.25719788 3.8045459 7.25560669 2.97338867 7.25396729 C1 7 1 7 -1 5 C-0.67 3.35 -0.34 1.7 0 0 Z " fill="#F8FBF7" transform="translate(1081,477)"/>
<path d="M0 0 C0.66 0.66 1.32 1.32 2 2 C1.890625 3.984375 1.890625 3.984375 1 6 C-0.890625 7.203125 -0.890625 7.203125 -3.25 8.25 C-8.29975823 10.81917524 -10.53008065 13.99810303 -13 19 C-16.875 18.125 -16.875 18.125 -18 17 C-17.88869643 11.43482166 -16.37184408 8.44236391 -12.6796875 4.51171875 C-8.90436486 1.11392837 -5.10135913 -0.7085221 0 0 Z " fill="#4CA450" transform="translate(926,483)"/>
<path d="M0 0 C6.79244577 0.52249583 10.66059773 2.40245698 15.3125 7.25 C17.73126134 10.1512764 17.99520956 10.94970038 18.375 14.9375 C18.25125 15.948125 18.1275 16.95875 18 18 C16.1875 18.6875 16.1875 18.6875 14 19 C11.69643523 17.36830829 10.72515981 15.52157449 9.3125 13.0625 C6.40511112 9.21217419 3.37942279 7.80704338 -1 6 C-1.042721 4.33388095 -1.04063832 2.66617115 -1 1 C-0.67 0.67 -0.34 0.34 0 0 Z " fill="#4BA44F" transform="translate(994,483)"/>
<path d="M0 0 C2.375 0.0625 2.375 0.0625 5 1 C5.4125 1.94875 5.825 2.8975 6.25 3.875 C8.25694776 7.45883528 8.94395524 7.66024601 12.6875 8.875 C14.11900804 9.2722606 15.5550843 9.65467424 17 10 C17.042721 11.66611905 17.04063832 13.33382885 17 15 C16 16 16 16 12.375 16.375 C7.45957956 16.3044015 4.412844 14.44886346 1 11 C-2.13043478 6.20652174 -2.13043478 6.20652174 -1.75 2.6875 C-1 1 -1 1 0 0 Z " fill="#4AA34E" transform="translate(904,454)"/>
<path d="M0 0 C1.65 0.33 3.3 0.66 5 1 C5.48238394 5.05202513 5.18904731 6.70783598 2.9375 10.1875 C-0.56969236 13.97288325 -4.69607363 15.74400818 -9.8125 16.3125 C-12 16 -12 16 -14 14 C-13.89453125 11.9921875 -13.89453125 11.9921875 -13 10 C-11.07421875 8.9453125 -11.07421875 8.9453125 -8.6875 8.125 C-3.9915232 6.25558248 -2.31831815 4.43504341 0 0 Z " fill="#48A24C" transform="translate(1013,454)"/>
</svg>
