<?xml version="1.0" encoding="UTF-8"?>
<svg version="1.1" xmlns="http://www.w3.org/2000/svg" width="1300" height="950">
<path d="M0 0 C633.6 0 1267.2 0 1920 0 C1920 356.4 1920 712.8 1920 1080 C1286.4 1080 652.8 1080 0 1080 C0 723.6 0 367.2 0 0 Z " fill="#FEFEFE" transform="translate(0,0)"/>
<path d="M0 0 C81.39263616 -1.34734079 156.19714952 24.3532634 217.76269531 78.05761719 C218.59800781 78.78078125 219.43332031 79.50394531 220.29394531 80.24902344 C230.38759339 89.14650868 240.1767219 98.68590561 248.76269531 109.05761719 C249.65320811 110.08766212 250.54384578 111.11759909 251.43457031 112.14746094 C294.07947839 162.24567241 322.50768678 230.4495143 323.00097656 296.60839844 C323.0107251 297.69270645 323.02047363 298.77701447 323.03051758 299.8941803 C323.19283081 322.61062758 323.25131138 344.70972772 318.76269531 367.05761719 C318.57545898 368.05664062 318.38822266 369.05566406 318.1953125 370.08496094 C307.48087056 427.00659033 280.00091033 480.43938074 240.23144531 522.48730469 C238.79381195 524.02434886 237.38358129 525.58193089 235.98144531 527.15136719 C226.75452525 537.46371008 216.74560729 546.61990251 205.76269531 555.05761719 C205.22257812 555.48091309 204.68246094 555.90420898 204.12597656 556.34033203 C177.34670732 577.30412531 147.67613685 593.37698581 115.76269531 605.05761719 C114.42247314 605.55382568 114.42247314 605.55382568 113.05517578 606.06005859 C85.1139907 616.28371887 55.14495866 622.06675956 25.36816406 622.29589844 C23.78169571 622.3106572 23.78169571 622.3106572 22.16317749 622.32571411 C-0.5811858 622.49373129 -22.86202599 622.60863137 -45.23730469 618.05761719 C-46.43178223 617.81624023 -47.62625977 617.57486328 -48.85693359 617.32617188 C-88.83507882 608.96562329 -127.55218255 593.26833668 -161.23730469 570.05761719 C-161.83800781 569.64833984 -162.43871094 569.2390625 -163.05761719 568.81738281 C-177.74773275 558.77050862 -191.43778733 547.41309231 -204.23730469 535.05761719 C-204.85524902 534.46158691 -205.47319336 533.86555664 -206.10986328 533.25146484 C-214.04163635 525.55782356 -221.41589349 517.7585309 -228.23730469 509.05761719 C-229.6738978 507.34852115 -231.11142619 505.64021091 -232.54980469 503.93261719 C-276.88735232 449.613318 -299.43727251 380.03610633 -299.48730469 310.37011719 C-299.48797943 309.51723114 -299.48865417 308.66434509 -299.48934937 307.78561401 C-299.40301179 238.59371028 -274.70304007 169.24547759 -230.23730469 116.05761719 C-229.44324219 115.09082031 -228.64917969 114.12402344 -227.83105469 113.12792969 C-212.68058738 94.8183925 -196.17931934 78.40291177 -177.23730469 64.05761719 C-176.66318848 63.61595215 -176.08907227 63.17428711 -175.49755859 62.71923828 C-150.61109435 43.5988945 -122.78473295 28.56406502 -93.23730469 18.05761719 C-92.33496094 17.73567383 -91.43261719 17.41373047 -90.50292969 17.08203125 C-84.45271976 14.94653447 -78.36724286 12.95145896 -72.23730469 11.05761719 C-71.49722168 10.8259082 -70.75713867 10.59419922 -69.99462891 10.35546875 C-47.54224259 3.46649597 -23.42027635 0.41683146 0 0 Z " fill="#FEB301" transform="translate(948.2373046875,228.9423828125)"/>
<path d="M0 0 C3.03350268 2.58555874 5.37426793 5.72122725 7.81640625 8.859375 C9.6483159 10.45200432 11.52375882 11.99609094 13.44140625 13.484375 C17.06952587 16.40253164 20.56792419 19.4046563 24.00390625 22.546875 C26.99899789 25.2519657 29.9936424 27.9421105 33.12890625 30.484375 C33.72316406 30.97164062 34.31742188 31.45890625 34.9296875 31.9609375 C37.65057788 33.25659959 38.99217781 32.8376469 41.81640625 31.859375 C44.44424308 30.11470225 44.44424308 30.11470225 47.00390625 27.859375 C47.96683594 27.0446875 48.92976562 26.23 49.921875 25.390625 C53.41097211 22.33943077 56.85122116 19.23876586 60.27734375 16.1171875 C63.75268581 13.0268064 67.35492072 10.10690645 70.98046875 7.1953125 C73.71718791 5.04789318 73.71718791 5.04789318 75.48876953 3.05249023 C79.38787777 -0.94869156 82.14935272 -2.60511944 87.79296875 -2.96484375 C90.00958132 -2.96202258 92.22648737 -2.91480615 94.44140625 -2.828125 C95.59987061 -2.80177979 96.75833496 -2.77543457 97.9519043 -2.74829102 C116.17860349 -2.10213566 132.19644549 4.33181432 144.81640625 17.859375 C155.55177163 30.59817124 160.1572449 43.12301952 160.01171875 59.57421875 C160.00888885 60.78509659 160.00605896 61.99597443 160.00314331 63.24354553 C159.99198655 67.09475768 159.9668898 70.94573364 159.94140625 74.796875 C159.93137065 77.41471017 159.92224581 80.03254901 159.9140625 82.65039062 C159.89376723 89.05354868 159.85460883 95.45619877 159.81640625 101.859375 C147.27640625 101.859375 134.73640625 101.859375 121.81640625 101.859375 C121.48640625 89.319375 121.15640625 76.779375 120.81640625 63.859375 C119.16640625 63.529375 117.51640625 63.199375 115.81640625 62.859375 C106.61193874 72.06384251 114.15884251 88.84679717 113.81640625 101.859375 C64.31640625 101.859375 14.81640625 101.859375 -36.18359375 101.859375 C-36.51359375 89.319375 -36.84359375 76.779375 -37.18359375 63.859375 C-38.83359375 63.529375 -40.48359375 63.199375 -42.18359375 62.859375 C-44.2931338 64.96891505 -43.44252315 69.56848514 -43.5 72.48828125 C-43.51865112 73.25394409 -43.53730225 74.01960693 -43.55651855 74.80847168 C-43.6250212 77.67948432 -43.68503879 80.55069433 -43.74609375 83.421875 C-43.89046875 89.83625 -44.03484375 96.250625 -44.18359375 102.859375 C-57.05359375 102.859375 -69.92359375 102.859375 -83.18359375 102.859375 C-83.25279079 95.67313383 -83.31242835 88.48806775 -83.34838867 81.30175781 C-83.36339353 78.8616136 -83.3838039 76.42149598 -83.40991211 73.98144531 C-83.44666226 70.45631308 -83.46340377 66.93154012 -83.4765625 63.40625 C-83.49204636 62.3307489 -83.50753021 61.2552478 -83.52348328 60.14715576 C-83.5272425 42.89048021 -77.23100897 27.72200457 -65.07421875 15.55078125 C-50.55953183 2.03643086 -19.33633724 -12.57964948 0 0 Z " fill="#FFFEFD" transform="translate(873.18359375,596.140625)"/>
<path d="M0 0 C20.04459575 16.82781903 33.9620209 39.66912796 36.76953125 66.00561523 C38.35071854 91.01977909 36.32278862 115.57369157 19.63671875 135.56030273 C17.38455172 138.079277 15.08945806 140.5489924 12.76953125 143.00561523 C0.38023519 156.31660633 -10.12375897 169.27860708 -13.6875 187.48608398 C-14.23046875 190.00561523 -14.23046875 190.00561523 -15.23046875 191.00561523 C-16.83312258 191.15116678 -18.44204688 191.22839773 -20.05053711 191.27783203 C-21.59365822 191.32613411 -21.59365822 191.32613411 -23.16795349 191.37541199 C-27.91193205 191.4861517 -32.65576942 191.5685801 -37.40063477 191.63037109 C-39.89648964 191.67193902 -42.39210012 191.73321512 -44.88696289 191.81494141 C-66.80835862 192.52151926 -66.80835862 192.52151926 -71.96826172 188.86254883 C-74.42022866 186.37318905 -76.25071142 183.86925696 -78.23046875 181.00561523 C-89.53986977 172.1596175 -103.89955122 165.83071283 -118.3671875 165.94311523 C-119.43904297 165.94956055 -120.51089844 165.95600586 -121.61523438 165.96264648 C-123.82939887 165.99145288 -126.04336267 166.05171095 -128.25585938 166.14233398 C-131.51511709 166.13053221 -134.12358782 166.00272171 -137.23046875 165.00561523 C-140.1340672 162.03570696 -141.67695191 158.8262811 -143.23046875 155.00561523 C-143.71257813 153.8725293 -144.1946875 152.73944336 -144.69140625 151.57202148 C-149.1863011 136.80033713 -149.1863011 136.80033713 -147.23046875 131.00561523 C-144.73824044 128.55797062 -142.12839869 126.81592294 -139.1796875 124.94702148 C-128.83943802 118.14026123 -122.52234667 105.866177 -117.23046875 95.00561523 C-116.57046875 95.33561523 -115.91046875 95.66561523 -115.23046875 96.00561523 C-114.35546875 99.25561523 -114.35546875 99.25561523 -114.23046875 103.00561523 C-115.5585709 104.67645342 -116.89219571 106.34291237 -118.23046875 108.00561523 C-118.98224916 112.17457931 -119.24175008 114.43217147 -116.9375 118.01733398 C-115.12639849 120.12683209 -113.22233379 122.06606935 -111.23046875 124.00561523 C-110.51246094 124.74682617 -109.79445313 125.48803711 -109.0546875 126.25170898 C-104.20654879 131.50761291 -104.20654879 131.50761291 -97.54296875 133.38061523 C-92.52965535 133.36228502 -89.99615224 131.14368481 -86.23046875 128.00561523 C-83.35546875 128.88061523 -83.35546875 128.88061523 -80.23046875 131.00561523 C-79.41844278 133.55769685 -79.04681023 135.97119556 -78.75 138.63061523 C-78.14680977 141.38805627 -77.4508498 142.30985883 -75.23046875 144.00561523 C-70.82545766 145.47395226 -66.53267937 145.23055231 -61.91796875 145.25561523 C-60.98017578 145.27624023 -60.04238281 145.29686523 -59.07617188 145.31811523 C-53.71614234 145.34833386 -49.8297214 145.0967932 -45.23046875 142.00561523 C-44.08231878 139.70931529 -43.92277066 137.92863437 -43.66796875 135.38061523 C-43.54228516 134.1547168 -43.54228516 134.1547168 -43.4140625 132.90405273 C-43.35347656 132.27756836 -43.29289062 131.65108398 -43.23046875 131.00561523 C-40.59046875 130.01561523 -37.95046875 129.02561523 -35.23046875 128.00561523 C-34.40546875 128.83061523 -33.58046875 129.65561523 -32.73046875 130.50561523 C-29.7601955 132.93203564 -27.2546384 133.88559643 -23.30078125 133.61499023 C-19.03231701 132.35861208 -16.26410384 129.11523734 -13.23046875 126.00561523 C-12.48925781 125.29920898 -11.74804688 124.59280273 -10.984375 123.86499023 C-5.68438867 118.78065413 -5.68438867 118.78065413 -3.85546875 111.75561523 C-4.35229464 106.78735636 -6.10675667 104.83216253 -9.23046875 101.00561523 C-8.29296875 98.13061523 -8.29296875 98.13061523 -6.23046875 95.00561523 C-3.96762807 94.23419227 -1.85795985 93.88787312 0.515625 93.62280273 C3.60069349 92.77801795 4.76729618 91.4845606 6.76953125 89.00561523 C7.33399443 86.16182325 7.33399443 86.16182325 7.1953125 83.03295898 C7.18693359 81.88633789 7.17855469 80.7397168 7.16992188 79.55834961 C7.14091797 78.36532227 7.11191406 77.17229492 7.08203125 75.94311523 C7.0675293 74.14777344 7.0675293 74.14777344 7.05273438 72.31616211 C7.06964642 66.05981798 7.06964642 66.05981798 5.76953125 60.00561523 C4.52236328 59.92827148 4.52236328 59.92827148 3.25 59.84936523 C-5.35746341 58.95083999 -5.35746341 58.95083999 -7.8359375 56.26733398 C-8.79437192 54.04493802 -9.24906187 52.42736901 -9.23046875 50.00561523 C-7.48046875 47.13061523 -7.48046875 47.13061523 -5.23046875 45.00561523 C-3.60023061 41.74513895 -3.76311525 39.62760488 -4.23046875 36.00561523 C-6.22084606 32.99347153 -8.67422791 30.54196315 -11.23046875 28.00561523 C-11.85179687 27.34819336 -12.473125 26.69077148 -13.11328125 26.01342773 C-17.03287872 21.92415072 -19.8189571 19.3182186 -25.60546875 18.56811523 C-29.35533421 19.0206852 -29.77746726 19.20754687 -32.29296875 21.63061523 C-33.26234375 22.41436523 -34.23171875 23.19811523 -35.23046875 24.00561523 C-38.31151284 23.41310676 -40.45726446 22.39221738 -43.23046875 21.00561523 C-43.5469268 18.77684637 -43.60963215 16.5786216 -43.69140625 14.32983398 C-44.42893913 11.14989151 -45.70716267 10.04800266 -48.23046875 8.00561523 C-52.50306864 7.18025667 -56.8245543 7.40292033 -61.16796875 7.44311523 C-62.34810547 7.41926758 -63.52824219 7.39541992 -64.74414062 7.37084961 C-71.66576124 7.15681938 -71.66576124 7.15681938 -77.5234375 10.28295898 C-79.19481939 12.94875572 -79.73766214 14.06613221 -79.60546875 17.13061523 C-80.23046875 21.00561523 -80.23046875 21.00561523 -81.8359375 22.18530273 C-83.79296875 23.00561523 -83.79296875 23.00561523 -87.23046875 24.00561523 C-88.01421875 23.36624023 -88.79796875 22.72686523 -89.60546875 22.06811523 C-93.6959396 18.85417385 -95.98856798 18.41378773 -101.23046875 19.00561523 C-103.40797282 20.34119248 -103.40797282 20.34119248 -105.47265625 22.03295898 C-106.18019043 22.58588623 -106.88772461 23.13881348 -107.61669922 23.70849609 C-108.14924316 24.13654541 -108.68178711 24.56459473 -109.23046875 25.00561523 C-109.26019775 24.03120483 -109.26019775 24.03120483 -109.29052734 23.03710938 C-109.38674808 20.04709002 -109.49602774 17.05767875 -109.60546875 14.06811523 C-109.63640625 13.0465332 -109.66734375 12.02495117 -109.69921875 10.97241211 C-109.93832588 4.73570107 -110.67906175 -0.94642009 -112.23046875 -6.99438477 C-102.80324651 -12.43418247 -93.93122 -16.55070359 -83.23046875 -18.99438477 C-81.90015625 -19.33083008 -81.90015625 -19.33083008 -80.54296875 -19.67407227 C-52.690908 -25.87285408 -22.0305199 -17.68356252 0 0 Z " fill="#FFFEFB" transform="translate(1093.23046875,420.994384765625)"/>
<path d="M0 0 C2.36671907 2.19371329 3.95810314 4.43370841 5.625 7.1875 C11.85055885 16.59467124 20.55035787 23.03555265 31.62109375 25.609375 C46.45230081 27.32396541 60.78954058 26.53641589 75 22 C76.33142647 21.65912989 77.66440861 21.32416742 79 21 C79.86258675 68.18570713 79.86258675 68.18570713 70 90 C69.55914063 90.99257813 69.11828125 91.98515625 68.6640625 93.0078125 C60.53933754 109.49208106 45.73014076 120.70120582 28.73046875 126.81640625 C13.35109885 131.02147297 -2.77136651 127.36861979 -16.53515625 120.14453125 C-33.5360578 110.13030157 -42.4186368 92.92645795 -48.140625 74.65625 C-51.01201298 62.4397993 -51.24927669 50.65620414 -51.125 38.1875 C-51.11494307 36.41602072 -51.10582205 34.64453588 -51.09765625 32.87304688 C-51.07587386 28.58189079 -51.04149603 24.29100886 -51 20 C-49.83879639 19.93506348 -48.67759277 19.87012695 -47.48120117 19.80322266 C-45.93928591 19.71524727 -44.39737535 19.62718953 -42.85546875 19.5390625 C-41.71072083 19.47537476 -41.71072083 19.47537476 -40.54284668 19.41040039 C-26.28143839 18.58932388 -13.5852323 15.60332354 -3.625 4.5625 C-2.39364435 3.06024611 -1.17587913 1.5460633 0 0 Z " fill="#FFFEFC" transform="translate(898,427)"/>
<path d="M0 0 C0.89460938 -0.00128906 1.78921875 -0.00257813 2.7109375 -0.00390625 C3.65195313 -0.00003906 4.59296875 0.00382812 5.5625 0.0078125 C6.97402344 0.00201172 6.97402344 0.00201172 8.4140625 -0.00390625 C9.75597656 -0.00197266 9.75597656 -0.00197266 11.125 0 C11.95128906 0.00112793 12.77757812 0.00225586 13.62890625 0.00341797 C15.5625 0.1328125 15.5625 0.1328125 16.5625 1.1328125 C16.79613881 2.98173196 16.97553635 4.83769281 17.125 6.6953125 C17.20878906 7.70722656 17.29257813 8.71914063 17.37890625 9.76171875 C17.43949219 10.54417969 17.50007813 11.32664062 17.5625 12.1328125 C19.42889981 13.00561112 21.30610611 13.85532277 23.1875 14.6953125 C24.75371094 15.40880859 24.75371094 15.40880859 26.3515625 16.13671875 C29.97287796 17.26011953 31.94646644 17.18918186 35.5625 16.1328125 C38.41804017 13.69553368 38.41804017 13.69553368 40.5625 11.1328125 C44.88754836 12.79144755 47.65668825 16.0038535 50.8125 19.2578125 C51.36679688 19.82113281 51.92109375 20.38445312 52.4921875 20.96484375 C53.85354485 22.34967278 55.20864859 23.74064454 56.5625 25.1328125 C55.3705499 27.73784372 54.62510912 29.08093637 52.375 30.9453125 C50.23019903 33.06039381 50.23019903 33.06039381 50.5625 36.2578125 C51.56243552 41.08907989 53.61122948 45.62220112 55.5625 50.1328125 C56.73619141 50.22369141 56.73619141 50.22369141 57.93359375 50.31640625 C58.94550781 50.40019531 59.95742187 50.48398437 61 50.5703125 C62.00933594 50.65152344 63.01867188 50.73273438 64.05859375 50.81640625 C66.5625 51.1328125 66.5625 51.1328125 67.5625 52.1328125 C67.66130797 53.60933914 67.69329245 55.09048486 67.6953125 56.5703125 C67.69660156 57.46492188 67.69789062 58.35953125 67.69921875 59.28125 C67.69535156 60.22226562 67.69148438 61.16328125 67.6875 62.1328125 C67.69136719 63.07382812 67.69523437 64.01484375 67.69921875 64.984375 C67.69792969 65.87898438 67.69664063 66.77359375 67.6953125 67.6953125 C67.69418457 68.52160156 67.69305664 69.34789062 67.69189453 70.19921875 C67.5625 72.1328125 67.5625 72.1328125 66.5625 73.1328125 C64.54655418 73.36709028 62.524026 73.54617374 60.5 73.6953125 C59.39527344 73.77910156 58.29054688 73.86289062 57.15234375 73.94921875 C56.29769531 74.00980469 55.44304687 74.07039063 54.5625 74.1328125 C51.63046648 82.48875674 51.63046648 82.48875674 50.5625 91.1328125 C52.33981933 93.57662657 54.21472018 95.16834367 56.5625 97.1328125 C54.90386495 101.45786086 51.691459 104.22700075 48.4375 107.3828125 C47.87417969 107.93710937 47.31085938 108.49140625 46.73046875 109.0625 C45.34563972 110.42385735 43.95466796 111.77896109 42.5625 113.1328125 C37.8046875 111.40625 37.8046875 111.40625 35.625 108.9453125 C33.69148791 106.84401236 33.69148791 106.84401236 30.9375 107.1328125 C26.34708182 108.49293641 21.96611312 110.26171206 17.5625 112.1328125 C17.47162109 113.30650391 17.47162109 113.30650391 17.37890625 114.50390625 C17.29511719 115.51582031 17.21132812 116.52773438 17.125 117.5703125 C17.04378906 118.57964844 16.96257812 119.58898437 16.87890625 120.62890625 C16.5625 123.1328125 16.5625 123.1328125 15.5625 124.1328125 C14.00077255 124.21966853 12.43520656 124.23983469 10.87109375 124.23046875 C9.92685547 124.22724609 8.98261719 124.22402344 8.00976562 124.22070312 C7.01654297 124.21232422 6.02332031 124.20394531 5 124.1953125 C4.00291016 124.19080078 3.00582031 124.18628906 1.97851562 124.18164062 C-0.49354849 124.16981257 -2.96549518 124.15333099 -5.4375 124.1328125 C-5.45167969 123.37355469 -5.46585938 122.61429688 -5.48046875 121.83203125 C-5.51267762 115.88530296 -5.51267762 115.88530296 -8.5 111.1328125 C-9.469375 110.8028125 -10.43875 110.4728125 -11.4375 110.1328125 C-12.07558594 109.84921875 -12.71367188 109.565625 -13.37109375 109.2734375 C-16.39826502 107.96872096 -18.80961816 107.1328125 -22.125 107.1328125 C-25.28576745 108.49963086 -27.15909325 110.59401641 -29.4375 113.1328125 C-34.03233289 111.70218688 -36.98489046 109.10302844 -40.3125 105.7578125 C-40.82296875 105.27570313 -41.3334375 104.79359375 -41.859375 104.296875 C-43.3046875 102.859375 -43.3046875 102.859375 -45.4375 100.1328125 C-45.41256882 96.67361125 -44.20216508 95.86946152 -41.8125 93.1953125 C-39.13198838 90.4624496 -39.13198838 90.4624496 -39.66796875 87.765625 C-40.44947878 85.09182928 -41.33839039 82.53096892 -42.375 79.9453125 C-42.71402344 79.08550781 -43.05304687 78.22570312 -43.40234375 77.33984375 C-44.35038738 74.99330986 -44.35038738 74.99330986 -46.4375 73.1328125 C-46.56368788 67.57003007 -45.27220562 62.01781579 -43.97265625 56.63671875 C-43.07720367 52.44704648 -42.56204736 48.19858986 -42 43.953125 C-41.4375 41.1328125 -41.4375 41.1328125 -39.4375 38.1328125 C-39.7616369 34.81040926 -40.04526303 33.52504947 -42.4375 31.1328125 C-43.36573011 27.62542874 -43.353065 24.64081968 -42.4375 21.1328125 C-39.57024081 17.4898955 -36.36582712 14.59694497 -32.4375 12.1328125 C-28.4375 12.1328125 -28.4375 12.1328125 -25.5625 14.6953125 C-22.7355836 17.38499979 -22.7355836 17.38499979 -19.6875 17.2578125 C-18.615 16.8865625 -17.5425 16.5153125 -16.4375 16.1328125 C-15.59058594 15.85308594 -14.74367188 15.57335937 -13.87109375 15.28515625 C-11.00869266 14.14915354 -8.8039389 13.11225857 -6.4375 11.1328125 C-5.32200366 7.73896749 -5.37853371 4.67078968 -5.4375 1.1328125 C-3.84812444 -0.45656306 -2.19850154 0.00300107 0 0 Z " fill="#FFFEFB" transform="translate(1026.4375,434.8671875)"/>
<path d="M0 0 C0.91606522 -0.0066568 1.83213043 -0.0133136 2.7759552 -0.02017212 C4.70811977 -0.030258 6.6403189 -0.0349904 8.57250977 -0.03466797 C11.49360214 -0.03902384 14.41316042 -0.07533887 17.33398438 -0.11328125 C27.3044528 -0.17330902 36.11321098 0.04369532 45.33203125 4.3359375 C46.1523584 4.71419678 46.97268555 5.09245605 47.81787109 5.48217773 C61.97585817 12.37373387 71.55253462 25.53737571 76.64453125 40.0859375 C77.95911711 46.03228849 77.48494871 52.28720239 77.33203125 58.3359375 C62.84735695 64.91077814 45.03585652 68.39308743 29.31640625 64.09765625 C17.77151271 59.66605342 10.02026563 52.19307841 4.7734375 41.015625 C3.57327157 38.13930666 2.42080066 35.25604717 1.33203125 32.3359375 C-1.09392543 32.4667623 -1.09392543 32.4667623 -3.66796875 33.3359375 C-5.21272722 35.4481316 -5.21272722 35.4481316 -6.23046875 38.0859375 C-10.40515053 47.10120123 -15.91946119 51.49849682 -25.07421875 55.34765625 C-34.19233885 58.54836622 -43.09535877 58.45542916 -52.66796875 58.3359375 C-53.55774735 42.93288132 -50.34755859 30.78654718 -40.66796875 18.3359375 C-30.10244412 6.52072716 -15.75570054 0.04045532 0 0 Z " fill="#FFFEFB" transform="translate(899.66796875,381.6640625)"/>
<path d="M0 0 C1.79236067 0.47656412 3.58386897 0.95633498 5.375 1.4375 C6.37273438 1.70433594 7.37046875 1.97117187 8.3984375 2.24609375 C11 3 11 3 13 4 C16.97317106 4.27272937 20.95604499 4.23176781 24.9375 4.25 C26.57428711 4.2809375 26.57428711 4.2809375 28.24414062 4.3125 C34.73671328 4.34339862 40.36059486 3.68755901 46.56469727 1.74511719 C49.02670904 0.99182797 51.46955048 0.46649957 54 0 C54.11214844 1.27230469 54.11214844 1.27230469 54.2265625 2.5703125 C55.29756683 12.12535109 57.93336072 19.34734087 62 28 C62.67975382 29.66137201 63.35164598 31.32612447 64 33 C57.41829665 39.14522041 50.7729343 45.09289773 43.73828125 50.72265625 C41.7721774 52.35780396 39.90061585 53.99682462 38.04296875 55.74609375 C37.55449463 56.20491943 37.06602051 56.66374512 36.56274414 57.13647461 C35.20289004 58.42613078 33.85496538 59.72833199 32.5078125 61.03125 C29.7751709 63.17650135 28.48189336 64.11821243 25 64 C22.86094023 62.43707667 21.20626362 60.99496932 19.375 59.125 C18.31232212 58.0938478 17.24717012 57.06523987 16.1796875 56.0390625 C15.64698242 55.5224707 15.11427734 55.00587891 14.56542969 54.47363281 C12.31179328 52.35214976 9.91941346 50.42851798 7.5 48.5 C1.41270339 43.60350302 -4.29292852 38.32859205 -10 33 C-9.14208242 28.81644684 -7.22556446 25.38779143 -5.25390625 21.6328125 C-2.84280504 16.57025108 -1.66592972 11.66150806 -0.875 6.125 C-0.62363281 4.39636719 -0.62363281 4.39636719 -0.3671875 2.6328125 C-0.24601563 1.76398437 -0.12484375 0.89515625 0 0 Z " fill="#FFFEFB" transform="translate(885,557)"/>
<path d="M0 0 C6.30362264 3.69229534 11.3077711 9.15373697 13.58984375 16.125 C14.57142985 24.65332597 13.14648118 31.17383307 8.52734375 38.3125 C4.35345599 42.86016876 -1.16155122 45.60612559 -7.22265625 46.57421875 C-13.41900827 46.82379404 -18.41397527 45.89590192 -23.41015625 42.125 C-29.40792588 36.56167646 -33.4022277 30.66076148 -33.91015625 22.3125 C-33.67834888 15.69087205 -31.11409297 10.16850086 -26.73046875 5.234375 C-19.6401597 -1.25719684 -9.15449758 -3.3235129 0 0 Z " fill="#FFFEFB" transform="translate(1041.41015625,474.875)"/>
<path d="M0 0 C0.80099121 0.00829834 1.60198242 0.01659668 2.42724609 0.02514648 C8.41908884 0.19663842 13.1832291 0.93866329 18.1875 4.4375 C19.24324219 5.16646484 19.24324219 5.16646484 20.3203125 5.91015625 C27.00498876 11.12716374 30.87415368 18.07148394 32.1875 26.4375 C33.07936957 35.13688352 31.39404385 42.0655129 26.19921875 49.1484375 C20.02548802 56.42043121 13.7921281 60.76512162 4.15625 61.74609375 C-5.85546694 62.1181508 -13.23815581 60.15502817 -20.97265625 53.609375 C-27.54394494 46.74509891 -30.01524849 39.33837492 -30.375 29.9375 C-30.13679988 21.5154245 -27.79730751 15.87002864 -22.3125 9.5625 C-21.4875 8.86125 -20.6625 8.16 -19.8125 7.4375 C-18.6059375 6.385625 -18.6059375 6.385625 -17.375 5.3125 C-11.56706436 1.06279099 -7.03488263 -0.09316268 0 0 Z M-17.8125 15.4375 C-22.1458105 21.84623816 -23.97206973 27.73743585 -22.8125 35.4375 C-20.6655282 42.76246261 -15.69290723 49.08451181 -9.0625 52.9375 C-3.18435352 55.46805341 2.83221438 55.48512155 8.90234375 53.58984375 C16.20063718 50.35225494 20.10829108 45.69042733 23.5625 38.625 C24.9497808 31.54986794 25.28128017 24.6895613 21.59375 18.2890625 C18.1521536 13.75762724 13.55063145 9.49873996 8.1875 7.4375 C-1.91512802 6.42063417 -10.79629985 7.38043499 -17.8125 15.4375 Z " fill="#FFB508" transform="translate(1030.8125,466.5625)"/>
<path d="M0 0 C7.41459942 -0.02312883 14.82919111 -0.04091785 22.24381924 -0.05181217 C25.68640348 -0.05703982 29.12896312 -0.06413531 32.5715332 -0.07543945 C36.52555043 -0.08834235 40.47955756 -0.09322918 44.43359375 -0.09765625 C46.29605995 -0.10539818 46.29605995 -0.10539818 48.19615173 -0.11329651 C49.33725906 -0.11337204 50.47836639 -0.11344757 51.65405273 -0.11352539 C52.664431 -0.115746 53.67480927 -0.11796661 54.71580505 -0.12025452 C57 0 57 0 58 1 C58.09860131 2.40348735 58.13078937 3.81180477 58.1328125 5.21875 C58.13474609 6.49298828 58.13474609 6.49298828 58.13671875 7.79296875 C58.13285156 8.68628906 58.12898438 9.57960938 58.125 10.5 C58.13080078 11.83998047 58.13080078 11.83998047 58.13671875 13.20703125 C58.13542969 14.05652344 58.13414063 14.90601563 58.1328125 15.78125 C58.13168457 16.56564453 58.13055664 17.35003906 58.12939453 18.15820312 C58 20 58 20 57 21 C55.4651703 21.09319449 53.92607918 21.117458 52.38842773 21.11352539 C51.40748642 21.11344986 50.4265451 21.11337433 49.4158783 21.11329651 C48.3492244 21.10813522 47.2825705 21.10297394 46.18359375 21.09765625 C44.55430687 21.09553383 44.55430687 21.09553383 42.8921051 21.09336853 C39.40720925 21.08775048 35.92237658 21.07519492 32.4375 21.0625 C30.08138113 21.05748733 27.72526126 21.05292402 25.36914062 21.04882812 C19.57940536 21.03777519 13.78970719 21.02101951 8 21 C7.59007812 19.90300781 7.18015625 18.80601562 6.7578125 17.67578125 C6.21357114 16.22134314 5.66929867 14.76691667 5.125 13.3125 C4.72087891 12.2306543 4.72087891 12.2306543 4.30859375 11.12695312 C4.04433594 10.42119141 3.78007813 9.71542969 3.5078125 8.98828125 C3.26691895 8.34415283 3.02602539 7.70002441 2.77783203 7.03637695 C1.87786446 4.68024716 0.94159204 2.33976739 0 0 Z " fill="#FFFEFD" transform="translate(1031,619)"/>
<path d="M0 0 C13.2 0 26.4 0 40 0 C40 6.27 40 12.54 40 19 C38 21 38 21 34.28466797 21.22705078 C32.68713948 21.22673351 31.08958973 21.21539982 29.4921875 21.1953125 C28.23125778 21.19106766 28.23125778 21.19106766 26.94485474 21.18673706 C24.25475954 21.1755243 21.5649949 21.15041803 18.875 21.125 C17.05339022 21.1149716 15.23177523 21.10584551 13.41015625 21.09765625 C8.93987375 21.07728122 4.47030774 21.03813533 0 21 C0 14.07 0 7.14 0 0 Z " fill="#FFFEFD" transform="translate(1041,648)"/>
<path d="M0 0 C2.85703027 0.19046868 3.87196792 0.86770018 5.875 2.9375 C10.34479818 7.27583352 15.99011357 7.34063333 21.9375 7.3125 C22.61490234 7.32861328 23.29230469 7.34472656 23.99023438 7.36132812 C29.12949367 7.36625551 32.52116033 6.31760407 37 4 C37.721875 3.2575 38.44375 2.515 39.1875 1.75 C39.785625 1.1725 40.38375 0.595 41 0 C43.25 0.25 43.25 0.25 45 1 C45.75 3.1875 45.75 3.1875 46 6 C43.10641328 11.64938359 37.70063666 13.13633032 32 15 C22.48188024 17.95120346 11.72015238 16.58328828 3 12 C0.67728271 10.43799798 -0.3409347 9.34557508 -2 7 C-2.4375 4.3125 -2.4375 4.3125 -2 2 C-1.34 1.34 -0.68 0.68 0 0 Z " fill="#FFB60A" transform="translate(890,510)"/>
<path d="M0 0 C8.25 0 16.5 0 25 0 C21.91207507 9.26377478 16.52672694 14.46413289 8 19 C7.01580078 19.56074219 7.01580078 19.56074219 6.01171875 20.1328125 C4 21 4 21 0 21 C0 14.07 0 7.14 0 0 Z " fill="#FFFAF0" transform="translate(1041,676)"/>
<path d="M0 0 C1.08152344 -0.01417969 2.16304687 -0.02835937 3.27734375 -0.04296875 C6.0625 0.1875 6.0625 0.1875 8.0625 2.1875 C7.50694444 6.74305556 7.50694444 6.74305556 6.0625 8.1875 C4.06450428 8.28623816 2.06292842 8.31721799 0.0625 8.3125 C-1.030625 8.31507813 -2.12375 8.31765625 -3.25 8.3203125 C-5.9375 8.1875 -5.9375 8.1875 -6.9375 7.1875 C-7.0625 4.1875 -7.0625 4.1875 -6.9375 1.1875 C-5.13003866 -0.61996134 -2.43304219 0.01446517 0 0 Z " fill="#FFB916" transform="translate(875.9375,473.8125)"/>
<path d="M0 0 C0.98871094 -0.01417969 1.97742188 -0.02835937 2.99609375 -0.04296875 C5.5625 0.1875 5.5625 0.1875 7.5625 2.1875 C7.00694444 6.74305556 7.00694444 6.74305556 5.5625 8.1875 C3.75322719 8.31237758 1.93853893 8.36320846 0.125 8.375 C-0.86371094 8.38917969 -1.85242188 8.40335937 -2.87109375 8.41796875 C-5.4375 8.1875 -5.4375 8.1875 -7.4375 6.1875 C-6.71822065 0.28940936 -5.74784881 0.03737223 0 0 Z " fill="#FFB70F" transform="translate(947.4375,473.8125)"/>
</svg>
