<?xml version="1.0" standalone="no"?>
<!DOCTYPE svg PUBLIC "-//W3C//DTD SVG 20010904//EN"
 "http://www.w3.org/TR/2001/REC-SVG-20010904/DTD/svg10.dtd">
<svg version="1.0" xmlns="http://www.w3.org/2000/svg"
 width="1300" height="950" viewBox="0 0 1300.000000 950.000000"
 preserveAspectRatio="xMidYMid meet">

<g transform="translate(0.000000,1080.000000) scale(0.100000,-0.100000)"
fill="#000000" stroke="none">
<path d="M9455 8503 c-644 -31 -1276 -269 -1785 -673 -133 -105 -392 -364
-499 -498 -666 -840 -855 -1948 -505 -2952 351 -1009 1206 -1776 2245 -2013
258 -60 377 -72 694 -72 301 0 417 11 645 61 430 94 835 277 1185 534 441 325
793 763 1014 1261 167 380 248 746 258 1174 12 525 -86 971 -317 1440 -242
492 -615 918 -1070 1220 -463 307 -980 481 -1528 515 -160 9 -203 10 -337 3z
m200 -1419 c33 -15 65 -65 65 -99 0 -32 -33 -86 -61 -100 -49 -26 -97 -19
-135 19 -28 28 -34 42 -34 76 0 52 13 76 53 100 39 24 68 25 112 4z m-777
-222 c31 -20 42 -44 42 -91 0 -59 -47 -111 -102 -111 -54 0 -92 22 -113 65
-50 106 72 203 173 137z m1601 -18 c30 -33 33 -40 28 -82 -13 -114 -160 -143
-212 -42 -22 43 -19 84 11 119 28 34 75 52 114 45 14 -3 40 -21 59 -40z m-839
-201 l0 -158 -37 1 -38 1 -3 157 -3 156 41 0 40 0 0 -157z m-626 -148 c41 -71
72 -133 70 -137 -3 -5 -17 -14 -32 -22 l-28 -14 -78 135 c-43 74 -76 136 -74
138 8 6 63 33 65 31 1 -1 36 -60 77 -131z m1316 91 c0 -4 -15 -34 -34 -65 -18
-31 -52 -88 -75 -128 l-41 -72 -30 17 c-16 9 -30 21 -30 26 0 9 123 228 142
253 7 8 17 7 39 -5 16 -9 29 -21 29 -26z m-533 -192 c312 -64 576 -267 713
-549 191 -390 122 -834 -177 -1144 l-92 -96 -1 111 c0 187 -27 278 -108 360
-58 61 -134 94 -229 101 -87 7 -95 13 -113 82 l-11 43 54 57 c94 99 125 184
134 371 12 248 -38 366 -182 432 -44 20 -65 23 -185 23 -128 0 -138 -2 -192
-28 -61 -30 -105 -74 -140 -140 -22 -39 -23 -54 -23 -237 0 -165 3 -203 19
-250 27 -78 60 -132 111 -179 50 -46 54 -65 26 -127 l-19 -41 -79 -5 c-98 -7
-179 -45 -242 -113 -74 -80 -85 -117 -91 -300 l-5 -160 -81 80 c-130 129 -215
277 -266 463 -29 104 -32 393 -6 489 72 258 219 466 430 606 116 78 282 143
403 160 79 11 281 6 352 -9z m-1522 -98 c40 -17 65 -60 65 -112 0 -54 -53
-104 -110 -104 -133 0 -161 182 -34 220 40 12 41 12 79 -4z m2751 -2 c41 -20
64 -59 64 -110 0 -28 -8 -44 -34 -70 -29 -29 -41 -34 -79 -34 -153 0 -152 216
1 229 8 0 29 -6 48 -15z m-2481 -241 l134 -77 -16 -30 c-9 -17 -17 -33 -19
-34 -2 -3 -258 141 -272 153 -3 2 31 65 36 65 1 0 63 -35 137 -77z m2268 48
c9 -16 17 -31 17 -34 0 -3 -208 -126 -262 -154 -9 -5 -41 57 -33 65 7 7 248
150 255 151 3 1 13 -12 23 -28z m-1092 9 c83 -23 152 -98 168 -183 10 -57 5
-61 -87 -76 -106 -17 -186 21 -217 104 -11 26 -26 47 -38 51 -21 7 -28 1 -59
-56 -21 -36 -87 -69 -140 -70 -35 0 -38 2 -38 28 0 42 47 129 86 158 19 15 51
32 71 40 45 16 203 18 254 4z m-89 -308 c60 -28 142 -35 206 -19 44 12 55 12
59 1 2 -7 0 -58 -5 -113 -16 -159 -74 -258 -183 -317 -50 -27 -171 -26 -224 3
-113 60 -175 192 -175 372 l0 78 58 6 c60 5 128 33 152 62 12 14 16 12 42 -19
15 -19 47 -43 70 -54z m-1534 -327 c25 -27 32 -43 32 -74 0 -69 -78 -132 -143
-116 -71 18 -110 123 -66 179 50 64 123 69 177 11z m3138 29 c39 -19 64 -59
64 -103 0 -63 -35 -104 -101 -116 -47 -9 -99 27 -118 81 -13 37 -12 44 5 80
12 24 32 46 54 56 43 22 53 22 96 2z m-2718 -106 l3 -38 -160 0 -161 0 0 40 0
41 158 -3 157 -3 3 -37z m2484 2 l4 -40 -158 0 -158 0 0 40 0 40 154 0 154 0
4 -40z m-1359 -137 c73 6 77 5 77 -14 0 -11 9 -38 19 -59 l19 -40 -61 -52
c-34 -28 -70 -58 -79 -66 -15 -12 -25 -7 -90 49 -40 35 -72 70 -71 79 1 8 10
38 20 66 l18 51 35 -10 c19 -5 70 -7 113 -4z m-164 -233 c51 -44 101 -85 112
-90 15 -9 36 5 123 80 l105 90 64 0 c118 0 226 -77 267 -190 7 -20 15 -105 17
-196 l6 -161 -29 -20 c-16 -12 -56 -35 -89 -51 l-60 -31 -5 101 c-4 80 -9 103
-22 111 -12 8 -21 7 -32 -2 -13 -11 -16 -35 -16 -126 l0 -112 -37 -11 c-142
-40 -348 -48 -488 -18 -89 20 -116 31 -114 49 1 7 1 58 0 114 -1 95 -2 102
-23 109 -36 11 -48 -19 -48 -124 l0 -94 -82 45 -83 44 0 184 c0 170 2 187 22
224 51 96 148 154 258 154 l60 1 94 -80z m-814 -180 l15 -28 -130 -76 c-71
-42 -133 -76 -137 -76 -4 0 -16 14 -25 31 l-18 30 37 22 c160 95 229 133 236
130 4 -3 14 -17 22 -33z m2035 -40 c69 -40 126 -74 128 -76 2 -1 -4 -16 -13
-34 -12 -23 -21 -30 -33 -25 -28 11 -242 137 -247 146 -7 11 23 71 33 66 4 -2
63 -37 132 -77z m-2388 -129 c50 -56 34 -142 -32 -176 -46 -24 -85 -19 -124
16 -44 38 -54 83 -31 133 23 48 58 67 115 62 34 -3 51 -11 72 -35z m2712 29
c32 -12 66 -65 66 -103 0 -85 -95 -144 -168 -103 -32 17 -62 65 -62 99 0 84
83 138 164 107z m-1963 -256 c17 -8 29 -18 27 -22 -11 -25 -150 -262 -154
-262 -13 0 -65 32 -62 38 11 25 150 262 154 262 3 0 19 -7 35 -16z m1197 -112
c39 -71 72 -131 72 -135 0 -7 -60 -40 -64 -35 -2 2 -37 63 -79 135 l-76 133
27 14 c15 9 32 15 37 16 6 0 43 -58 83 -128z m-618 -187 l0 -155 -40 0 -40 0
0 155 0 155 40 0 40 0 0 -155z m-747 -55 c38 -43 38 -107 -1 -151 -40 -45
-106 -52 -149 -15 -44 37 -58 84 -39 130 33 79 133 98 189 36z m1557 25 c75
-39 78 -151 6 -199 -51 -33 -132 -11 -161 44 -53 102 53 208 155 155z m-792
-215 c101 -62 62 -210 -55 -210 -38 0 -50 5 -79 34 -66 66 -38 158 56 189 28
10 45 7 78 -13z"/>
</g>
</svg>
