<svg width="1920" height="1080" version="1.1" xmlns="http://www.w3.org/2000/svg" desc="Created with imagetracer.js version 1.2.6" ><path fill="rgb(205,205,205)" stroke="rgb(205,205,205)" stroke-width="1" opacity="1" d="M 777.5 280 L 780 280.5 L 777.5 281 L 777.5 280 Z " /><path fill="rgb(205,205,205)" stroke="rgb(205,205,205)" stroke-width="1" opacity="1" d="M 1204.5 280 L 1208 280.5 L 1204.5 281 L 1204.5 280 Z " /><path fill="rgb(205,205,205)" stroke="rgb(205,205,205)" stroke-width="1" opacity="1" d="M 1219.5 284 L 1220.5 286 L 1219.5 284 Z " /><path fill="rgb(205,205,205)" stroke="rgb(205,205,205)" stroke-width="1" opacity="1" d="M 759.5 287 L 758.5 289 L 759.5 287 Z " /><path fill="rgb(205,205,205)" stroke="rgb(205,205,205)" stroke-width="1" opacity="1" d="M 1224.5 287 L 1225.5 289 L 1224.5 287 Z " /><path fill="rgb(205,205,205)" stroke="rgb(205,205,205)" stroke-width="1" opacity="1" d="M 756.5 289 L 754.5 292 L 756.5 289 Z " /><path fill="rgb(205,205,205)" stroke="rgb(205,205,205)" stroke-width="1" opacity="1" d="M 1227.5 289 L 1228.5 291 L 1227.5 289 Z " /><path fill="rgb(205,205,205)" stroke="rgb(205,205,205)" stroke-width="1" opacity="1" d="M 1231.5 292 L 1237.5 299 L 1231.5 292 Z " /><path fill="rgb(205,205,205)" stroke="rgb(205,205,205)" stroke-width="1" opacity="1" d="M 751.5 293 L 749.5 296 L 751.5 293 Z " /><path fill="rgb(205,205,205)" stroke="rgb(205,205,205)" stroke-width="1" opacity="1" d="M 746.5 299 L 745.5 301 L 746.5 299 Z " /><path fill="rgb(205,205,205)" stroke="rgb(205,205,205)" stroke-width="1" opacity="1" d="M 1238.5 300 L 1239.5 302 L 1238.5 300 Z " /><path fill="rgb(205,205,205)" stroke="rgb(205,205,205)" stroke-width="1" opacity="1" d="M 742.5 305 L 741.5 307 L 742.5 305 Z " /><path fill="rgb(205,205,205)" stroke="rgb(205,205,205)" stroke-width="1" opacity="1" d="M 1248.5 325 L 1249 695.5 L 1248 695.5 L 1248.5 325 Z " /><path fill="rgb(205,205,205)" stroke="rgb(205,205,205)" stroke-width="1" opacity="1" d="M 735.5 331 L 736 688.5 L 735 688.5 L 735.5 331 Z " /><path fill="rgb(205,205,205)" stroke="rgb(205,205,205)" stroke-width="1" opacity="1" d="M 1143.5 346 L 1147 346.5 L 1143.5 347 L 1143.5 346 Z " /><path fill="rgb(205,205,205)" stroke="rgb(205,205,205)" stroke-width="1" opacity="1" d="M 1141.5 347 L 1140.5 349 L 1141.5 347 Z " /><path fill="rgb(205,205,205)" stroke="rgb(205,205,205)" stroke-width="1" opacity="1" d="M 1160.5 349 L 1163 349.5 L 1160.5 350 L 1160.5 349 Z " /><path fill="rgb(205,205,205)" stroke="rgb(205,205,205)" stroke-width="1" opacity="1" d="M 1139.5 350 L 1140 352.5 L 1139 352.5 L 1139.5 350 Z " /><path fill="rgb(205,205,205)" stroke="rgb(205,205,205)" stroke-width="1" opacity="1" d="M 1165.5 350 L 1168 350.5 L 1165.5 351 L 1165.5 350 Z " /><path fill="rgb(205,205,205)" stroke="rgb(205,205,205)" stroke-width="1" opacity="1" d="M 1170.5 351 L 1173 352.5 L 1171.5 352 L 1170.5 351 Z " /><path fill="rgb(205,205,205)" stroke="rgb(205,205,205)" stroke-width="1" opacity="1" d="M 1144.5 356 L 1147 356.5 L 1144.5 357 L 1144.5 356 Z " /><path fill="rgb(205,205,205)" stroke="rgb(205,205,205)" stroke-width="1" opacity="1" d="M 1150.5 357 L 1153 358.5 L 1151.5 358 L 1150.5 357 Z " /><path fill="rgb(205,205,205)" stroke="rgb(205,205,205)" stroke-width="1" opacity="1" d="M 1147.5 371 L 1149 371.5 L 1145.5 373 L 1145.5 372 L 1147.5 371 Z " /><path fill="rgb(205,205,205)" stroke="rgb(205,205,205)" stroke-width="1" opacity="1" d="M 1103.5 382 L 1105 382.5 L 1101.5 384 L 1101.5 383 L 1103.5 382 Z " /><path fill="rgb(205,205,205)" stroke="rgb(205,205,205)" stroke-width="1" opacity="1" d="M 1084.5 402 L 1086 402.5 L 1082.5 404 L 1082.5 403 L 1084.5 402 Z " /><path fill="rgb(205,205,205)" stroke="rgb(205,205,205)" stroke-width="1" opacity="1" d="M 1046.5 410 L 1048 410.5 L 1044.5 412 L 1044.5 411 L 1046.5 410 Z " /><path fill="rgb(205,205,205)" stroke="rgb(205,205,205)" stroke-width="1" opacity="1" d="M 1021.5 433 L 1023 433.5 L 1019.5 435 L 1019.5 434 L 1021.5 433 Z " /><path fill="rgb(205,205,205)" stroke="rgb(205,205,205)" stroke-width="1" opacity="1" d="M 989.5 438 L 991 438.5 L 987.5 440 L 987.5 439 L 989.5 438 Z " /><path fill="rgb(205,205,205)" stroke="rgb(205,205,205)" stroke-width="1" opacity="1" d="M 960.5 463 L 962 463.5 L 958.5 465 L 958.5 464 L 960.5 463 Z " /><path fill="rgb(205,205,205)" stroke="rgb(205,205,205)" stroke-width="1" opacity="1" d="M 932.5 466 L 934 466.5 L 930.5 468 L 930.5 467 L 932.5 466 Z " /><path fill="rgb(205,205,205)" stroke="rgb(205,205,205)" stroke-width="1" opacity="1" d="M 897.5 494 L 899 494.5 L 895.5 496 L 895.5 495 L 897.5 494 Z " /><path fill="rgb(205,205,205)" stroke="rgb(205,205,205)" stroke-width="1" opacity="1" d="M 877.5 504 L 876.5 506 L 875 505.5 L 877.5 504 Z " /><path fill="rgb(205,205,205)" stroke="rgb(205,205,205)" stroke-width="1" opacity="1" d="M 886.5 506 L 900 506.5 L 886.5 507 L 886.5 506 Z " /><path fill="rgb(205,205,205)" stroke="rgb(205,205,205)" stroke-width="1" opacity="1" d="M 914.5 507 L 928 507.5 L 914.5 508 L 914.5 507 Z " /><path fill="rgb(205,205,205)" stroke="rgb(205,205,205)" stroke-width="1" opacity="1" d="M 942.5 508 L 956 508.5 L 942.5 509 L 942.5 508 Z " /><path fill="rgb(205,205,205)" stroke="rgb(205,205,205)" stroke-width="1" opacity="1" d="M 855.5 509 L 856 514.5 L 855 514.5 L 855.5 509 Z " /><path fill="rgb(205,205,205)" stroke="rgb(205,205,205)" stroke-width="1" opacity="1" d="M 970.5 509 L 984 509.5 L 970.5 510 L 970.5 509 Z " /><path fill="rgb(205,205,205)" stroke="rgb(205,205,205)" stroke-width="1" opacity="1" d="M 998.5 510 L 1012 510.5 L 998.5 511 L 998.5 510 Z " /><path fill="rgb(205,205,205)" stroke="rgb(205,205,205)" stroke-width="1" opacity="1" d="M 1026.5 511 L 1039 511.5 L 1026.5 512 L 1026.5 511 Z " /><path fill="rgb(205,205,205)" stroke="rgb(205,205,205)" stroke-width="1" opacity="1" d="M 1053.5 512 L 1067 512.5 L 1053.5 513 L 1053.5 512 Z " /><path fill="rgb(205,205,205)" stroke="rgb(205,205,205)" stroke-width="1" opacity="1" d="M 1081.5 513 L 1095 513.5 L 1081.5 514 L 1081.5 513 Z " /><path fill="rgb(205,205,205)" stroke="rgb(205,205,205)" stroke-width="1" opacity="1" d="M 1109.5 514 L 1123 514.5 L 1109.5 515 L 1109.5 514 Z " /><path fill="rgb(205,205,205)" stroke="rgb(205,205,205)" stroke-width="1" opacity="1" d="M 867.5 515 L 880 515.5 L 867.5 516 L 867.5 515 Z " /><path fill="rgb(205,205,205)" stroke="rgb(205,205,205)" stroke-width="1" opacity="1" d="M 894.5 516 L 908 516.5 L 894.5 517 L 894.5 516 Z " /><path fill="rgb(205,205,205)" stroke="rgb(205,205,205)" stroke-width="1" opacity="1" d="M 922.5 517 L 936 517.5 L 922.5 518 L 922.5 517 Z " /><path fill="rgb(205,205,205)" stroke="rgb(205,205,205)" stroke-width="1" opacity="1" d="M 950.5 518 L 964 518.5 L 950.5 519 L 950.5 518 Z " /><path fill="rgb(205,205,205)" stroke="rgb(205,205,205)" stroke-width="1" opacity="1" d="M 978.5 519 L 992 519.5 L 978.5 520 L 978.5 519 Z " /><path fill="rgb(205,205,205)" stroke="rgb(205,205,205)" stroke-width="1" opacity="1" d="M 1006.5 520 L 1020 520.5 L 1006.5 521 L 1006.5 520 Z " /><path fill="rgb(205,205,205)" stroke="rgb(205,205,205)" stroke-width="1" opacity="1" d="M 1034.5 521 L 1048 521.5 L 1034.5 522 L 1034.5 521 Z " /><path fill="rgb(205,205,205)" stroke="rgb(205,205,205)" stroke-width="1" opacity="1" d="M 1062.5 522 L 1075 522.5 L 1062.5 523 L 1062.5 522 Z " /><path fill="rgb(205,205,205)" stroke="rgb(205,205,205)" stroke-width="1" opacity="1" d="M 1089.5 523 L 1103 523.5 L 1089.5 524 L 1089.5 523 Z " /><path fill="rgb(205,205,205)" stroke="rgb(205,205,205)" stroke-width="1" opacity="1" d="M 824.5 638 L 822.5 641 L 824.5 638 Z " /><path fill="rgb(205,205,205)" stroke="rgb(205,205,205)" stroke-width="1" opacity="1" d="M 831.5 641 L 832 644.5 L 831 644.5 L 831.5 641 Z " /><path fill="rgb(205,205,205)" stroke="rgb(205,205,205)" stroke-width="1" opacity="1" d="M 819.5 646 L 818.5 648 L 819.5 646 Z " /><path fill="rgb(205,205,205)" stroke="rgb(205,205,205)" stroke-width="1" opacity="1" d="M 831.5 662 L 832.5 664 Q 829.7 664.7 831.5 662 Z " /><path fill="rgb(205,205,205)" stroke="rgb(205,205,205)" stroke-width="1" opacity="1" d="M 810.5 667 L 814 669.5 L 812.5 670 L 810.5 667 Z " /><path fill="rgb(205,205,205)" stroke="rgb(205,205,205)" stroke-width="1" opacity="1" d="M 821.5 671 L 824 671.5 L 821.5 672 L 821.5 671 Z " /><path fill="rgb(205,205,205)" stroke="rgb(205,205,205)" stroke-width="1" opacity="1" d="M 843.5 672 L 842.5 674 L 843.5 672 Z " /><path fill="rgb(205,205,205)" stroke="rgb(205,205,205)" stroke-width="1" opacity="1" d="M 835.5 674 L 838 674.5 L 835.5 675 L 835.5 674 Z " /><path fill="rgb(205,205,205)" stroke="rgb(205,205,205)" stroke-width="1" opacity="1" d="M 736.5 697 L 737 699.5 L 736 699.5 L 736.5 697 Z " /><path fill="rgb(205,205,205)" stroke="rgb(205,205,205)" stroke-width="1" opacity="1" d="M 741.5 713 L 742.5 715 L 741.5 713 Z " /><path fill="rgb(205,205,205)" stroke="rgb(205,205,205)" stroke-width="1" opacity="1" d="M 1241.5 715 L 1240.5 717 L 1241.5 715 Z " /><path fill="rgb(205,205,205)" stroke="rgb(205,205,205)" stroke-width="1" opacity="1" d="M 744.5 718 L 746.5 721 L 744.5 718 Z " /><path fill="rgb(205,205,205)" stroke="rgb(205,205,205)" stroke-width="1" opacity="1" d="M 1239.5 718 L 1238.5 720 L 1239.5 718 Z " /><path fill="rgb(205,205,205)" stroke="rgb(205,205,205)" stroke-width="1" opacity="1" d="M 1237.5 721 L 1230.5 729 L 1237.5 721 Z " /><path fill="rgb(205,205,205)" stroke="rgb(205,205,205)" stroke-width="1" opacity="1" d="M 748.5 723 L 752.5 728 L 748.5 723 Z " /><path fill="rgb(205,205,205)" stroke="rgb(205,205,205)" stroke-width="1" opacity="1" d="M 755.5 729 L 756.5 731 L 755.5 729 Z " /><path fill="rgb(205,205,205)" stroke="rgb(205,205,205)" stroke-width="1" opacity="1" d="M 1227.5 730 L 1226.5 732 L 1227.5 730 Z " /><path fill="rgb(205,205,205)" stroke="rgb(205,205,205)" stroke-width="1" opacity="1" d="M 758.5 731 L 759.5 733 L 758.5 731 Z " /><path fill="rgb(205,205,205)" stroke="rgb(205,205,205)" stroke-width="1" opacity="1" d="M 761.5 733 L 762.5 735 L 761.5 733 Z " /><path fill="rgb(205,205,205)" stroke="rgb(205,205,205)" stroke-width="1" opacity="1" d="M 776.5 739 L 779 739.5 L 776.5 740 L 776.5 739 Z " /><path fill="rgb(205,205,205)" stroke="rgb(205,205,205)" stroke-width="1" opacity="1" d="M 1205.5 739 L 1208 739.5 L 1205.5 740 L 1205.5 739 Z " /><path fill="rgb(255,255,255)" stroke="rgb(255,255,255)" stroke-width="1" opacity="1" d="M 0 0 L 1920 0 L 1920 1080 L 0 1080 L 0 0 Z M 778 280 Q 762 284 752 293 L 739 311 L 736 321 L 736 331 L 735 332 L 735 689 L 736 690 L 736 700 L 739 710 L 748 724 Q 758 736 777 740 L 1208 740 Q 1221 737 1231 729 Q 1245 717 1249 696 L 1249 326 L 1246 313 L 1238 299 Q 1227 285 1208 280 L 778 280 Z " /><path fill="rgb(255,255,255)" stroke="rgb(255,255,255)" stroke-width="1" opacity="1" d="M 1142.5 347 L 1149.5 347 L 1169.5 351 L 1173 353.5 L 1174 356.5 L 1160.5 382 L 1156.5 383 L 1154 382 L 1153 376.5 L 1158 367.5 L 1156.5 367 L 875 505.5 L 885.5 506 L 886.5 507 L 913.5 507 L 914.5 508 L 941.5 508 L 942.5 509 L 969.5 509 L 970.5 510 L 997.5 510 L 998.5 511 L 1025.5 511 L 1026.5 512 L 1052.5 512 L 1053.5 513 L 1080.5 513 L 1081.5 514 L 1134 515 L 1135 525 L 831 662 Q 829.7 665.3 834.5 664 L 839.5 665 L 843 667.5 L 844 671.5 L 838.5 675 L 823.5 671 L 814.5 670 L 810 666.5 L 810 663.5 L 813 657.5 L 822 641.5 L 825.5 638 L 831 640.5 L 831 645.5 L 826 653.5 L 827.5 654 L 1113 524.5 L 1103.5 524 L 1102.5 523 L 1075.5 523 L 1074.5 522 L 1048.5 522 L 1047.5 521 L 1020.5 521 L 1019.5 520 L 992.5 520 L 991.5 519 L 964.5 519 L 963.5 518 L 936.5 518 L 935.5 517 L 908.5 517 L 907.5 516 L 856 515 Q 856.9 508.2 854 505 L 1153 358.5 L 1151.5 357 L 1143.5 356 L 1140 353.5 Q 1139 348 1142.5 347 Z " /><path fill="rgb(0,0,0)" stroke="rgb(0,0,0)" stroke-width="1" opacity="1" d="M 780.5 280 L 1203.5 280 L 1218.5 284 Q 1230.2 289.8 1238 299.5 Q 1245.2 308.3 1248 321.5 L 1248 698.5 Q 1243.2 719.2 1228.5 730 Q 1219.1 737.6 1204.5 740 L 779.5 740 L 763.5 735 Q 753.8 729.8 747 721.5 Q 738.5 712 736 696.5 L 736 322.5 Q 740 302.5 753.5 292 L 768.5 283 L 780.5 280 Z M 1144 346 L 1142 347 L 1139 353 L 1145 357 Q 1150 356 1152 359 L 853 506 Q 856 508 855 515 L 867 515 L 868 516 L 894 516 L 895 517 L 922 517 L 923 518 L 950 518 L 951 519 L 978 519 L 979 520 L 1006 520 L 1007 521 L 1034 521 L 1035 522 L 1062 522 L 1063 523 L 1089 523 L 1090 524 L 1112 525 L 829 653 L 827 653 L 832 645 L 832 642 Q 831 637 825 638 L 810 663 L 810 668 L 813 670 L 831 673 L 836 675 Q 842 676 844 673 L 843 666 L 834 664 L 832 663 L 1136 525 Q 1133 521 1134 515 L 1124 515 L 1123 514 L 1096 514 L 1095 513 L 1068 513 L 1067 512 L 1040 512 L 1039 511 L 1013 511 L 1012 510 L 985 510 L 984 509 L 957 509 L 956 508 L 929 508 L 928 507 L 901 507 L 900 506 L 877 506 L 1156 368 L 1157 369 L 1153 376 L 1153 381 Q 1154 384 1160 383 L 1163 380 L 1174 358 L 1173 353 L 1168 350 L 1144 346 Z " /></svg>